<?xml version="1.0" encoding="utf-8"?>
<!-- Generator: Adobe Illustrator 21.0.0, SVG Export Plug-In . SVG Version: 6.00 Build 0)  -->
<svg version="1.1" id="Слой_1" xmlns="http://www.w3.org/2000/svg" xmlns:xlink="http://www.w3.org/1999/xlink" x="0px" y="0px"
	 viewBox="0 0 16 70" style="enable-background:new 0 0 16 70;" xml:space="preserve">
<style type="text/css">
	.st0{fill:#F1737A;}
</style>
<g>
	<polygon class="st0" points="14,67.1 14,64.5 11.3,64.5 11.3,56.3 8.7,56.3 8.6,64.5 1.6,64.4 1.6,67.1 8.6,67.1 8.6,68.8 
		11.3,68.8 11.3,67.1 	"/>
	<polygon class="st0" points="7.5,50.9 4.9,50.9 4.9,63.3 7.5,63.3 	"/>
</g>
<polygon class="st0" points="14.7,32.4 14.7,29.7 12,29.7 12,26.6 9.3,26.6 9.3,29.7 8.2,29.7 8.2,27 5.5,27 5.5,29.7 2.2,29.7 
	2.2,32.4 5.5,32.4 5.5,39.4 8.2,39.4 8.2,32.4 9.3,32.4 9.3,39 12,39 12,32.4 "/>
</svg>
