<?xml version="1.0" encoding="utf-8"?>
<!-- Generator: Adobe Illustrator 21.0.0, SVG Export Plug-In . SVG Version: 6.00 Build 0)  -->
<svg version="1.1" id="Слой_1" xmlns="http://www.w3.org/2000/svg" xmlns:xlink="http://www.w3.org/1999/xlink" x="0px" y="0px"
	 viewBox="0 0 15 147" style="enable-background:new 0 0 15 147;" xml:space="preserve">
<style type="text/css">
	.st0{fill:#F1737A;}
</style>
<polygon class="st0" points="3.9,29.4 3.9,36 6.6,36 6.6,29.4 7.7,29.4 7.7,36.4 10.4,36.4 10.4,29.4 13.7,29.4 13.7,26.7 
	10.4,26.7 10.4,24 7.7,24 7.7,26.7 6.6,26.7 6.6,23.6 3.9,23.6 3.9,26.7 1.2,26.7 1.2,29.4 "/>
<polygon class="st0" points="3.9,109.3 3.9,115.9 6.6,115.9 6.6,109.3 7.7,109.3 7.7,116.3 10.4,116.3 10.4,109.3 13.7,109.3 
	13.7,106.6 10.4,106.6 10.4,103.9 7.7,103.9 7.7,106.6 6.6,106.6 6.6,103.5 3.9,103.5 3.9,106.6 1.2,106.6 1.2,109.3 "/>
<g>
	<polygon class="st0" points="4.3,143.1 4.3,144.8 7,144.8 7,143.1 14,143.1 14,140.4 7,140.5 6.9,132.3 4.3,132.3 4.3,140.5 
		1.6,140.5 1.6,143.1 	"/>
	<polygon class="st0" points="8.1,139.3 10.7,139.3 10.7,126.9 8.1,126.9 	"/>
</g>
</svg>
