<?xml version="1.0" encoding="UTF-8"?>
<svg width="2558px" height="540px" viewBox="0 0 2558 540" version="1.1" xmlns="http://www.w3.org/2000/svg" xmlns:xlink="http://www.w3.org/1999/xlink">
    <!-- Generator: sketchtool 49.1 (51147) - http://www.bohemiancoding.com/sketch -->
    <title>336B2220-34A9-488E-9438-B22233C6808E</title>
    <desc>Created with sketchtool.</desc>
    <defs></defs>
    <g id="Page-1" stroke="none" stroke-width="1" fill="none" fill-rule="evenodd">
        <g id="Desktop-HD-Copy-4" transform="translate(-2.000000, -636.000000)" fill="#1D1D1B">
            <g id="reksoft2" transform="translate(-1.000000, 636.000000)">
                <g id="Group-Copy-2">
                    <g id="img_17" transform="translate(3.000000, 0.000000)">
                        <path d="M550.623596,162.59799 C490.191011,190.035176 459,248.829146 459,335.060302 C459,335.060302 459,335.060302 459,337.020101 C459,466.366834 525.280899,533 655.893258,533 L806,533 L806,450.688442 L669.539326,450.688442 C603.258427,450.688442 575.966292,444.809045 574.016854,380.135678 L806,380.135678 L806,337.020101 L806,295.864322 L572.067416,295.864322 C574.016854,235.110553 603.258427,223.351759 669.539326,223.351759 L804.050562,223.351759 L804.050562,162.59799 L804.050562,143 L653.94382,143 C613.005618,143 577.91573,148.879397 550.623596,162.59799 Z" id="Shape"></path>
                        <path d="M351.95122,309.610294 C420.386179,293.933824 457.536585,244.944853 457.536585,162.643382 C457.536585,162.643382 457.536585,160.683824 457.536585,160.683824 C457.536585,50.9485294 398.878049,0 275.695122,0 L0,0 L0,162.643382 L0,337.044118 L0,533 L109.495935,533 L109.495935,337.044118 L109.495935,323.327206 L240.5,323.327206 L248.321138,337.044118 L357.817073,533 L481,533 L365.638211,337.044118 L351.95122,309.610294 Z M346.085366,164.602941 C346.085366,217.511029 312.845528,229.268382 248.321138,229.268382 L111.45122,229.268382 L111.45122,162.643382 L111.45122,96.0183824 L248.321138,96.0183824 C310.890244,96.0183824 346.085366,105.816176 346.085366,164.602941 C346.085366,162.643382 346.085366,162.643382 346.085366,164.602941 Z" id="Shape"></path>
                        <polygon id="Shape" points="1060.03902 331.165441 1220.43902 162.643382 1240 143.047794 1106.98537 143.047794 1089.38049 162.643382 942.673171 331.165441 942.673171 162.643382 942.673171 0 839 0 839 162.643382 839 337.044118 839 533 942.673171 533 942.673171 342.922794 1101.11707 533 1240 533 1063.95122 337.044118"></polygon>
                        <path d="M1483.73575,293.904523 L1391.68394,293.904523 C1358.3886,293.904523 1340.76166,284.105528 1340.76166,258.628141 C1340.76166,225.311558 1366.2228,223.351759 1411.26943,223.351759 L1593.41451,223.351759 L1593.41451,162.59799 L1593.41451,143 L1372.09845,143 C1332.92746,143 1303.54922,148.879397 1282.00518,162.59799 C1250.66839,182.19598 1235,213.552764 1235,262.547739 C1235,295.864322 1240.87565,319.38191 1252.62694,337.020101 C1272.21244,366.417085 1311.38342,374.256281 1372.09845,374.256281 L1460.23316,374.256281 C1499.40415,374.256281 1515.07254,384.055276 1515.07254,413.452261 C1515.07254,442.849246 1499.40415,450.688442 1460.23316,450.688442 L1240.87565,450.688442 L1240.87565,533 L1507.23834,533 C1565.99482,533 1613,484.005025 1613,409.532663 C1613,380.135678 1605.1658,354.658291 1591.45596,337.020101 C1571.87047,307.623116 1534.65803,293.904523 1483.73575,293.904523 Z" id="Shape"></path>
                        <path d="M1945.05714,162.432039 C1915.7,146.781553 1878.51429,137 1835.45714,137 C1792.4,137 1753.25714,146.781553 1723.9,162.432039 C1663.22857,193.73301 1628,256.334951 1628,334.587379 C1628,334.587379 1628,334.587379 1628,336.543689 C1628,457.834951 1708.24286,540 1835.45714,540 C1960.71429,540 2039,457.834951 2039,336.543689 C2039,336.543689 2039,336.543689 2039,334.587379 C2039,256.334951 2005.72857,193.73301 1945.05714,162.432039 Z M1933.31429,336.543689 C1933.31429,412.839806 1894.17143,453.92233 1833.5,453.92233 C1772.82857,453.92233 1733.68571,412.839806 1733.68571,336.543689 C1733.68571,336.543689 1733.68571,336.543689 1733.68571,334.587379 C1733.68571,260.247573 1772.82857,219.165049 1833.5,219.165049 C1894.17143,219.165049 1933.31429,260.247573 1933.31429,336.543689 C1933.31429,334.587379 1933.31429,334.587379 1933.31429,336.543689 Z" id="Shape"></path>
                        <path d="M2452.3913,143.306273 L2452.3913,0 L2348.69565,0 L2348.69565,143.306273 L2200,143.306273 L2200,111.896679 C2200,84.4132841 2215.65217,76.5608856 2248.91304,76.5608856 L2297.82609,76.5608856 L2297.82609,0 L2200,0 C2113.91304,0 2094.34783,21.5940959 2094.34783,104.04428 L2094.34783,143.306273 L2020,143.306273 L2020,162.937269 L2020,217.904059 L2094.34783,217.904059 L2094.34783,335.690037 L2094.34783,532 L2200,532 L2200,335.690037 L2200,217.904059 L2348.69565,217.904059 L2348.69565,335.690037 L2348.69565,408.324723 C2348.69565,488.811808 2391.73913,532 2466.08696,532 L2560,532 L2560,453.476015 L2516.95652,453.476015 C2464.13043,453.476015 2450.43478,429.918819 2450.43478,372.98893 L2450.43478,333.726937 L2450.43478,215.940959 L2558.04348,215.940959 L2558.04348,162.937269 L2558.04348,143.306273 L2452.3913,143.306273 Z" id="Shape"></path>
                    </g>
                </g>
            </g>
        </g>
    </g>
</svg>