<?xml version="1.0" encoding="utf-8"?>
<!-- Generator: Adobe Illustrator 21.0.0, SVG Export Plug-In . SVG Version: 6.00 Build 0)  -->
<svg version="1.1" id="Layer_1" xmlns="http://www.w3.org/2000/svg" xmlns:xlink="http://www.w3.org/1999/xlink" x="0px" y="0px"
	 viewBox="0 0 383 383" style="enable-background:new 0 0 383 383;" xml:space="preserve">
<style type="text/css">
	.st0{fill:#FF6666;}
</style>
<g>
	<path class="st0" d="M191.5,0C85.9,0,0,85.9,0,191.5S85.9,383,191.5,383C297.1,383,383,297.1,383,191.5S297.1,0,191.5,0z
		 M191.5,382C86.5,382,1,296.5,1,191.5C1,86.5,86.5,1,191.5,1S382,86.5,382,191.5C382,296.5,296.5,382,191.5,382z"/>
	<path class="st0" d="M192,50c-78.3,0-142,63.7-142,142c0,78.3,63.7,142,142,142s142-63.7,142-142C334,113.7,270.3,50,192,50z
		 M192,333c-77.7,0-141-63.3-141-141S114.3,51,192,51c77.7,0,141,63.3,141,141S269.7,333,192,333z"/>
	<path class="st0" d="M191.5,101c-49.9,0-90.5,40.6-90.5,90.5c0,49.9,40.6,90.5,90.5,90.5c24.6,0,46.9-9.9,63.2-25.8l0.2-0.1l0,0
		c16.7-16.4,27.1-39.3,27.1-64.5C282,141.6,241.4,101,191.5,101z M129.6,256.1l17.2-25.4c10.9,12.4,26.9,20.3,44.7,20.3
		c18.1,0,34.4-8.2,45.3-21l16.8,25.9c-16.1,15.5-38,25.1-62.1,25.1C167.5,281,145.7,271.5,129.6,256.1z M227.6,214l-34-52.3
		l17.2-25.4c22.8,8,39.2,29.7,39.2,55.2c0,8-1.6,15.6-4.5,22.5H227.6z M245.1,215c-2.1,4.8-4.9,9.3-8.2,13.3l-8.7-13.3H245.1z
		 M226.4,214h-68.3l34.9-51.4L226.4,214z M193,160.7L176.3,135c4.9-1.3,10-2,15.2-2c6.4,0,12.5,1,18.3,3L193,160.7z M192.4,161.6
		L156.9,214h-19.4c-2.9-6.9-4.5-14.5-4.5-22.5c0-26.6,17.9-49.1,42.3-56.2L192.4,161.6z M156.2,215l-9.5,14c-3.5-4.2-6.5-8.9-8.7-14
		H156.2z M157.4,215h69.6l9.2,14.1c-10.7,12.7-26.8,20.9-44.7,20.9c-17.6,0-33.4-7.8-44.1-20.2L157.4,215z M254.3,255.2l-16.9-25.9
		c3.5-4.3,6.4-9.1,8.7-14.2h31.3v-1h-30.9c2.8-6.9,4.4-14.5,4.4-22.5c0-25.8-16.6-47.9-39.6-56.1l16.6-24.5l-0.8-0.6l-16.8,24.7
		c-5.9-2-12.3-3.1-18.9-3.1c-5.5,0-10.8,0.8-15.8,2.1l-15.4-23.7l-0.8,0.5l15.3,23.5c-24.7,7.3-42.7,30.1-42.7,57.1
		c0,8,1.6,15.6,4.4,22.5h-30.9v1h31.3c2.3,5.4,5.5,10.4,9.3,14.9l-17.3,25.4c-16.6-16.3-26.9-38.9-26.9-63.9
		c0-49.4,40.1-89.5,89.5-89.5s89.5,40.1,89.5,89.5C281,216.4,270.8,238.9,254.3,255.2z"/>
</g>
</svg>
