<?xml version="1.0" encoding="utf-8"?>
<!-- Generator: Adobe Illustrator 21.0.0, SVG Export Plug-In . SVG Version: 6.00 Build 0)  -->
<svg version="1.1" id="Layer_1" xmlns="http://www.w3.org/2000/svg" xmlns:xlink="http://www.w3.org/1999/xlink" x="0px" y="0px"
	 viewBox="0 0 18 276.8" style="enable-background:new 0 0 18 276.8;" xml:space="preserve">
<style type="text/css">
	.st0{fill:#F1737A;}
</style>
<polygon class="st0" points="17,34.5 15.6,33 15.5,33.1 6.9,24.5 17,14.5 15.6,13 15.5,13.1 5.1,2.6 3.6,4.1 14.1,14.5 5.5,23.1 
	5.1,22.6 3.6,24.1 4.1,24.5 4,24.5 5.5,26 5.5,25.9 14.1,34.5 5.5,43.1 5.1,42.6 3.6,44.1 4.1,44.5 4,44.5 5.5,46 5.5,45.9 
	14.1,54.5 5.5,63.1 5.1,62.6 3.6,64.1 4.1,64.5 4,64.5 5.5,66 5.5,65.9 14.1,74.5 5.5,83.1 5.1,82.6 3.6,84.1 4.1,84.5 4,84.5 
	5.5,86 5.5,85.9 14.1,94.5 5.5,103.1 5.1,102.6 3.6,104 4.1,104.5 4,104.5 5.5,106 5.5,105.9 14.1,114.5 5.5,123.1 5.1,122.6 
	3.6,124 4.1,124.5 4,124.5 5.5,126 5.5,125.9 14.1,134.5 5.5,143.1 5.1,142.6 3.6,144 4.1,144.5 4,144.5 5.5,146 5.5,145.9 
	14.1,154.5 5.5,163.1 5.1,162.6 3.6,164 4.1,164.5 4,164.5 5.5,166 5.5,165.9 14.1,174.5 5.5,183.1 5.1,182.6 3.6,184 4.1,184.5 
	4,184.5 5.5,186 5.5,185.9 14.1,194.5 5.5,203.1 5.1,202.6 3.6,204 4.1,204.5 4,204.5 5.5,206 5.5,205.9 14.1,214.5 5.5,223.1 
	5.1,222.6 3.6,224 4.1,224.5 4,224.5 5.5,226 5.5,225.9 14.1,234.5 5.5,243.1 5.1,242.6 3.6,244 4.1,244.5 4,244.5 5.5,246 
	5.5,245.9 14.1,254.5 5.5,263.1 5.1,262.6 3.6,264 4.1,264.5 4,264.5 5.5,266 5.5,265.9 15,275.4 16.4,273.9 6.9,264.5 17,254.5 
	15.6,253 15.5,253.1 6.9,244.5 17,234.5 15.6,233 15.5,233.1 6.9,224.5 17,214.5 15.6,213 15.5,213.1 6.9,204.5 17,194.5 15.6,193 
	15.5,193.1 6.9,184.5 17,174.5 15.6,173 15.5,173.1 6.9,164.5 17,154.5 15.6,153 15.5,153.1 6.9,144.5 17,134.5 15.6,133 
	15.5,133.1 6.9,124.5 17,114.5 15.6,113 15.5,113.1 6.9,104.5 17,94.5 15.6,93 15.5,93.1 6.9,84.5 17,74.5 15.6,73 15.5,73.1 
	6.9,64.5 17,54.5 15.6,53 15.5,53.1 6.9,44.5 "/>
</svg>
