<?xml version="1.0" encoding="utf-8"?>
<!-- Generator: Adobe Illustrator 21.0.0, SVG Export Plug-In . SVG Version: 6.00 Build 0)  -->
<svg version="1.1" id="Layer_1" xmlns="http://www.w3.org/2000/svg" xmlns:xlink="http://www.w3.org/1999/xlink" x="0px" y="0px"
	 viewBox="0 0 18 336" style="enable-background:new 0 0 18 336;" xml:space="preserve">
<style type="text/css">
	.st0{fill:#F1737A;}
</style>
<polygon class="st0" points="17,39.8 15.6,38.3 15.5,38.4 6.9,29.8 17,19.8 15.6,18.3 15.5,18.4 5.1,8 3.6,9.4 14.1,19.8 5.5,28.4 
	5.1,28 3.6,29.4 4.1,29.8 4,29.9 5.5,31.3 5.5,31.3 14.1,39.8 5.5,48.4 5.1,48 3.6,49.4 4.1,49.8 4,49.9 5.5,51.3 5.5,51.3 
	14.1,59.8 5.5,68.4 5.1,68 3.6,69.4 4.1,69.8 4,69.9 5.5,71.3 5.5,71.3 14.1,79.8 5.5,88.4 5.1,88 3.6,89.4 4.1,89.8 4,89.9 
	5.5,91.3 5.5,91.3 14.1,99.8 5.5,108.4 5.1,108 3.6,109.4 4.1,109.8 4,109.9 5.5,111.3 5.5,111.3 14.1,119.8 5.5,128.4 5.1,128 
	3.6,129.4 4.1,129.8 4,129.9 5.5,131.3 5.5,131.3 14.1,139.8 5.5,148.4 5.1,148 3.6,149.4 4.1,149.8 4,149.9 5.5,151.3 5.5,151.3 
	14.1,159.8 5.5,168.4 5.1,168 3.6,169.4 4.1,169.8 4,169.9 5.5,171.3 5.5,171.3 14.1,179.8 5.5,188.4 5.1,188 3.6,189.4 4.1,189.8 
	4,189.9 5.5,191.3 5.5,191.3 14.1,199.8 5.5,208.4 5.1,208 3.6,209.4 4.1,209.8 4,209.9 5.5,211.3 5.5,211.3 14.1,219.8 5.5,228.4 
	5.1,228 3.6,229.4 4.1,229.8 4,229.9 5.5,231.3 5.5,231.3 14.1,239.8 5.5,248.4 5.1,248 3.6,249.4 4.1,249.8 4,249.9 5.5,251.3 
	5.5,251.3 14.1,259.8 5.5,268.4 5.1,268 3.6,269.4 4.1,269.8 4,269.9 5.5,271.3 5.5,271.3 14.1,279.8 5.5,288.4 5.1,288 3.6,289.4 
	4.1,289.8 4,289.9 5.5,291.3 5.5,291.3 14.1,299.8 5.5,308.4 5.1,308 3.6,309.4 4.1,309.8 4,309.9 5.5,311.3 5.5,311.3 14.1,319.8 
	4,329.9 5.5,331.3 17,319.8 15.6,318.3 15.5,318.4 6.9,309.8 17,299.8 15.6,298.3 15.5,298.4 6.9,289.8 17,279.8 15.6,278.3 
	15.5,278.4 6.9,269.8 17,259.8 15.6,258.3 15.5,258.4 6.9,249.8 17,239.8 15.6,238.3 15.5,238.4 6.9,229.8 17,219.8 15.6,218.3 
	15.5,218.4 6.9,209.8 17,199.8 15.6,198.3 15.5,198.4 6.9,189.8 17,179.8 15.6,178.3 15.5,178.4 6.9,169.8 17,159.8 15.6,158.3 
	15.5,158.4 6.9,149.8 17,139.8 15.6,138.3 15.5,138.4 6.9,129.8 17,119.8 15.6,118.3 15.5,118.4 6.9,109.8 17,99.8 15.6,98.3 
	15.5,98.4 6.9,89.8 17,79.8 15.6,78.3 15.5,78.4 6.9,69.8 17,59.8 15.6,58.3 15.5,58.4 6.9,49.8 "/>
</svg>
