<?xml version="1.0" encoding="UTF-8"?>
<svg width="373px" height="336px" viewBox="0 0 373 336" version="1.1" xmlns="http://www.w3.org/2000/svg" xmlns:xlink="http://www.w3.org/1999/xlink">
    <!-- Generator: Sketch 47.1 (45422) - http://www.bohemiancoding.com/sketch -->
    <title>android</title>
    <desc>Created with Sketch.</desc>
    <defs>
        <polygon id="path-1" points="0 335.871 372.451 335.871 372.451 0 0 0"></polygon>
    </defs>
    <g id="Symbols" stroke="none" stroke-width="1" fill="none" fill-rule="evenodd">
        <g id="android">
            <g>
                <path d="M118.7051,77.6517 L252.3471,77.6517 L252.3471,187.6247 C252.3471,187.6247 250.3091,197.4137 242.5561,197.4137 L227.6631,197.4137 L227.6631,232.7127 C227.6631,232.7127 227.0461,247.6027 212.7651,247.6027 C198.4861,247.6027 197.8701,232.7127 197.8701,232.7127 L197.8701,198.4317 L173.3921,198.4317 L173.3921,233.7317 C173.3921,233.7317 173.5931,247.1937 158.0831,246.9907 C158.0831,246.9907 143.8051,246.7927 143.8051,232.7127 L143.8051,197.8207 L129.3201,197.8207 C129.3201,197.8207 118.7051,198.4317 118.7051,187.2057 L118.7051,77.6517 Z" id="Fill-1" fill="#77B733"></path>
                <path d="M261.2212,92.1337 C261.2212,92.1337 261.2272,77.6487 275.7092,77.6487 C290.1942,77.6487 290.2962,90.0927 290.2962,92.2357 L290.2962,155.3827 C290.2962,155.3827 291.7252,168.9987 276.6782,168.9987 C261.6352,168.9987 261.2212,159.0567 261.2212,154.7707 L261.2212,92.1337 Z" id="Fill-3" fill="#77B733"></path>
                <path d="M79.94,92.1337 C79.94,92.1337 79.94,77.6487 94.428,77.6487 C108.913,77.6487 109.015,90.0927 109.015,92.2357 L109.015,155.3827 C109.015,155.3827 110.445,168.9987 95.394,168.9987 C80.348,168.9987 79.94,159.0567 79.94,154.7707 L79.94,92.1337 Z" id="Fill-5" fill="#77B733"></path>
                <path d="M217.8658,20.9882 L229.4238,3.8802 C231.3778,1.1162 228.9308,0.4602 228.9308,0.4602 C227.3038,-0.8398 226.0008,1.4392 226.0008,1.4392 L214.0128,19.2702 C205.6168,15.8372 196.2618,13.8942 186.3478,13.7982 C176.1098,13.6962 166.3808,15.5992 157.6298,19.1092 C154.0298,13.9142 144.7138,0.5282 144.0528,0.1372 C143.2448,-0.3528 142.0978,0.6302 142.0978,0.6302 C139.9868,2.2572 140.9608,3.0702 140.9608,3.0702 L153.1548,21.0732 C134.4808,30.1202 121.1368,46.9062 118.5548,67.4522 L252.3038,67.4522 C249.8048,46.8442 236.5968,30.0122 217.8658,20.9882" id="Fill-7" fill="#77B733"></path>
                <path d="M221.7554,42.0497 C221.7554,46.1617 218.4234,49.4997 214.3104,49.4997 C210.1964,49.4997 206.8624,46.1617 206.8624,42.0497 C206.8624,37.9387 210.1964,34.6047 214.3104,34.6047 C218.4234,34.6047 221.7554,37.9387 221.7554,42.0497" id="Fill-9" fill="#FEFEFE"></path>
                <path d="M164.5093,42.0497 C164.5093,46.1617 161.1743,49.4997 157.0643,49.4997 C152.9503,49.4997 149.6133,46.1617 149.6133,42.0497 C149.6133,37.9387 152.9503,34.6047 157.0643,34.6047 C161.1743,34.6047 164.5093,37.9387 164.5093,42.0497" id="Fill-11" fill="#FEFEFE"></path>
                <path d="M34.9683,335.871 L34.9683,324.916 L20.7183,324.916 C20.7183,324.916 9.2373,320.562 9.8993,310.399 C9.8993,310.399 10.4283,299.45 19.5353,296.948 L43.5453,296.948 L43.5453,335.475 L54.3623,335.475 L54.3623,285.863 L21.5103,285.863 C21.5103,285.863 0.7953,287.052 0.0003,310.802 C0.0003,310.802 0.3993,332.309 23.0963,335.735 L34.9683,335.871 Z" id="Fill-13" fill="#656264"></path>
                <path d="M323.5347,325.4198 L323.5347,335.4458 L352.0087,335.0558 C352.0087,335.0558 372.6877,333.6068 372.4377,310.3778 C372.4377,310.3778 373.6787,287.6858 352.1367,285.7038 L323.7807,285.7038 L323.7807,296.3928 L349.1677,296.3928 C349.1677,296.3928 362.5367,297.5768 361.1757,311.2998 C361.1757,311.2998 362.6587,325.0238 348.5477,325.2898 L323.5347,325.4198 Z" id="Fill-15" fill="#656264"></path>
                <path d="M126.4722,324.8368 L126.4722,334.8628 L154.9442,334.4668 C154.9442,334.4668 175.6222,333.0178 175.3732,309.7938 C175.3732,309.7938 176.6142,287.0968 155.0682,285.1218 L126.7182,285.1218 L126.7182,295.8048 L152.0992,295.8048 C152.0992,295.8048 165.4712,296.9988 164.1062,310.7168 C164.1062,310.7168 165.5932,324.4408 151.4782,324.7008 L126.4722,324.8368 Z" id="Fill-17" fill="#656264"></path>
                <path d="M76,335.4745 L65.974,335.4745 L66.367,305.1225 C66.367,305.1225 67.819,283.0945 91.04,283.3545 C91.04,283.3545 113.733,282.0365 115.713,304.9935 L115.713,335.2075 L105.03,335.2075 L105.03,308.1635 C105.03,308.1635 103.84,293.9075 90.12,295.3635 C90.12,295.3635 76.399,293.7775 76.133,308.8205 L76,335.4745 Z" id="Fill-19" fill="#656264"></path>
                <path d="M186.6763,296.3368 L186.6763,285.6878 L214.6533,285.6878 C214.6533,285.6878 230.0383,285.9028 230.0383,303.3338 C230.0383,303.3338 230.4703,312.4778 222.2903,318.1848 C222.2903,318.1848 221.4233,318.6138 222.0273,319.3338 C222.0983,319.4068 222.1823,319.4928 222.2903,319.5768 C223.3683,320.4378 228.5323,323.9928 228.5323,335.6098 L217.7723,335.6098 C217.7723,335.6098 217.1263,321.9488 206.2573,321.9488 L186.3533,321.9488 L186.3533,310.1108 L213.0393,310.1108 C213.0393,310.1108 219.2813,309.7878 219.0633,302.7898 C219.0633,302.7898 219.8163,296.2288 211.7483,296.2288 L186.6763,296.3368 Z" id="Fill-21" fill="#656264"></path>
                <path d="M265.5493,324.8534 C257.3013,324.8534 250.6113,318.1844 250.6113,309.9474 C250.6113,301.7204 257.3013,295.0454 265.5493,295.0454 C273.7963,295.0454 280.4793,301.7204 280.4793,309.9474 C280.4793,318.1844 273.7963,324.8534 265.5493,324.8534 M265.5493,284.0794 C251.2263,284.0794 239.6173,295.6634 239.6173,309.9474 C239.6173,324.2474 251.2263,335.8264 265.5493,335.8264 C279.8703,335.8264 291.4793,324.2474 291.4793,309.9474 C291.4793,295.6634 279.8703,284.0794 265.5493,284.0794" id="Fill-23" fill="#656264"></path>
                <mask id="mask-2" fill="white">
                    <use xlink:href="#path-1"></use>
                </mask>
                <g id="Clip-26"></g>
                <polygon id="Fill-25" fill="#656264" mask="url(#mask-2)" points="301.916 335.719 313.214 335.719 313.214 285.801 301.916 285.801"></polygon>
            </g>
        </g>
    </g>
</svg>