<?xml version="1.0" encoding="UTF-8"?>
<svg width="130px" height="159px" viewBox="0 0 130 159" version="1.1" xmlns="http://www.w3.org/2000/svg" xmlns:xlink="http://www.w3.org/1999/xlink">
    <!-- Generator: Sketch 47.1 (45422) - http://www.bohemiancoding.com/sketch -->
    <title>apple logo</title>
    <desc>Created with Sketch.</desc>
    <defs>
        <polygon id="path-1" points="0 120.999895 0 0.169765875 129.804529 0.169765875 129.804529 120.999895"></polygon>
    </defs>
    <g id="Symbols" stroke="none" stroke-width="1" fill="none" fill-rule="evenodd">
        <g id="apple-logo">
            <g id="Page-1">
                <path d="M71.1159064,13.9550349 C81.4493059,0.067966681 95.8154595,0 95.8154595,0 C95.8154595,0 97.9518451,13.0564521 87.6866529,25.6339762 C76.7254366,39.0639816 64.2662442,36.8663923 64.2662442,36.8663923 C64.2662442,36.8663923 61.9270453,26.3041593 71.1159064,13.9550349" id="Fill-1" fill="#FFFFFF"></path>
                <g id="Group-5" transform="translate(0.000000, 38.000000)">
                    <mask id="mask-2" fill="white">
                        <use xlink:href="#path-1"></use>
                    </mask>
                    <g id="Clip-4"></g>
                    <path d="M66.0161187,7.56148078 C71.3984326,7.56148078 81.3869839,0.169765875 94.3888149,0.169765875 C116.769217,0.169765875 125.573382,16.0808739 125.573382,16.0808739 C125.573382,16.0808739 108.353483,24.8770251 108.353483,46.2211114 C108.353483,70.2993274 129.804529,78.5968436 129.804529,78.5968436 C129.804529,78.5968436 114.809278,120.766258 94.555173,120.766258 C85.2521952,120.766258 78.0203239,114.502483 68.2182716,114.502483 C58.2297203,114.502483 48.3170241,120.999895 41.8612294,120.999895 C23.3659175,120.999895 -7.8470825e-05,80.9985499 -7.8470825e-05,48.8444333 C-7.8470825e-05,17.2085521 19.7779698,0.612996976 38.3284728,0.612996976 C50.3881308,0.612996976 59.7465614,7.56148078 66.0161187,7.56148078" id="Fill-3" fill="#FFFFFF" mask="url(#mask-2)"></path>
                </g>
            </g>
        </g>
    </g>
</svg>