<?xml version="1.0" encoding="utf-8"?>
<!-- Generator: Adobe Illustrator 21.0.0, SVG Export Plug-In . SVG Version: 6.00 Build 0)  -->
<svg version="1.1" id="Слой_1" xmlns="http://www.w3.org/2000/svg" xmlns:xlink="http://www.w3.org/1999/xlink" x="0px" y="0px"
	 viewBox="0 0 1062 958" style="enable-background:new 0 0 1062 958;" xml:space="preserve">
<style type="text/css">
	.st0{fill:#FF6666;}
</style>
<g>
	
		<rect x="245.1" y="32.5" transform="matrix(0.8261 -0.5635 0.5635 0.8261 13.4234 148.0045)" class="st0" width="3" height="39.6"/>
	<rect x="208.9" y="59" transform="matrix(0.7678 -0.6407 0.6407 0.7678 -1.5672 153.0755)" class="st0" width="3" height="39.3"/>
	<rect x="176" y="89" transform="matrix(0.7008 -0.7134 0.7134 0.7008 -24.4664 159.172)" class="st0" width="3" height="39.5"/>
	<rect x="144.8" y="122" transform="matrix(0.6422 -0.7666 0.7666 0.6422 -56.2332 162.832)" class="st0" width="3" height="39.4"/>
	
		<rect x="116.9" y="157.6" transform="matrix(0.5796 -0.8149 0.8149 0.5796 -94.7476 171.0533)" class="st0" width="3" height="39.5"/>
	
		<rect x="92" y="194.5" transform="matrix(0.5002 -0.8659 0.8659 0.5002 -138.6771 188.0279)" class="st0" width="3" height="39.4"/>
</g>
</svg>
