<?xml version="1.0" encoding="utf-8"?>
<!-- Generator: Adobe Illustrator 16.0.2, SVG Export Plug-In . SVG Version: 6.00 Build 0)  -->
<!DOCTYPE svg PUBLIC "-//W3C//DTD SVG 1.1//EN" "http://www.w3.org/Graphics/SVG/1.1/DTD/svg11.dtd">
<svg version="1.1" id="Слой_1" xmlns="http://www.w3.org/2000/svg" xmlns:xlink="http://www.w3.org/1999/xlink" x="0px" y="0px"
	 width="595.279px" height="841.89px" viewBox="0 0 595.279 841.89" enable-background="new 0 0 595.279 841.89"
	 xml:space="preserve">
<title>Artboard 12_2</title>
<path fill="#FF6666" d="M595.28,435.644V185.772H396.854L2.204,310.708H0v345.409h293.965v-5.879l2.94,3.676L595.28,435.644z
	 M573.233,413.596H418.901V281.312l154.332-64.672V413.596z M396.854,410.656l-102.889,58.058V333.49l102.889-43.36V410.656z
	 M264.569,485.617L29.397,618.636V340.104h235.172V485.617z M536.487,207.82l-117.586,49.239V207.82H536.487z M396.854,207.82
	v58.793l-105.828,44.095H76.431L396.854,207.82z M60.263,626.72l204.306-115.381V626.72H60.263z M293.965,628.925V494.437
	l103.623-58.793h160.211L293.965,628.925z"/>
</svg>
