<?xml version="1.0" encoding="UTF-8"?>
<svg width="484px" height="440px" viewBox="0 0 484 440" version="1.1" xmlns="http://www.w3.org/2000/svg" xmlns:xlink="http://www.w3.org/1999/xlink">
    <!-- Generator: sketchtool 49.1 (51147) - http://www.bohemiancoding.com/sketch -->
    <title>3F1451E5-CD20-4CB7-82E4-E27AE7F17903</title>
    <desc>Created with sketchtool.</desc>
    <defs></defs>
    <g id="Page-1" stroke="none" stroke-width="1" fill="none" fill-rule="evenodd">
        <g id="Artboard-2" transform="translate(-394.000000, 0.000000)">
            <g id="Group" transform="translate(394.000000, -1.000000)">
                <g>
                    <path d="M191.5,0 C85.9,0 0,85.9 0,191.5 C0,297.1 85.9,383 191.5,383 C297.1,383 383,297.1 383,191.5 C383,85.9 297.1,0 191.5,0 Z M191.5,382 C86.5,382 1,296.5 1,191.5 C1,86.5 86.5,1 191.5,1 C296.5,1 382,86.5 382,191.5 C382,296.5 296.5,382 191.5,382 Z" id="Shape" fill="#FF6666" fill-rule="nonzero" opacity="0.400000006"></path>
                    <path d="M192,50 C113.7,50 50,113.7 50,192 C50,270.3 113.7,334 192,334 C270.3,334 334,270.3 334,192 C334,113.7 270.3,50 192,50 Z M192,333 C114.3,333 51,269.7 51,192 C51,114.3 114.3,51 192,51 C269.7,51 333,114.3 333,192 C333,269.7 269.7,333 192,333 Z" id="Shape" fill="#FF6666" fill-rule="nonzero" opacity="0.400000006"></path>
                    <path d="M191.5,101 C141.6,101 101,141.6 101,191.5 C101,241.4 141.6,282 191.5,282 C216.1,282 238.5,272.1 254.8,256.1 L254.9,256 C271.6,239.6 282,216.7 282,191.5 C282,141.6 241.4,101 191.5,101 Z M191.5,281 C167.5,281 145.7,271.5 129.6,256.1 L146.8,230.7 C157.7,243.1 173.7,251 191.5,251 C209.6,251 225.9,242.8 236.8,230 L253.6,255.9 C237.5,271.4 215.6,281 191.5,281 Z M193.6,161.7 L210.8,136.3 C233.6,144.3 250,166 250,191.5 C250,205.4 245.1,218.3 236.9,228.3 L193.6,161.7 Z M236.2,229.1 C225.5,241.9 209.4,250 191.5,250 C173.9,250 158.1,242.2 147.4,229.9 L193,162.6 L236.2,229.1 Z M193,160.8 L176.3,135 C181.2,133.7 186.2,133 191.5,133 C197.9,133 204.1,134.1 209.9,136 L193,160.8 Z M192.4,161.7 L146.7,229.1 C138.1,218.9 133,205.8 133,191.5 C133,164.9 150.9,142.4 175.3,135.3 L192.4,161.7 Z M254.4,255.2 L237.5,229.3 C245.9,219 251,205.9 251,191.6 C251,165.8 234.5,143.8 211.4,135.5 L228,111 L227.2,110.4 L210.5,135.1 C204.5,133.1 198.2,132 191.6,132 C186.1,132 180.9,132.8 175.8,134.1 L160.4,110.4 L159.6,110.9 L174.8,134.4 C150.1,141.7 132.1,164.5 132.1,191.5 C132.1,206.1 137.4,219.6 146.2,229.9 L128.9,255.3 C112.3,239 102,216.4 102,191.4 C102,142 142.1,101.9 191.5,101.9 C240.9,101.9 281,142 281,191.4 C281,216.4 270.8,238.9 254.4,255.2 Z" id="Shape" fill="#FF6666" fill-rule="nonzero" opacity="0.400000006"></path>
                    <rect id="Rectangle" fill="#025C55" x="105" y="273" width="92" height="5"></rect>
                    <rect id="Rectangle-Copy" fill="#7FD1CC" x="82" y="284" width="92" height="5"></rect>
                    <g id="img_8_2-copy" transform="translate(462.000000, 419.000000)" fill="#5FC6BF" fill-rule="nonzero">
                        <circle id="Ellipse_5_copy" cx="11" cy="11" r="11"></circle>
                    </g>
                </g>
            </g>
        </g>
    </g>
</svg>