<?xml version="1.0" encoding="UTF-8"?>
<svg width="1505px" height="884px" viewBox="0 0 1505 884" version="1.1" xmlns="http://www.w3.org/2000/svg" xmlns:xlink="http://www.w3.org/1999/xlink">
    <!-- Generator: Sketch 47.1 (45422) - http://www.bohemiancoding.com/sketch -->
    <title>blockchain</title>
    <desc>Created with Sketch.</desc>
    <defs>
        <polygon id="path-1" points="147.034 0.735072773 147.034 156.29503 0.917156514 156.29503 0.917156514 0.735072773 147.034 0.735072773"></polygon>
        <polygon id="path-3" points="0.224772924 0.027 22.7531498 0.027 22.7531498 24.9966676 0.224772924 24.9966676 0.224772924 0.027"></polygon>
    </defs>
    <g id="Symbols" stroke="none" stroke-width="1" fill="none" fill-rule="evenodd">
        <g id="blockchain">
            <g id="Page-1">
                <path d="M681.2158,174.1881 C674.0448,172.6311 667.5468,170.4831 660.8458,174.8941 L660.8458,188.4791 C667.9918,190.9551 674.2508,191.1951 681.2158,188.2411 L681.2158,174.1881 Z M666.7408,349.0271 C674.1208,352.3001 680.4088,352.0051 686.8008,349.4351 C688.6698,344.4301 688.7578,339.7261 686.4028,334.7921 C679.7968,333.3291 673.4688,332.1871 666.7408,335.8901 L666.7408,349.0271 Z M702.8788,448.5721 C699.5218,456.1481 699.5218,456.1481 702.3468,464.3481 C708.5218,466.1051 714.8208,466.8951 721.0838,463.7281 C722.6958,458.5761 723.1198,453.8311 720.0288,448.5721 L702.8788,448.5721 Z M667.5688,357.5421 C665.7738,366.2131 665.7738,366.2131 668.4618,372.8891 C674.5238,374.3711 680.6388,374.8581 686.5138,372.3741 C688.4788,364.5781 688.4788,364.5781 686.1278,357.2451 C680.2098,355.4281 674.1388,355.2661 667.5688,357.5421 L667.5688,357.5421 Z M693.2828,126.7651 C685.9938,125.4591 679.9408,124.9621 673.7178,127.3461 C671.6118,132.6921 671.0418,137.6571 674.3238,142.7091 C680.6078,144.0771 686.7158,144.6911 693.2828,141.3091 L693.2828,126.7651 Z M693.0828,197.1691 C691.5878,202.8831 690.8528,207.6671 693.9158,212.3521 C700.2628,213.8821 706.3478,214.7071 712.4358,211.8581 C714.3458,206.7781 714.4298,202.0481 712.1998,197.0971 C705.8748,195.0221 699.8058,195.0831 693.0828,197.1691 L693.0828,197.1691 Z M816.3158,424.4361 C822.9328,425.9351 828.9688,427.3171 834.8068,424.2841 C836.6328,416.5361 836.6328,416.5361 834.3548,409.2781 C828.5778,407.0441 822.5428,406.7151 815.7468,408.7531 C814.0028,413.6961 813.2618,418.6361 816.3158,424.4361 L816.3158,424.4361 Z M760.1198,404.8171 C756.8478,410.1341 757.1118,415.3221 760.0758,421.1891 C766.2288,421.7741 772.3278,423.4511 779.0538,420.2091 L779.0538,406.8031 C772.7578,402.7541 766.5608,403.8561 760.1198,404.8171 L760.1198,404.8171 Z M663.7488,403.1301 C657.0618,401.9191 650.8878,400.9541 645.0968,404.3011 C643.3128,412.1691 643.3128,412.1691 645.9538,418.9871 C652.0068,420.6651 658.1018,420.6381 663.9478,418.6451 C666.2018,410.8761 666.2018,410.8761 663.7488,403.1301 L663.7488,403.1301 Z M721.5588,126.1001 C714.1948,123.0871 707.6618,123.3271 700.6818,127.0881 L700.6818,140.9061 C707.9448,143.8701 714.4938,142.8351 721.5588,139.9881 L721.5588,126.1001 Z M709.1408,281.3901 C712.0628,275.5371 712.5078,270.3101 708.9258,264.9331 C702.6648,263.4651 696.5728,263.2401 690.3928,265.5931 C688.0818,270.9291 687.7908,275.9211 690.8028,281.0511 C696.6398,283.0581 702.4758,282.6961 709.1408,281.3901 L709.1408,281.3901 Z M926.0138,372.3531 C926.0038,378.8881 924.2958,384.7241 927.7518,390.9391 C933.3018,391.7741 938.8478,393.8391 944.9928,392.6601 C948.7168,386.1911 947.8048,379.9901 945.6058,373.5491 C939.4468,371.2051 933.4588,370.5881 926.0138,372.3531 L926.0138,372.3531 Z M927.0178,183.4581 C925.1658,189.6921 924.5738,195.6661 927.3758,201.6961 C933.7758,202.9911 939.5858,202.5471 945.9278,200.3571 C947.5408,194.0221 948.8778,187.7561 944.7968,180.9691 C938.8308,181.2361 932.9208,180.8351 927.0178,183.4581 L927.0178,183.4581 Z M926.2238,147.6211 C933.9958,148.7121 940.3358,148.7911 946.6578,144.6751 C947.0208,138.6801 948.9768,132.5801 944.8528,126.6361 C938.3428,126.2651 932.3048,126.7731 926.2238,130.3891 L926.2238,147.6211 Z M743.7008,242.9841 C746.6618,243.2701 749.2808,243.8431 751.8658,243.7201 C767.8038,242.9611 783.7568,242.3191 799.6608,241.0821 C809.9578,240.2811 820.0698,238.1101 829.4488,233.4171 C840.2788,227.9991 848.5378,220.1181 852.6118,208.4991 C856.3288,197.9001 856.6878,187.0451 854.5148,176.0341 C852.5068,165.8541 846.4548,159.2461 836.6358,156.6531 C830.5908,155.0571 824.1858,153.9061 817.9728,154.0331 C796.0398,154.4841 774.1168,155.5031 752.1988,156.5001 C749.0578,156.6431 745.9658,157.8511 743.3108,158.4601 C741.0358,169.6081 741.2778,233.7391 743.7008,242.9841 L743.7008,242.9841 Z M742.8968,304.5331 C742.4098,308.2971 741.8618,310.5841 741.8558,312.8731 C741.7928,335.5311 741.7778,358.1891 741.8798,380.8461 C741.8908,383.3871 742.7058,385.9241 743.1808,388.6501 C745.9778,389.1941 748.2038,389.8921 750.4628,390.0241 C769.7528,391.1531 789.0428,392.8441 808.3438,392.9961 C820.5718,393.0921 832.9508,391.5941 845.0198,389.4501 C857.3408,387.2621 864.9198,378.9211 867.1608,366.5541 C868.1598,361.0401 868.2348,355.2771 868.0598,349.6481 C867.4918,331.3631 858.5118,318.5431 841.3408,312.4911 C832.3188,309.3111 822.7078,306.9051 813.2058,306.1681 C793.2988,304.6271 773.2898,304.3701 753.3178,303.7201 C750.0998,303.6151 746.8608,304.2041 742.8968,304.5331 L742.8968,304.5331 Z M783.1948,450.1981 C772.7888,446.8241 762.9358,447.7991 752.1828,447.3791 C751.4658,456.9281 750.8298,465.3741 750.1428,474.5141 L731.0908,474.5141 C729.8068,480.0921 728.6538,485.1061 727.2778,491.0851 C711.4628,490.5411 695.9118,490.0701 680.3678,489.4051 C677.8398,489.2961 675.3468,488.3321 672.5768,487.7031 C670.0988,473.3501 673.2028,459.2301 670.5238,445.3591 C659.7798,440.7781 648.1458,445.9411 637.6668,440.9161 C636.8048,436.3901 635.9498,431.9001 634.9328,426.5571 C628.6598,425.9031 622.5298,425.2651 615.5758,424.5411 C613.1558,409.6911 614.0848,395.3001 614.8998,381.1571 C623.2768,376.2801 632.2638,380.6191 639.8978,377.0811 C643.1918,373.7521 642.5598,369.5741 642.5858,365.6651 C642.6908,350.0001 642.5648,334.3331 642.7118,318.6691 C642.7478,314.7771 643.4868,310.8911 643.9568,306.4971 C650.5298,305.8241 656.3818,305.2251 661.8708,304.6631 C664.8618,297.5331 664.8618,297.5331 662.8348,288.7831 C657.1278,288.0461 651.0198,287.2581 644.3768,286.4011 C641.6528,277.7131 642.3018,269.3791 644.0118,260.4981 C650.6168,259.8191 656.4718,259.2171 662.2148,258.6261 C665.2958,253.3651 664.9218,248.6291 662.7878,242.7351 C657.0518,242.0091 650.9438,241.2361 643.9918,240.3561 C643.5238,236.1881 642.7528,232.3261 642.7158,228.4561 C642.5658,212.7921 642.7128,197.1251 642.5858,181.4601 C642.5538,177.5641 641.9108,173.6741 641.5668,169.9791 C633.0198,165.8361 624.2118,169.5921 616.2248,166.5111 C612.9928,160.0401 614.0918,153.5461 615.1428,147.1061 C621.3908,141.9411 629.2328,147.3511 635.7768,143.3991 C637.8928,138.7391 637.8558,134.0161 635.2948,128.3961 C629.1408,127.6281 622.6828,126.8241 616.0898,126.0011 C613.4888,118.6051 613.4238,111.9601 616.2638,104.4161 C619.8098,104.1871 623.3818,103.7911 626.9578,103.7551 C637.9548,103.6471 648.9548,103.7441 659.9518,103.6131 C663.1748,103.5741 666.3918,103.0421 670.1118,102.6881 C673.6728,88.0151 669.5678,73.4881 672.9418,59.1961 C674.9998,58.6591 676.8498,57.8481 678.7428,57.7321 C701.3598,56.3431 723.9808,55.0281 746.6058,53.7861 C749.2078,53.6431 751.8398,54.0521 754.7568,54.2241 C758.5858,62.4791 757.3648,70.4601 755.7938,79.0561 C749.4638,80.2041 743.6428,81.2591 737.8318,82.3131 C734.7118,87.5751 735.2668,92.6391 737.2518,98.6671 C752.3848,100.9101 767.3488,98.5841 782.8918,96.9231 C787.0078,81.7451 782.4788,66.5041 786.0008,51.6671 C794.1068,47.7591 802.9198,48.2911 811.3418,46.9631 C819.5698,45.6671 827.8408,44.6421 836.0958,43.5251 C844.5858,42.3771 852.9708,40.0821 861.7848,40.4691 C864.8218,48.1771 864.0018,55.3011 862.5688,63.4381 C856.3558,65.0091 850.0408,66.6061 843.7888,68.1881 C840.9508,73.6021 841.4968,78.7121 842.8628,83.7011 C846.3838,86.6991 850.0968,85.2951 853.6588,85.1691 C856.2968,85.0761 859.6918,83.9431 861.4358,85.1591 C867.6098,89.4621 874.2728,87.9621 880.7868,87.8151 C892.8498,87.5411 904.7258,88.2631 916.4008,91.6841 C938.8368,98.2571 953.0078,112.6301 958.5108,135.4371 C962.7248,152.9031 963.2748,170.5091 959.0708,187.9481 C952.3718,215.7451 935.0258,234.9901 909.4048,246.9791 C903.3828,249.7971 896.9978,251.8361 890.7968,254.2761 C887.7268,255.4841 884.6948,256.7881 881.0178,258.3071 L881.0178,272.6331 C895.3918,277.7751 911.3558,277.8031 924.9528,286.4901 C925.3898,293.8581 925.8198,301.0821 926.2568,308.4251 C936.3408,313.7771 947.1318,310.0531 958.3628,313.0741 C960.0938,315.7361 962.7218,319.1301 964.6688,322.8781 C973.2128,339.3371 975.0168,357.2311 974.8338,375.3481 C974.7158,387.0111 973.3198,398.5991 969.7438,409.8481 C963.1378,430.6281 949.7048,444.8681 929.3268,452.4841 C913.1358,458.5351 896.3978,460.5331 879.1858,458.8751 C874.6438,458.4371 869.9648,457.1511 864.8108,459.9791 C862.0468,474.6981 865.3808,490.1001 862.7548,505.4561 C860.7988,505.7901 859.1768,506.4641 857.6728,506.2651 C835.2138,503.2891 812.7658,500.2141 790.3268,497.0891 C789.0778,496.9151 787.9168,496.1041 786.0438,495.3021 C782.4498,480.8781 786.7368,465.6651 783.1948,450.1981 L783.1948,450.1981 Z" id="Fill-1" fill="#FFFFFF"></path>
                <g id="Group-5" transform="translate(1357.000000, 724.973000)">
                    <mask id="mask-2" fill="white">
                        <use xlink:href="#path-1"></use>
                    </mask>
                    <g id="Clip-4"></g>
                    <path d="M1.9418,2.0774 C5.5218,1.5864 8.0948,0.9764 10.6798,0.9274 C18.0068,0.7864 25.3488,1.0994 32.6678,0.8014 C38.5718,0.5604 42.6878,2.8424 46.2328,7.4944 C57.5398,22.3374 69.1158,36.9734 80.5868,51.6924 C86.3218,59.0514 92.0038,66.4524 97.8208,73.7464 C99.1518,75.4144 100.9418,76.7164 103.3628,78.9714 C105.5498,69.6134 104.3308,61.3424 104.5468,53.1784 C104.7678,44.8544 104.5478,36.5184 104.6098,28.1884 C104.6708,19.9094 104.8418,11.6304 104.9588,3.7804 C112.8068,0.2374 133.9208,-0.3006 145.8188,2.6224 C146.1868,5.0884 146.9788,7.9374 146.9838,10.7884 C147.0568,56.1054 147.0438,101.4224 146.9868,146.7394 C146.9838,149.0154 146.4138,151.2904 145.9918,154.4274 C143.0698,154.9664 140.2518,155.8254 137.4028,155.9414 C131.4148,156.1864 125.3968,155.7914 119.4168,156.1204 C112.4618,156.5044 107.5868,153.8974 103.3288,148.2794 C88.6378,128.8944 73.5488,109.8114 58.5768,90.6414 C54.5208,85.4504 50.3388,80.3564 46.0878,75.0594 C42.2428,77.6464 43.2918,80.9074 43.2758,83.6214 C43.1628,102.9474 43.2408,122.2744 43.1808,141.6004 C43.1698,145.5454 42.8338,149.4894 42.6118,154.1964 C29.1018,157.4634 16.0948,156.2464 2.2218,155.0074 C1.7348,151.6064 0.9768,148.7624 0.9708,145.9154 C0.8978,100.9314 0.9048,55.9474 0.9588,10.9634 C0.9618,8.3594 1.5188,5.7554 1.9418,2.0774" id="Fill-3" fill="#FFFFFF" mask="url(#mask-2)"></path>
                </g>
                <path d="M43.9731,785.9473 C52.7831,788.2603 72.2151,788.3153 78.8881,786.1813 C85.7911,783.9733 89.5701,779.2633 89.2161,773.3073 C88.8831,767.7053 85.2001,763.2233 78.4931,761.8473 C67.3831,759.5683 56.1451,759.3963 44.9631,761.6883 C44.4141,761.8003 43.9941,762.5453 43.5181,762.9993 C41.6061,772.0593 41.6781,777.4233 43.9731,785.9473 M44.0281,845.5673 C57.3781,846.0873 69.9471,846.5693 82.5141,845.2553 C84.7461,845.0223 87.0481,844.0313 89.0111,842.8723 C97.8561,837.6493 97.8171,825.8463 88.7721,821.0143 C85.6501,819.3463 81.8551,818.2923 78.3241,818.1603 C68.3641,817.7893 58.3811,817.9813 48.4091,818.1103 C46.8721,818.1303 45.3471,818.9873 43.5881,819.5273 C41.5891,828.0093 41.4431,836.0603 44.0281,845.5673 M1.6381,879.9113 C-0.7719,867.9103 -0.4179,735.7723 2.0151,726.9233 C4.7971,726.5913 7.9851,725.8923 11.1761,725.8823 C35.1701,725.8033 59.1641,725.7993 83.1581,725.9073 C92.2341,725.9483 101.0171,727.6643 109.4251,731.2593 C139.1021,743.9443 137.6101,781.7403 117.1341,794.9203 C115.4861,795.9813 113.9991,797.2923 111.4861,799.2153 C114.0931,801.0053 115.9721,802.6283 118.1201,803.7173 C132.8111,811.1653 139.4581,823.2913 138.8501,839.4863 C138.2411,855.7133 130.2401,867.3833 115.5331,873.8433 C108.9181,876.7493 101.6371,878.4373 94.4871,879.7393 C88.3061,880.8643 81.8841,880.9503 75.5651,880.9933 C54.9051,881.1363 34.2431,881.1063 13.5811,881.0003 C9.6841,880.9803 5.7911,880.3073 1.6381,879.9113" id="Fill-6" fill="#FFFFFF"></path>
                <path d="M402.2602,803.2198 C402.1832,801.9168 402.1612,799.5768 401.8922,797.2648 C399.6302,777.8428 384.5212,763.0818 365.7192,761.8688 C345.9032,760.5908 329.7032,772.9908 325.1222,792.9898 C322.7252,803.4518 323.8492,813.5908 328.7032,823.1288 C334.2942,834.1148 343.0022,841.4578 355.2912,843.9028 C380.8092,848.9778 402.2872,830.7888 402.2602,803.2198 M446.5772,804.4688 C445.8522,846.4988 413.8622,880.2818 371.4882,883.6148 C346.8012,885.5568 324.2442,879.7368 305.8552,862.6888 C281.2672,839.8938 274.0252,811.3888 283.6422,779.7218 C293.3582,747.7308 316.5622,729.8128 349.1392,723.9528 C362.7782,721.4998 376.3712,722.5458 389.6642,726.5398 C424.8362,737.1088 447.2112,767.7858 446.5772,804.4688" id="Fill-8" fill="#FFFFFF"></path>
                <path d="M1081.1976,879.8033 C1067.0196,881.4773 1053.9796,882.0933 1040.2176,879.4503 C1039.9066,875.2813 1039.4436,871.6993 1039.4096,868.1153 C1039.3036,856.7963 1039.4556,845.4753 1039.2966,834.1573 C1039.2466,830.6143 1038.5336,827.0793 1038.0196,822.6433 C1020.4906,821.2253 1003.7086,821.8003 987.9576,822.1753 C983.5836,825.8333 984.2956,829.7073 984.2626,833.2673 C984.1526,844.9183 984.2636,856.5723 984.1706,868.2233 C984.1406,871.8103 983.7236,875.3943 983.4476,879.5363 C969.6156,881.9803 956.5466,881.5603 942.6336,879.8433 C942.1776,876.4943 941.4536,873.6363 941.4486,870.7773 C941.3756,826.1653 941.3786,781.5533 941.4296,736.9423 C941.4336,734.0013 941.9706,731.0613 942.2276,728.4363 C950.1016,725.2133 971.1376,724.7483 983.0246,727.5783 C983.3846,730.6873 984.0886,734.1833 984.1386,737.6903 C984.2966,748.6743 984.1506,759.6623 984.2476,770.6483 C984.2786,774.2253 984.6916,777.7993 984.9416,781.5523 C987.5066,782.3573 989.3056,783.2803 991.1766,783.4533 C1003.4146,784.5853 1030.3306,783.7553 1037.8986,781.9333 C1038.3436,778.8443 1039.2166,775.3593 1039.2816,771.8593 C1039.4786,761.2093 1039.2956,750.5533 1039.4076,739.9003 C1039.4486,735.9633 1039.8976,732.0303 1040.1366,728.4443 C1048.2296,725.1913 1069.7376,724.7953 1080.9516,727.6983 C1081.2876,730.4903 1081.9986,733.6753 1082.0046,736.8623 C1082.0786,781.1403 1082.0696,825.4193 1082.0246,869.6983 C1082.0216,872.6403 1081.5566,875.5823 1081.1976,879.8033" id="Fill-10" fill="#FFFFFF"></path>
                <path d="M1184.3627,778.6861 C1178.1637,787.8881 1169.5307,810.1511 1168.6637,817.8321 C1177.1967,820.6871 1191.3487,820.4151 1199.0417,816.8241 C1195.0417,804.4491 1189.8627,792.4421 1184.3627,778.6861 M1163.6057,725.1921 C1177.2787,723.8661 1190.4467,723.8501 1203.0957,725.0981 C1208.2777,732.2531 1265.9077,867.7801 1268.4847,878.5881 C1261.9737,883.0691 1254.4887,880.6391 1247.4797,880.9541 C1240.2167,881.2801 1232.9137,880.7491 1224.8467,880.5751 C1220.9067,871.8291 1217.1197,863.4251 1213.5157,855.4281 C1204.8567,852.7661 1164.8557,852.4571 1153.4817,855.0161 C1149.9987,862.8491 1146.2487,871.2781 1142.7387,879.1701 C1131.7617,882.0111 1107.1387,881.7181 1099.1267,878.6691 C1099.6157,876.6011 1099.8307,874.3231 1100.6767,872.3111 C1120.3347,825.6411 1140.0517,778.9971 1159.7987,732.3631 C1160.6967,730.2411 1161.9577,728.2721 1163.6057,725.1921" id="Fill-12" fill="#FFFFFF"></path>
                <path d="M773.7729,726.6236 C774.0359,731.4996 770.9209,733.4056 768.7919,735.7626 C753.6079,752.5696 738.3149,769.2776 723.1129,786.0676 C720.0129,789.4916 717.1559,793.1346 713.7389,797.2106 C715.9939,800.8556 717.9089,804.2876 720.1369,807.5006 C734.3749,828.0286 748.6929,848.4996 762.9499,869.0146 C764.9999,871.9636 766.8589,875.0436 769.3679,878.9336 C766.2079,879.8156 764.1309,880.8576 762.0349,880.9006 C753.0449,881.0856 744.0469,880.8596 735.0569,881.0176 C729.8209,881.1096 726.4029,878.7726 723.5729,874.5096 C714.3629,860.6346 704.9469,846.8956 695.5529,833.1436 C693.7209,830.4626 691.6349,827.9556 689.3549,824.9586 C679.8869,832.4336 672.2389,839.4946 673.4409,852.4486 C674.2329,860.9706 673.4029,869.6426 673.3119,877.1436 C669.9759,881.2546 666.4809,881.0466 663.2269,880.9616 C652.7139,880.6886 642.0619,882.2186 632.0359,879.8276 C629.6199,870.3346 628.8279,799.1706 630.2489,737.1756 C630.3229,733.9396 630.8909,730.7146 631.3189,726.6186 C645.1349,725.0006 658.2289,725.5366 672.2319,726.2556 C672.7449,730.5156 673.4889,734.0326 673.5349,737.5606 C673.6929,749.5496 673.5629,761.5426 673.6389,773.5336 C673.6599,776.7256 674.0259,779.9146 674.2639,783.5866 C679.0029,782.8726 680.5869,779.7046 682.6379,777.3076 C694.9799,762.8796 707.4869,748.5816 719.4129,733.8146 C724.2939,727.7706 729.6989,725.1496 737.3959,725.5546 C746.6969,726.0446 756.0439,725.6026 765.3699,725.7216 C768.1969,725.7566 771.0169,726.3126 773.7729,726.6236" id="Fill-14" fill="#FFFFFF"></path>
                <path d="M920.5327,755.818 C910.8187,763.795 900.7477,771.693 890.0587,779.267 C887.3087,776.973 885.2427,775.373 883.3157,773.621 C870.8597,762.298 856.7067,758.247 840.9897,765.394 C824.8327,772.741 819.0687,786.958 818.8127,803.711 C818.7387,808.603 819.7727,813.726 821.3377,818.396 C831.6317,849.123 864.7107,849.665 881.2957,835.101 C884.2667,832.491 887.1767,829.809 889.9117,827.343 C898.1317,830.388 915.0297,842.349 920.9097,849.1 C909.0967,874.78 870.5587,889.575 835.7597,881.79 C799.2817,873.629 774.2837,841.749 774.2067,803.29 C774.1297,764.831 799.5987,732.962 836.8777,724.612 C870.3107,717.124 908.4787,730.319 920.5327,755.818" id="Fill-16" fill="#FFFFFF"></path>
                <path d="M609.2202,754.8531 C603.5942,761.7911 586.4452,774.9861 578.2912,778.4641 C576.0142,776.4581 573.5732,774.2501 571.0722,772.1121 C548.3682,752.6911 517.3242,762.4181 509.8222,791.2371 C507.6672,799.5151 507.7152,807.7181 509.9992,815.9111 C519.2102,848.9421 552.9942,849.6891 569.4452,836.0051 C572.7572,833.2501 575.9072,830.3011 579.0082,827.5511 C586.5192,829.6521 604.7072,842.1721 610.6612,849.2231 C598.1522,875.3001 559.4332,889.8251 524.4022,881.5821 C487.1252,872.8111 463.0542,840.5241 463.9302,800.4721 C464.7562,762.7181 491.2982,731.4411 528.1372,724.1761 C559.5022,717.9911 596.9972,729.3211 609.2202,754.8531" id="Fill-18" fill="#FFFFFF"></path>
                <path d="M201.9882,842.0421 C207.0442,842.5321 210.9392,843.2041 214.8392,843.2361 C230.4952,843.3651 246.1542,843.2461 261.8102,843.3371 C265.7492,843.3601 269.6852,843.8231 273.2792,844.0611 C276.5392,852.1281 276.9012,868.9361 274.0662,879.7981 C270.8692,880.1831 267.3232,880.9711 263.7752,880.9821 C232.4602,881.0791 201.1462,881.0781 169.8312,880.9801 C166.2802,880.9691 162.7322,880.1831 159.5312,879.7991 C157.1362,870.2981 156.3402,798.6541 157.7792,737.2311 C157.8542,734.0091 158.4082,730.7981 158.8042,726.9531 C172.6992,725.0831 185.7982,725.5231 198.3532,726.4971 C201.9562,731.4761 201.1022,736.2871 201.1152,740.8631 C201.1992,769.8461 201.1322,798.8291 201.1972,827.8121 C201.2072,832.0811 201.6582,836.3481 201.9882,842.0421" id="Fill-20" fill="#FFFFFF"></path>
                <path d="M1287.4935,878.9947 C1285.3575,868.9177 1285.5375,736.3177 1287.8585,727.0147 C1300.8625,724.7167 1314.1975,725.8937 1328.3375,726.4077 C1328.8385,730.6757 1329.5385,733.8807 1329.5435,737.0867 C1329.6145,781.3847 1329.6055,825.6817 1329.5555,869.9797 C1329.5515,872.9107 1329.0495,875.8407 1328.8085,878.4407 C1320.2115,881.8087 1297.7725,882.0657 1287.4935,878.9947" id="Fill-22" fill="#FFFFFF"></path>
                <path d="M786.644,522.7916 C783.867,515.3166 784.174,509.2766 786.17,503.1166 C793.373,501.0206 799.639,502.8006 806.058,505.0586 C808.634,511.2656 808.207,517.3336 806.588,523.7256 C799.636,526.3316 793.445,523.3226 786.644,522.7916" id="Fill-24" fill="#FCFCFC"></path>
                <path d="M616.0097,33.4088 C623.1887,31.9598 629.5907,31.4348 636.0787,34.1958 C638.1237,40.1298 638.2977,45.7978 635.9277,51.8418 C629.1347,54.2398 622.5497,54.3128 615.7627,51.5548 C613.6597,45.5878 613.5427,39.9178 616.0097,33.4088" id="Fill-26" fill="#FFFFFF"></path>
                <path d="M664.1352,33.7247 C666.4062,41.6777 666.4062,41.6777 664.8262,50.5127 C658.2502,54.2457 655.5262,54.4837 644.7812,52.1637 C641.4522,46.4377 642.0712,40.4627 644.1962,34.0117 C650.9872,31.5287 657.6072,31.4957 664.1352,33.7247" id="Fill-28" fill="#FAFAFA"></path>
                <g id="Group-32" transform="translate(897.000000, 0.973000)">
                    <mask id="mask-4" fill="white">
                        <use xlink:href="#path-3"></use>
                    </mask>
                    <g id="Clip-31"></g>
                    <path d="M22.018,20.8308 C12.411,24.9538 11.211,25.1888 2.295,24.9198 C-1.27,18.5018 0.777,11.8078 1.119,5.2678 C7.162,1.4578 13.246,0.5628 20.046,0.0268 C24.61,6.6818 22.024,13.7268 22.018,20.8308" id="Fill-30" fill="#FDFDFD" mask="url(#mask-4)"></path>
                </g>
                <path d="M758.8168,47.1017 C755.6648,38.8277 755.6218,36.9767 758.2828,27.9927 C764.5188,25.2077 771.1618,24.9137 778.3728,26.2977 C780.2088,32.3867 780.0318,38.1337 778.4668,44.3377 C772.0908,47.7797 765.4248,47.9077 758.8168,47.1017" id="Fill-33" fill="#FBFBFB"></path>
                <path d="M806.6606,41.4928 C799.5506,44.2108 793.1906,45.0358 786.4246,43.8448 C783.6966,37.5268 784.1116,31.4818 786.1846,25.2118 C792.0216,22.1958 798.1276,21.5968 804.9146,22.2638 C809.6616,28.0638 807.6616,34.4768 806.6606,41.4928" id="Fill-35" fill="#FCFCFC"></path>
                <path d="M729.6616,48.9708 C727.4586,42.4838 727.4686,36.7798 729.4506,30.9238 C735.7656,27.8878 742.1336,27.5068 748.8126,28.7508 C752.3236,34.9088 751.6336,40.8908 749.7206,47.1448 C743.4856,50.7408 737.0306,50.0088 729.6616,48.9708" id="Fill-37" fill="#FCFCFC"></path>
                <path d="M945.7143,23.7472 C947.9803,33.2482 947.9733,34.1222 945.7683,42.5542 C940.4283,46.0952 934.0903,46.2622 927.6663,47.1452 C922.8653,41.0122 924.5083,34.6922 926.0413,28.1572 C932.2403,24.9282 938.5233,23.5512 945.7143,23.7472" id="Fill-39" fill="#FCFCFC"></path>
                <path d="M918.2846,525.0655 C920.2036,534.1305 920.1466,536.5875 917.7286,544.6905 C911.0136,546.4525 905.0556,543.7965 898.9076,541.0965 C896.8736,534.2275 896.3566,527.5615 899.2886,521.0235 C907.9686,520.2945 911.1856,520.9985 918.2846,525.0655" id="Fill-41" fill="#FEFEFE"></path>
                <path d="M890.5375,518.5147 C892.0585,525.6837 892.7185,532.0707 890.0975,538.6407 C883.1545,540.0547 877.0745,538.0117 870.9415,535.2977 C868.6895,528.7727 868.7775,522.4227 870.7905,515.5947 C878.0565,513.7027 884.2695,516.2067 890.5375,518.5147" id="Fill-43" fill="#FEFEFE"></path>
                <path d="M926.3364,492.6686 C924.0214,486.2416 924.0554,480.4806 925.9364,474.3566 C932.9204,472.4866 939.0614,474.7016 945.3094,476.8146 C948.6934,483.3566 947.7064,489.5756 946.0194,496.5626 C938.8224,496.5156 932.8164,495.2706 926.3364,492.6686" id="Fill-45" fill="#FBFBFB"></path>
                <path d="M870.9877,11.5152 C880.2887,7.7472 881.1287,7.5912 890.0287,7.9692 C893.1557,14.0892 891.6277,20.5362 890.9417,27.1902 C884.8507,31.2582 878.2817,32.2262 871.3887,31.4882 C868.7397,23.5202 868.6877,21.0952 870.9877,11.5152" id="Fill-47" fill="#FEFEFE"></path>
                <path d="M926.9682,72.9977 C923.4052,66.8077 924.2872,60.8157 926.0182,54.5777 C931.9802,50.9527 938.3972,50.5357 945.0392,50.1977 C948.5822,56.7207 947.7712,62.7217 946.0922,68.9827 C940.1062,72.3267 933.8172,73.3567 926.9682,72.9977" id="Fill-49" fill="#FCFCFC"></path>
                <path d="M730.1005,516.9855 C727.4595,507.6785 727.4495,506.6595 729.6425,498.0225 C736.0405,494.8865 742.3225,498.1105 748.6255,498.2775 C752.2625,504.8215 751.6045,510.8465 749.9025,517.2625 C743.1105,519.7215 736.7715,517.6215 730.1005,516.9855" id="Fill-51" fill="#FBFBFB"></path>
                <path d="M842.0209,35.9913 L842.0209,17.4453 C848.1839,13.3823 854.6099,13.0943 861.3049,12.8253 C865.4589,19.2643 863.4659,25.6993 862.9749,32.2623 C856.8089,36.5513 850.2029,36.8613 842.0209,35.9913" id="Fill-53" fill="#FDFDFD"></path>
                <path d="M814.893,525.8678 C812.684,519.1328 813.147,513.3548 814.606,507.2038 C821.675,504.5648 827.819,506.7898 834.006,508.5868 C836.559,515.2238 836.171,521.3198 834.631,527.8308 C827.735,530.2538 821.626,527.7958 814.893,525.8678" id="Fill-55" fill="#FDFDFD"></path>
                <path d="M664.3149,494.4986 C666.3129,501.4616 666.5379,506.9126 664.3779,512.6156 C657.6479,514.7126 651.2189,514.5206 644.7839,512.7476 C641.8499,507.1346 642.2509,501.6646 644.0419,495.6006 C650.4699,491.7996 657.1679,493.9526 664.3149,494.4986" id="Fill-57" fill="#FEFEFE"></path>
                <path d="M701.3393,32.7135 C707.4113,29.5175 713.5413,29.9845 719.4723,30.6065 C723.1173,37.8425 723.2323,39.4345 720.9173,49.1965 C715.0313,52.6145 708.6693,52.1275 701.9463,50.6945 C698.7863,44.6875 699.3323,38.7465 701.3393,32.7135" id="Fill-59" fill="#FAFAFA"></path>
                <path d="M635.9399,97.7608 C628.7319,100.2708 622.1529,100.0748 614.9099,97.4688 L614.9099,82.5578 C622.4209,79.3658 629.2799,79.6748 636.0349,82.3258 C637.9699,89.9258 637.9699,89.9258 635.9399,97.7608" id="Fill-61" fill="#F7F7F7"></path>
                <path d="M644.7075,487.941 C642.0685,479.566 642.0685,479.566 644.6905,471.47 C651.2705,469.463 657.9395,469.294 665.1925,472.53 L665.1925,486.888 C658.1445,490.27 651.6735,489.493 644.7075,487.941" id="Fill-63" fill="#F8F8F8"></path>
                <path d="M665.1826,82.023 L665.1826,96.969 C658.0876,100.625 651.4136,99.852 644.8476,98.047 C642.0276,90.227 642.0276,90.227 644.5766,82.09 C651.0816,79.548 657.7476,79.941 665.1826,82.023" id="Fill-65" fill="#F8F8F8"></path>
                <path d="M693.4633,496.3434 L693.4633,512.6284 C685.5753,515.9434 682.2393,515.8574 672.8233,512.2254 C670.8863,506.9534 671.4813,501.4964 672.5143,495.8244 C679.6313,492.9404 686.2023,493.1344 693.4633,496.3434" id="Fill-67" fill="#FDFDFD"></path>
                <path d="M615.0429,189.3736 L615.0429,174.3676 C622.4009,171.0316 629.0179,171.7366 635.7789,173.8736 C638.2859,178.8866 637.7979,183.6606 636.5319,188.7336 C629.4689,192.4176 622.5709,191.2186 615.0429,189.3736" id="Fill-69" fill="#FFFFFF"></path>
                <path d="M700.831,496.8185 C707.498,493.8695 713.861,495.4725 720.499,496.9615 C723.248,502.8605 722.726,508.6485 721.382,514.7875 C714.775,517.4955 708.412,515.7675 702.031,514.9645 C698.981,508.6395 699.684,502.8385 700.831,496.8185" id="Fill-71" fill="#FEFEFE"></path>
                <path d="M758.0717,469.4239 C755.9097,460.1309 755.9097,460.1309 758.6877,452.9979 C765.1257,451.1469 771.4457,452.0489 777.8647,454.5309 C780.3347,459.9949 780.3177,465.2569 777.7437,470.6729 C770.9647,472.6449 764.6677,471.4789 758.0717,469.4239" id="Fill-73" fill="#FBFBFB"></path>
                <path d="M777.8061,494.3307 C770.9881,496.5667 764.7481,494.6267 758.3881,492.9447 C755.6651,487.3817 755.6161,482.1377 758.5131,476.6997 C765.1531,475.0847 771.5091,475.4037 777.9441,478.1177 C780.2521,483.6217 780.3881,488.8867 777.8061,494.3307" id="Fill-75" fill="#FBFBFB"></path>
                <path d="M917.6655,490.5602 C911.1035,491.3662 905.1645,490.0052 899.5515,487.5822 C896.7855,479.7192 896.7555,478.7872 899.0255,469.7052 C905.5355,467.5762 911.5615,470.2062 917.8045,471.7932 C920.2265,478.3752 920.5805,484.2982 917.6655,490.5602" id="Fill-77" fill="#FDFDFD"></path>
                <path d="M918.0668,74.3736 C911.8978,77.1896 905.9248,78.2246 899.5528,77.2326 C896.5828,71.0706 896.8678,65.4296 898.9498,59.3926 C904.8478,56.9026 910.6968,55.1756 916.9318,56.3746 C920.2298,63.5176 920.2828,64.2906 918.0668,74.3736" id="Fill-79" fill="#FDFDFD"></path>
                <path d="M870.562,488.9659 C877.932,490.2329 884.002,491.2769 889.837,492.2789 C892.369,499.0139 892.469,504.7059 890.05,510.6559 C883.069,511.9349 876.856,510.3209 870.852,507.4449 C868.586,501.7319 869.227,496.2899 870.562,488.9659" id="Fill-81" fill="#FDFDFD"></path>
                <path d="M890.5717,52.9859 C884.5387,56.8999 878.0387,56.7139 871.7947,57.0229 C868.8337,48.7819 868.8337,48.7819 870.8477,39.3849 C876.4347,35.9309 882.8497,35.3449 889.7607,35.5109 C892.8567,41.4539 891.9837,47.1649 890.5717,52.9859" id="Fill-83" fill="#FDFDFD"></path>
                <path d="M890.5493,79.652 C884.0863,80.657 877.9993,81.604 871.8803,82.555 C868.2013,76.07 869.1193,70.381 870.7403,64.414 C876.8773,61.397 883.1193,60.039 890.0053,61.235 C892.8113,66.866 891.8283,72.34 890.5493,79.652" id="Fill-85" fill="#FCFCFC"></path>
                <path d="M890.0327,484.7936 C883.3537,486.9236 877.4207,485.0076 871.4177,482.7676 C868.2047,477.3196 869.5117,471.8056 870.1557,466.2406 C877.3017,462.4236 883.3457,466.3556 889.5457,466.7966 C892.5897,473.3096 892.3927,478.9636 890.0327,484.7936" id="Fill-87" fill="#FDFDFD"></path>
                <path d="M587.2661,473.5851 C595.4831,470.6511 598.7421,470.4271 607.2651,472.1721 C610.0031,477.3901 609.8321,482.6571 607.0381,488.0791 C600.7381,490.3381 594.5781,489.7131 588.5231,488.9991 C584.9471,483.5421 585.7901,478.5061 587.2661,473.5851" id="Fill-89" fill="#FDFDFD"></path>
                <path d="M578.81,212.1056 C571.782,214.3416 565.456,214.0196 558.562,211.4386 L558.562,196.6306 C565.883,193.0886 572.447,193.7626 579.122,196.5756 C580.924,201.6806 580.991,206.4786 578.81,212.1056" id="Fill-91" fill="#F8F8F8"></path>
                <path d="M579.5981,327.1236 C572.2701,329.7716 565.8971,330.1566 559.3581,327.5196 C557.2081,322.1836 557.2041,317.1276 559.4631,311.7926 C565.9701,309.2306 572.3121,309.3116 578.6471,311.7126 C581.3551,316.7376 580.4311,321.5656 579.5981,327.1236" id="Fill-93" fill="#F8F8F8"></path>
                <path d="M551.437,311.8326 L551.437,327.1806 C544.455,330.4626 538.088,330.0996 531.416,328.2356 C529.084,322.9096 529.205,317.8496 531.001,312.6476 C537.461,309.3466 543.84,309.9996 551.437,311.8326" id="Fill-95" fill="#FCFCFC"></path>
                <path d="M558.6362,358.422 C566.1732,355.779 572.5132,355.177 579.6522,358.315 L579.6522,372.747 C572.6582,376.382 566.0842,376.226 558.6362,373.547 L558.6362,358.422 Z" id="Fill-97" fill="#F8F8F8"></path>
                <path d="M607.7172,426.2877 C609.6282,431.9547 609.9342,437.0127 607.0862,442.2087 C600.8782,444.1427 594.7242,444.1657 588.6172,442.6927 C585.5052,435.8317 585.5052,435.8317 587.6552,427.5387 C594.9882,424.8197 597.6992,424.6227 607.7172,426.2877" id="Fill-99" fill="#FDFDFD"></path>
                <path d="M635.7328,465.1881 L616.8738,465.1881 C613.6418,457.9451 613.6418,457.9451 615.8248,449.7671 C623.1868,447.0881 625.3528,446.9871 635.3818,448.9311 C638.7008,453.6401 637.9888,458.6631 635.7328,465.1881" id="Fill-101" fill="#FDFDFD"></path>
                <path d="M616.3969,258.6539 C613.6199,250.3349 613.6199,250.3349 616.3779,242.6609 C622.6259,240.5689 629.0079,240.7429 635.4819,242.5879 C638.4819,247.6719 638.1529,252.6359 635.9839,258.0809 C629.6279,260.6959 623.2449,259.9379 616.3969,258.6539" id="Fill-103" fill="#FCFCFC"></path>
                <path d="M616.3705,264.6275 L634.8895,264.6275 C638.7125,270.1895 638.0875,275.3845 635.8005,280.8485 C629.2075,283.1065 622.8255,282.8795 616.5295,281.1345 C613.6285,273.7395 613.6285,273.7395 616.3705,264.6275" id="Fill-105" fill="#FCFCFC"></path>
                <path d="M635.603,305.0172 L616.916,305.0172 C613.093,299.4562 613.718,294.2622 616.007,288.8002 C622.599,286.5442 628.981,286.7682 635.455,288.5642 C638.5,293.6362 638.142,298.5992 635.603,305.0172" id="Fill-107" fill="#FCFCFC"></path>
                <path d="M616.0429,212.3478 C613.8599,204.1778 613.8599,204.1778 616.2439,196.8688 C622.5359,194.5528 628.9959,195.4578 635.3359,196.3128 C638.4679,201.9338 638.1679,206.9498 635.9279,212.3548 C629.3339,214.6818 622.9219,214.2468 616.0429,212.3478" id="Fill-109" fill="#FCFCFC"></path>
                <path d="M635.2626,373.3468 C628.2596,374.2438 622.1296,374.9638 616.2586,372.7788 C613.6566,364.9138 613.6566,364.9138 616.2006,357.5518 C623.9946,355.2528 626.5546,355.2048 635.6126,357.2688 C638.3936,362.3978 638.3456,367.5998 635.2626,373.3468" id="Fill-111" fill="#FDFDFD"></path>
                <path d="M635.8207,334.5694 C637.9947,340.0284 638.2187,344.7184 635.9027,349.7664 C629.5607,352.5694 623.1717,351.7944 616.9027,350.4644 C613.6247,343.5504 613.6247,343.5504 616.1197,334.8774 C622.2437,332.3854 628.6447,333.0094 635.8207,334.5694" id="Fill-113" fill="#FFFFFF"></path>
                <path d="M644.6454,58.4977 L663.3564,58.4977 C666.4694,66.1647 666.4694,66.1647 664.1454,74.0977 C656.2504,76.6197 653.8304,76.7067 644.7074,74.7367 C641.7514,69.8757 642.2494,64.8587 644.6454,58.4977" id="Fill-115" fill="#FCFCFC"></path>
                <path d="M587.6664,219.4435 C594.3674,217.2965 600.4694,217.5905 606.7384,219.0145 C610.0814,224.3865 609.7164,229.5985 607.0354,235.0995 C600.4944,236.8325 594.1314,237.1705 587.6334,234.6755 C585.5834,229.6725 585.5494,224.9595 587.6664,219.4435" id="Fill-117" fill="#FDFDFD"></path>
                <path d="M586.7641,257.8248 L586.7641,243.7928 C593.4771,239.8998 599.9171,241.3738 606.7121,242.1498 C609.9601,247.4678 609.7251,252.6618 607.2541,258.2618 C600.4051,260.4148 593.8261,260.3448 586.7641,257.8248" id="Fill-119" fill="#FDFDFD"></path>
                <path d="M606.9687,120.524 C600.7057,122.404 594.3597,122.353 588.2087,120.249 C585.7437,113.242 585.7437,113.242 587.5557,105.277 C593.5607,101.834 600.0107,103.648 606.2037,104.189 C609.9407,111.774 609.9437,111.854 606.9687,120.524" id="Fill-121" fill="#FCFCFC"></path>
                <path d="M587.7856,166.1993 C585.7696,158.1733 585.7696,158.1733 588.0326,150.8213 C594.2026,148.3803 600.5686,149.1023 606.9576,150.6473 C609.9566,155.8293 609.6036,160.8103 607.4346,166.1873 C600.9536,168.4323 594.6306,168.2553 587.7856,166.1993" id="Fill-123" fill="#FDFDFD"></path>
                <path d="M530.5107,187.4811 L530.5107,172.6291 C537.4197,168.8981 543.9467,170.3611 551.3847,172.9481 C551.6357,177.3731 551.8907,181.8541 552.1567,186.5271 C544.8687,191.3841 538.0907,189.9381 530.5107,187.4811" id="Fill-125" fill="#FCFCFC"></path>
                <path d="M587.6596,173.4518 C594.3586,171.2568 600.4466,171.6488 606.7016,173.1398 C610.0986,178.4618 609.7236,183.6468 607.0306,189.0878 C600.4576,191.0288 594.1206,190.8098 587.7586,188.9438 C585.5786,183.6528 585.5516,178.9498 587.6596,173.4518" id="Fill-127" fill="#FDFDFD"></path>
                <path d="M606.8281,288.1979 C609.9571,294.1499 609.5201,299.1339 607.3621,304.2849 C600.6151,306.2459 594.2651,306.4199 587.8051,304.2109 C585.3981,299.2039 585.7291,294.4799 587.3741,289.3709 C593.6041,285.9829 600.0261,287.3319 606.8281,288.1979" id="Fill-129" fill="#FDFDFD"></path>
                <path d="M606.9931,327.3321 C600.3751,328.6641 594.2721,329.0761 588.3091,326.9971 C585.4761,319.4971 585.4761,319.4971 587.9531,311.9331 C595.6621,309.3491 598.2561,309.2921 607.2161,311.5801 C609.9131,316.4421 609.7401,321.4321 606.9931,327.3321" id="Fill-131" fill="#FDFDFD"></path>
                <path d="M587.5219,357.7096 C594.1699,355.1476 600.2639,355.7406 606.2109,356.7926 C609.9339,364.2296 609.9409,364.3986 607.0009,372.9016 C600.7039,375.1306 594.3539,374.6686 588.0359,373.1786 C585.4509,367.9176 585.6259,363.2036 587.5219,357.7096" id="Fill-133" fill="#FDFDFD"></path>
                <path d="M664.1332,465.1378 L645.1462,465.1378 C641.8652,459.4788 642.0442,454.4708 644.5192,449.0678 C650.9242,446.7678 657.3262,447.2858 663.9422,448.8898 C666.7672,454.0568 666.3502,459.0538 664.1332,465.1378" id="Fill-135" fill="#FCFCFC"></path>
                <path d="M579.621,404.3097 L579.621,419.0717 C572.587,422.6107 566.216,421.8437 559.704,420.6637 C557.188,415.0107 557.238,409.9967 559.41,404.7437 C565.793,402.1527 572.1,401.3797 579.621,404.3097" id="Fill-137" fill="#F7F7F7"></path>
                <path d="M588.1196,402.6905 L606.7206,402.6905 C609.9426,408.2255 609.6656,413.2185 607.3866,418.6455 C601.0726,421.0785 594.7066,420.5465 588.4036,419.4425 C585.1786,414.0285 585.5106,409.0825 588.1196,402.6905" id="Fill-139" fill="#FDFDFD"></path>
                <path d="M586.7768,465.315 L586.7768,450.516 C593.7438,446.706 600.3838,447.571 607.0958,449.107 C609.8088,454.079 609.5508,458.819 607.6868,464.209 C601.3858,467.627 594.7498,466.178 586.7768,465.315" id="Fill-141" fill="#FCFCFC"></path>
                <path d="M551.4614,451.4547 L551.4614,466.4187 C544.7714,470.1237 538.3834,469.7357 532.1464,468.9137 C529.2944,461.4167 529.2944,461.4167 531.2524,452.7687 C537.1524,449.5907 543.4884,449.5177 551.4614,451.4547" id="Fill-143" fill="#FCFCFC"></path>
                <path d="M560.2324,102.9088 C566.7064,101.7538 572.9014,101.1538 579.5874,104.6498 L579.5874,118.9538 C572.6624,122.5628 566.3014,120.6508 559.7234,119.0688 C557.3664,113.4868 556.9074,108.2128 560.2324,102.9088" id="Fill-145" fill="#FDFDFD"></path>
                <path d="M551.5424,102.4796 L551.5424,117.5746 C544.3064,121.2026 537.7634,119.7126 530.4984,117.6646 L530.4984,102.6056 C537.4744,98.2926 543.9364,101.7006 551.5424,102.4796" id="Fill-147" fill="#FCFCFC"></path>
                <path d="M550.5825,335.1202 C552.7625,340.8282 552.3635,345.5672 550.9415,350.5952 C544.2995,352.8292 537.9975,353.4192 531.6575,351.5542 C529.3215,344.1152 529.3215,344.1152 531.2485,335.8302 C537.3425,332.8842 543.6835,333.5782 550.5825,335.1202" id="Fill-149" fill="#FEFEFE"></path>
                <path d="M558.6069,466.1925 L558.6069,451.5265 C565.7229,448.8555 572.2869,447.7195 579.5999,450.6285 L579.5999,465.1225 C572.6139,468.4125 566.2509,468.3365 558.6069,466.1925" id="Fill-151" fill="#FDFDFD"></path>
                <path d="M531.3915,444.7066 C529.0355,439.4516 529.8025,434.6926 530.5935,429.7686 C537.4955,426.4766 544.1095,426.8126 551.4875,428.0806 L551.4875,442.7956 C544.1135,446.3126 541.8555,446.5256 531.3915,444.7066" id="Fill-153" fill="#FEFEFE"></path>
                <path d="M578.6572,219.0885 C580.8572,224.7545 580.8832,229.4785 578.7002,234.5745 C572.3122,236.8245 566.0182,236.7125 559.5142,234.6705 C557.3892,229.6085 557.5252,224.8655 559.1642,219.7555 C565.3992,216.5635 571.7402,217.6535 578.6572,219.0885" id="Fill-155" fill="#FEFEFE"></path>
                <path d="M530.5385,219.2047 C537.6675,216.8887 543.7425,217.0907 549.7415,218.7167 C552.6545,225.7347 552.6545,225.7347 550.6635,233.8837 C542.9815,236.6357 540.4825,236.6727 531.3015,234.0457 C528.8385,229.5827 529.9485,224.7687 530.5385,219.2047" id="Fill-157" fill="#FEFEFE"></path>
                <path d="M559.8256,142.4659 C557.6396,134.8099 557.6396,134.8099 559.4506,127.5919 C566.8126,124.8599 569.2936,124.8269 578.7636,127.4799 C581.0226,132.2469 580.9576,137.1869 578.6166,142.5929 C572.4446,144.5819 566.3996,144.2629 559.8256,142.4659" id="Fill-159" fill="#FEFEFE"></path>
                <path d="M578.2924,281.6588 L560.5704,281.6588 C556.8524,276.2708 557.5944,271.2608 559.2044,265.9358 C565.5484,262.7748 571.8654,263.7558 578.4644,265.2568 C581.1144,270.4718 580.9064,275.3968 578.2924,281.6588" id="Fill-161" fill="#FDFDFD"></path>
                <path d="M550.7612,164.6583 C544.0492,166.6933 537.9812,166.4413 531.6492,164.5433 C528.9292,159.4593 529.3862,154.4683 531.2172,148.9823 C537.7702,146.6113 544.0702,147.4603 550.4072,148.9383 C552.7302,154.2643 552.5152,159.0213 550.7612,164.6583" id="Fill-163" fill="#FEFEFE"></path>
                <path d="M578.7407,396.3941 C568.9877,398.6271 567.6557,398.6131 559.7987,396.3871 C557.6627,389.6421 557.6627,389.6421 559.2887,381.8841 C565.2867,378.3611 571.6767,379.8521 578.0347,380.4491 C581.2527,385.9141 580.8247,390.8771 578.7407,396.3941" id="Fill-165" fill="#FEFEFE"></path>
                <path d="M578.5502,334.7672 C581.0152,340.3592 580.5652,345.0762 579.2952,349.5802 C570.8502,352.5722 568.2512,352.6352 559.4022,350.1322 C557.0542,345.6432 558.0322,340.8642 558.6752,335.9512 C565.2582,332.4752 571.6122,333.3432 578.5502,334.7672" id="Fill-167" fill="#FEFEFE"></path>
            </g>
        </g>
    </g>
</svg>