<?xml version="1.0" encoding="utf-8"?>
<!-- Generator: Adobe Illustrator 21.0.0, SVG Export Plug-In . SVG Version: 6.00 Build 0)  -->
<svg version="1.1" id="Слой_1" xmlns="http://www.w3.org/2000/svg" xmlns:xlink="http://www.w3.org/1999/xlink" x="0px" y="0px"
	 viewBox="0 0 144.3 140.9" style="enable-background:new 0 0 144.3 140.9;" xml:space="preserve">
<style type="text/css">
	.st0{fill:#FFFFFF;}
	.st1{fill:#FF6666;}
</style>
<g>
	<path class="st0" d="M139.3,71.9c-0.9,0.7-79.3,67.6-83.3,67.4c-9.2-0.5-24.7-7.9-37.8-24.5C4.4,97.3-1.1,77.1,4.5,69.6
		C4.9,69,84.5,3.5,85,3.1c7.9-6.2,26.9,4.8,41.8,23.6S147.2,65.6,139.3,71.9z"/>
	<path class="st1" d="M127.7,25.1c-7.5-9.3-16.1-16.8-24.2-21.2c-7.5-4-13.8-5-18.2-2.8L85.2,1l-0.8,0.6c-0.3,0.2-0.6,0.4-0.8,0.6
		v0.1L6.3,66.4c-0.8,0.3-1.5,0.8-2.2,1.3c-4.3,3.5-5.3,10.5-2.6,19.8c2.5,8.9,8.1,18.8,15.6,28.1s16.1,16.8,24.2,21.2
		c4.8,2.6,9.2,3.9,12.9,3.9c2.7,0,5-0.7,6.8-2.1l0.1,0.1l79-65.5l0,0C148.9,66.2,143.4,44.6,127.7,25.1z M42.7,134.3
		c-7.8-4.2-16-11.4-23.3-20.4S6.8,95.3,4.4,86.8c-2.3-7.9-1.7-14,1.6-16.7c1.3-1.1,3.1-1.6,5.1-1.6c3.2,0,7.1,1.2,11.5,3.6
		c7.8,4.2,16,11.4,23.3,20.4s12.6,18.6,15,27.1c2.3,7.9,1.7,14-1.6,16.7C56,138.9,50,138.2,42.7,134.3z M138.2,71L65,131.7
		c0.6-3.5,0.3-7.9-1.2-12.9c-2.5-8.9-8.1-18.8-15.6-28.1C40.7,81.3,32.1,73.8,24,69.4c-4.4-2.4-8.5-3.7-11.9-3.9L86.2,4.1
		c3.4-2.1,9.1-1.2,15.9,2.5c7.8,4.2,16,11.4,23.3,20.4C137.9,42.6,146.3,64.5,138.2,71l1,1.2L138.2,71z"/>
</g>
</svg>
