<?xml version="1.0" encoding="utf-8"?>
<!-- Generator: Adobe Illustrator 21.0.0, SVG Export Plug-In . SVG Version: 6.00 Build 0)  -->
<svg version="1.1" id="Слой_1" xmlns="http://www.w3.org/2000/svg" xmlns:xlink="http://www.w3.org/1999/xlink" x="0px" y="0px"
	 viewBox="0 0 383 383" style="enable-background:new 0 0 383 383;" xml:space="preserve">
<style type="text/css">
	.st0{opacity:0.45;}
	.st1{fill:#FF6666;}
</style>
<g class="st0">
	<path class="st1" d="M191.5,0C85.9,0,0,85.9,0,191.5S85.9,383,191.5,383S383,297.1,383,191.5S297.1,0,191.5,0z M191.5,382
		C86.5,382,1,296.5,1,191.5S86.5,1,191.5,1S382,86.5,382,191.5S296.5,382,191.5,382z"/>
	<path class="st1" d="M192,50c-78.3,0-142,63.7-142,142s63.7,142,142,142s142-63.7,142-142S270.3,50,192,50z M192,333
		c-77.7,0-141-63.3-141-141S114.3,51,192,51s141,63.3,141,141S269.7,333,192,333z"/>
	<path class="st1" d="M191.5,101c-49.9,0-90.5,40.6-90.5,90.5s40.6,90.5,90.5,90.5c24.6,0,47-9.9,63.3-25.9l0.1-0.1l0,0
		c16.7-16.4,27.1-39.3,27.1-64.5C282,141.6,241.4,101,191.5,101z M191.5,281c-24,0-45.8-9.5-61.9-24.9l17.2-25.4
		c10.9,12.4,26.9,20.3,44.7,20.3c18.1,0,34.4-8.2,45.3-21l16.8,25.9C237.5,271.4,215.6,281,191.5,281z M193.6,161.7l17.2-25.4
		c22.8,8,39.2,29.7,39.2,55.2c0,13.9-4.9,26.8-13.1,36.8L193.6,161.7z M236.2,229.1c-10.7,12.8-26.8,20.9-44.7,20.9
		c-17.6,0-33.4-7.8-44.1-20.1l45.6-67.3L236.2,229.1z M193,160.8L176.3,135c4.9-1.3,9.9-2,15.2-2c6.4,0,12.6,1.1,18.4,3L193,160.8z
		 M192.4,161.7l-45.7,67.4c-8.6-10.2-13.7-23.3-13.7-37.6c0-26.6,17.9-49.1,42.3-56.2L192.4,161.7z M254.4,255.2l-16.9-25.9
		c8.4-10.3,13.5-23.4,13.5-37.7c0-25.8-16.5-47.8-39.6-56.1L228,111l-0.8-0.6l-16.7,24.7c-6-2-12.3-3.1-18.9-3.1
		c-5.5,0-10.7,0.8-15.8,2.1l-15.4-23.7l-0.8,0.5l15.2,23.5c-24.7,7.3-42.7,30.1-42.7,57.1c0,14.6,5.3,28.1,14.1,38.4l-17.3,25.4
		C112.3,239,102,216.4,102,191.4c0-49.4,40.1-89.5,89.5-89.5S281,142,281,191.4C281,216.4,270.8,238.9,254.4,255.2z"/>
</g>
<path class="st1" d="M101,52v-0.8V20.9v-0.2V18H74L20.3,35H20v47h40v-0.8l0.4,0.5L101,52L101,52L101,52z M98,49H77V31l21-8.8V49z
	 M74,48.6l-14,7.9V38.1l14-5.9V48.6z M56,58.8L24,76.9V39h32V58.8z M93,21l-16,6.7V21H93z M74,21v8l-14.4,6H30.4L74,21z M28.2,78
	L56,62.3V78H28.2z M60,78.3V60l14.1-8h21.8L60,78.3z"/>
</svg>
