<?xml version="1.0" encoding="utf-8"?>
<!-- Generator: Adobe Illustrator 21.0.0, SVG Export Plug-In . SVG Version: 6.00 Build 0)  -->
<svg version="1.1" id="Layer_1" xmlns="http://www.w3.org/2000/svg" xmlns:xlink="http://www.w3.org/1999/xlink" x="0px" y="0px"
	 viewBox="0 0 383 383" style="enable-background:new 0 0 383 383;" xml:space="preserve">
<style type="text/css">
	.st0{fill:#FF6666;}
</style>
<g>
	<path class="st0" d="M191.5,0c-27.9,0-54.5,6-78.4,16.8V7.4H80.2h-0.1l-53,18v51h11.5C14.4,108.5,0,148.3,0,191.5
		C0,297.1,85.9,383,191.5,383C297.1,383,383,297.1,383,191.5S297.1,0,191.5,0z M84.1,11.4h19.6l-19.6,8.1V11.4z M109.1,13.5v5.2
		c-8.7,4.2-17.1,9-25,14.4v-9.3L109.1,13.5z M67.1,54.6v17.8H42.9c2.5-3.1,5.1-6.2,7.8-9.1L67.1,54.6z M60.1,53.7
		c2.3-2.2,4.6-4.3,7-6.4V50L60.1,53.7z M80.1,35.9c-3.1,2.2-6.1,4.5-9,6.9V29.2l9-3.7V35.9z M80.1,37.1v6.1l-9,4.8v-4
		C74,41.6,77,39.3,80.1,37.1z M71.1,52.4l11.3-6h23.8L71.1,71.5V52.4z M84.1,42.4v-8.1c7.9-5.4,16.3-10.3,25-14.5v22.6H84.1z
		 M80.1,11.7v9.5l-10.4,4.2H39.6L80.1,11.7z M31.1,29.4h36v16.7c-3.5,3-6.9,6.1-10.1,9.3L31.1,69.2V29.4z M33.6,72.4l14.6-7.8
		c-2.2,2.5-4.4,5.1-6.5,7.8H33.6z M191.5,382C86.5,382,1,296.5,1,191.5c0-43.2,14.5-83.1,38.8-115.1h31.2l42-30V17.9
		C137,7.1,163.6,1,191.5,1C296.5,1,382,86.5,382,191.5S296.5,382,191.5,382z"/>
	<path class="st0" d="M192,50c-78.3,0-142,63.7-142,142s63.7,142,142,142s142-63.7,142-142S270.3,50,192,50z M192,333
		c-77.7,0-141-63.3-141-141S114.3,51,192,51c77.7,0,141,63.3,141,141S269.7,333,192,333z"/>
	<path class="st0" d="M191.5,101c-49.9,0-90.5,40.6-90.5,90.5s40.6,90.5,90.5,90.5c24.6,0,46.9-9.9,63.2-25.8l0.2-0.1l0,0
		c16.7-16.4,27.1-39.3,27.1-64.5C282,141.6,241.4,101,191.5,101z M191.5,281c-24,0-45.8-9.5-61.9-24.9l17.2-25.4
		c10.9,12.4,26.9,20.3,44.7,20.3c18.1,0,34.4-8.2,45.3-21l16.8,25.9C237.5,271.4,215.6,281,191.5,281z M193.6,161.7l17.2-25.4
		c22.8,8,39.2,29.7,39.2,55.2c0,13.9-4.9,26.8-13.1,36.8L193.6,161.7z M236.2,229.1c-10.7,12.7-26.8,20.9-44.7,20.9
		c-17.6,0-33.4-7.8-44.1-20.2l45.6-67.3L236.2,229.1z M193,160.7L176.3,135c4.9-1.3,10-2,15.2-2c6.4,0,12.5,1,18.3,3L193,160.7z
		 M192.4,161.6L146.7,229c-8.5-10.2-13.7-23.3-13.7-37.5c0-26.6,17.9-49.1,42.3-56.2L192.4,161.6z M254.3,255.2l-16.9-25.9
		c8.4-10.3,13.5-23.4,13.5-37.7c0-25.8-16.6-47.9-39.6-56.1l16.6-24.5l-0.8-0.6l-16.8,24.7c-5.9-2-12.3-3.1-18.9-3.1
		c-5.5,0-10.8,0.8-15.8,2.1l-15.4-23.7l-0.8,0.5l15.3,23.5c-24.7,7.3-42.7,30.1-42.7,57.1c0,14.6,5.3,28,14.1,38.4l-17.3,25.4
		c-16.6-16.3-26.9-38.9-26.9-63.9c0-49.4,40.1-89.5,89.5-89.5s89.5,40.1,89.5,89.5C281,216.4,270.8,238.9,254.3,255.2z"/>
</g>
</svg>
