<?xml version="1.0" encoding="UTF-8"?>
<svg width="25px" height="305px" viewBox="0 0 25 305" version="1.1" xmlns="http://www.w3.org/2000/svg" xmlns:xlink="http://www.w3.org/1999/xlink">
    <!-- Generator: sketchtool 49.1 (51147) - http://www.bohemiancoding.com/sketch -->
    <title>35EE240E-D0DE-404A-B642-D3CF2E555230</title>
    <desc>Created with sketchtool.</desc>
    <defs></defs>
    <g id="Page-1" stroke="none" stroke-width="1" fill="none" fill-rule="evenodd">
        <g id="Desktop-HD-Copy" transform="translate(-1264.000000, -898.000000)" fill="#F1737A">
            <g id="dif_fig" transform="translate(1264.000000, 898.000000)">
                <path d="M7.86757353,14 L17.1324265,14 L12.5,7.4601038 L7.86757353,14 Z M24.8675735,18 L0.132426472,18 L12.5,0.539896195 L24.8675735,18 Z" id="Triangle" fill-rule="nonzero"></path>
                <polygon id="Shape" fill-rule="nonzero" points="14 36 3 54 25 54"></polygon>
                <polygon id="Shape" fill-rule="nonzero" points="3 146 25 146 14 128"></polygon>
                <polygon id="Shape" fill-rule="nonzero" points="16.1 84 21 79.1 18.9 77 14 81.9 9.6 77.4 7.4 79.6 11.9 84 7 88.9 9.1 91 14 86.1 19.5 91.6 21.6 89.5"></polygon>
                <polygon id="Shape" fill-rule="nonzero" points="9.1 119 14 114.1 19.5 119.6 21.6 117.5 16.1 112 21 107.1 18.9 105 14 109.9 9.6 105.4 7.4 107.6 11.9 112 7 116.9"></polygon>
                <g id="cirlce" stroke-width="1" fill-rule="evenodd" transform="translate(3.000000, 166.000000)">
                    <circle id="Oval" fill-rule="nonzero" cx="10.5" cy="10.5" r="10.5"></circle>
                </g>
                <g id="img_7" stroke-width="1" fill-rule="evenodd" transform="translate(1.000000, 211.000000)">
                    <polygon id="Shape" fill-rule="nonzero" transform="translate(8.500000, 8.952000) scale(-1, 1) translate(-8.500000, -8.952000) " points="3.808 17.904 3.672 13.2836129 5.168 13.2836129 5.168 17.904 8.84 17.904 8.84 13.2836129 17 13.2836129 17 9.38516129 8.84 9.38516129 8.84 0 5.168 0 5.168 9.38516129 3.672 9.38516129 3.672 0 0 0 0.136 17.904"></polygon>
                    <polygon id="Shape-Copy-2" fill-rule="nonzero" points="7.06451613 52 10.983871 52 10.8387097 42.5645161 12.4354839 42.5645161 12.4354839 52.7258065 16.3548387 52.7258065 16.3548387 42.5645161 21 42.5645161 21 38.6451613 16.3548387 38.6451613 16.3548387 34.7258065 12.4354839 34.7258065 12.4354839 38.6451613 10.8387097 38.6451613 10.8387097 34 6.91935484 34 6.91935484 38.6451613 3 38.7903226 3 42.7096774 6.91935484 42.5645161"></polygon>
                    <polygon id="Shape" fill-rule="nonzero" transform="translate(11.500000, 85.347917) scale(-1, 1) translate(-11.500000, -85.347917) " points="20 87.9061501 10.4032258 87.9061501 10.4032258 77 6.7016129 77 6.7016129 87.9061501 3 87.9061501 3 91.5415335 6.7016129 91.5415335 6.7016129 93.6958348 10.4032258 93.6958348 10.4032258 91.5415335 20 91.5415335"></polygon>
                    <polygon id="Shape" fill-rule="nonzero" transform="translate(8.919355, 77.347917) scale(-1, 1) translate(-8.919355, -77.347917) " points="7.13709677 85.6958348 10.8387097 85.6958348 10.7016129 69 7 69"></polygon>
                </g>
            </g>
        </g>
    </g>
</svg>