<?xml version="1.0" encoding="UTF-8"?>
<svg width="112px" height="34px" viewBox="0 0 112 34" version="1.1" xmlns="http://www.w3.org/2000/svg" xmlns:xlink="http://www.w3.org/1999/xlink">
    <!-- Generator: Sketch 47.1 (45422) - http://www.bohemiancoding.com/sketch -->
    <title>dotnet-ar21</title>
    <desc>Created with Sketch.</desc>
    <defs></defs>
    <g id="Symbols" stroke="none" stroke-width="1" fill="none" fill-rule="evenodd">
        <g id="dotnet-ar21">
            <g transform="translate(2.000000, 2.000000)" id="Group-2">
                <g>
                    <path d="M23.3479027,3.97151375 C23.1471706,4.11448414 22.9464385,4.26196076 22.7436582,4.41640155 C23.0082968,4.99442797 23.2532718,5.64373475 23.4822702,6.34711629 C23.783778,6.05175339 24.0836471,5.76581261 24.3831066,5.49257121 C24.061116,4.93994355 23.7198715,4.42869127 23.3479027,3.97151375" id="path3844" fill="#2B74B1" fill-rule="nonzero"></path>
                    <path d="M24.0631643,3.49467268 C23.8251534,3.6450169 23.5871425,3.80437358 23.3479027,3.97151375 C23.7190521,4.42869127 24.061116,4.93994355 24.3831066,5.49257121 C24.6481548,5.25374102 24.9127934,5.02310398 25.1766127,4.8051663 C24.8263558,4.32259004 24.4547966,3.88097949 24.0631643,3.49467268" id="path3846" fill="#125A9E" fill-rule="nonzero"></path>
                    <path d="M55.3396779,26.0737527 C55.3204076,26.117586 55.292977,26.1851795 55.2597947,26.2761234 L55.2520276,26.2761234 C55.2405572,26.2310611 55.2163874,26.1651063 55.1778797,26.0782589 L54.6740012,24.9308089 L54.419604,24.9308089 L54.419604,26.5751732 L54.6035402,26.5751732 L54.6035402,25.4736048 C54.6035402,25.3253089 54.6012461,25.2183883 54.595347,25.1516142 L54.5994436,25.1516142 C54.6170752,25.2298587 54.6338548,25.2868011 54.6494218,25.321622 L55.2114716,26.5751732 L55.3052831,26.5751732 L55.8648749,25.3121998 C55.8804419,25.2790176 55.8964021,25.2265815 55.9164917,25.1516142 L55.919769,25.1516142 C55.9099372,25.277379 55.904628,25.3842995 55.904628,25.4707372 L55.904628,26.5751732 L56.0963477,26.5751732 L56.0963477,24.9308089 L55.8538305,24.9308089 L55.3397107,26.0737527 L55.3396779,26.0737527 Z M53.0201984,25.1057326 L53.4941719,25.1057326 L53.4941719,26.5751732 L53.6879398,26.5751732 L53.6879398,25.1057326 L54.1602746,25.1057326 L54.1602746,24.9308089 L53.0201984,24.9308089 L53.0201984,25.1057326 L53.0201984,25.1057326 Z M64.9670335,24.2073542 C64.6061255,24.2073542 64.2992922,24.3359865 64.0477626,24.5965286 C63.795004,24.8558416 63.6704682,25.1696391 63.6704682,25.5403789 C63.6704682,25.901287 63.795004,26.2138555 64.0477626,26.4772651 C64.2992922,26.7406748 64.6061255,26.8729941 64.9670335,26.8729941 C65.3373637,26.8729941 65.6523901,26.7406748 65.9112935,26.4772651 C66.1714259,26.2138555 66.3008776,25.901287 66.3008776,25.5403789 C66.3008776,25.1786516 66.1714259,24.8652637 65.9112935,24.6018541 C65.6523901,24.3372155 65.3373637,24.2073542 64.9670335,24.2073542 L64.9670335,24.2073542 Z M97.3836233,11.478893 L102.265099,11.478893 L102.265099,26.6013913 L104.247021,26.6013913 L104.247021,11.478893 L109.119485,11.478893 L109.119485,9.68623274 L97.3836233,9.68623274 L97.3836233,11.478893 Z M88.5383035,18.8981959 L94.6479321,18.8981959 L94.6479321,17.1055356 L88.5383035,17.1055356 L88.5383035,11.478893 L95.1325566,11.478893 L95.1325566,9.68623274 L86.5567912,9.68623274 L86.5567912,26.6013913 L95.521731,26.6013913 L95.521731,24.808731 L88.5383035,24.808731 L88.5383035,18.8981959 L88.5383035,18.8981959 Z M80.8412529,21.5998856 C80.8412529,22.7706861 80.881809,23.6010614 80.9600535,24.0865053 L80.9137623,24.0865053 C80.7961906,23.8599648 80.5659632,23.4826704 80.2284056,22.9554415 L71.7599704,9.68623274 L69.1869131,9.68623274 L69.1869131,26.6013913 L71.1696543,26.6013913 L71.1696543,14.3800858 C71.1696543,13.1933087 71.1381271,12.4182371 71.0754331,12.057329 L71.1471232,12.057329 C71.2962384,12.4424069 71.472391,12.7955315 71.6764004,13.1191607 L80.4061969,26.6013913 L82.8112948,26.6013913 L82.8112948,9.68623274 L80.8412529,9.68623274 L80.8412529,21.5998856 L80.8412529,21.5998856 Z M104.265456,6.30328296 C104.265456,7.20903519 104.66692,7.6625258 105.471487,7.6625258 C105.758247,7.6625258 105.989703,7.61336693 106.164217,7.51341055 L106.164217,6.88417698 C106.02903,6.98331404 105.870493,7.03329222 105.687376,7.03329222 C105.441582,7.03329222 105.267068,6.96815672 105.160557,6.83583742 C105.054865,6.70761469 105.004068,6.48639976 105.004068,6.17710852 L105.004068,3.57783311 L106.164217,3.57783311 L106.164217,2.95269611 L105.004068,2.95269611 L105.004068,1.5893567 C104.745574,1.67333644 104.500599,1.75403892 104.265456,1.82818689 L104.265456,2.95269611 L103.474408,2.95269611 L103.474408,3.57783311 L104.265456,3.57783311 L104.265456,6.30328296 L104.265456,6.30328296 Z M101.253246,7.56011148 L101.991039,7.56011148 L101.991039,3.57783311 L103.070895,3.57783311 L103.070895,2.95269611 L101.991039,2.95269611 L101.991039,2.24276005 C101.991039,1.59181464 102.247484,1.26654676 102.763652,1.26654676 C102.946769,1.26654676 103.108584,1.30751249 103.253602,1.38780532 L103.253602,0.721702588 C103.12456,0.668856799 102.946769,0.641819419 102.719409,0.641819419 C102.326138,0.641819419 101.995135,0.765535916 101.724352,1.0150172 C101.408096,1.30177729 101.253246,1.6995545 101.253246,2.2058909 L101.253246,2.95269611 L100.469572,2.95269611 L100.469572,3.57783311 L101.253246,3.57783311 L101.253246,7.56011148 L101.253246,7.56011148 Z M96.2251126,5.28241703 C96.2251126,4.69455884 96.3693119,4.24147789 96.6593493,3.92030659 C96.9358679,3.62043747 97.3037402,3.4705029 97.7621467,3.4705029 C98.2262884,3.4705029 98.588835,3.61879884 98.8460998,3.9153907 C99.1127867,4.22468195 99.246335,4.67448563 99.246335,5.26480177 C99.246335,5.82808052 99.1222088,6.26231723 98.8723179,6.56996985 C98.6179207,6.88417698 98.2480002,7.04189503 97.7621467,7.04189503 C97.2943181,7.04189503 96.9211203,6.88663492 96.6400954,6.57570505 C96.3631671,6.2664138 96.2251126,5.83381572 96.2251126,5.28241703 L96.2251126,5.28241703 Z M99.3815219,7.00502587 C99.7948661,6.56259601 100.004201,5.9730992 100.004201,5.2385837 C100.004201,4.49218815 99.8092041,3.90514927 99.4249455,3.47828639 C99.0386387,3.05429111 98.5032167,2.84045001 97.8162214,2.84045001 C97.1169365,2.84045001 96.5585736,3.04527865 96.1427715,3.45165867 C95.6941967,3.89040161 95.4680659,4.5089841 95.4680659,5.30986407 C95.4680659,6.01242629 95.6667497,6.57734368 96.062069,7.00502587 C96.465991,7.4486847 97.0161608,7.67071894 97.7088912,7.67071894 C98.4106341,7.67071894 98.9681777,7.4486847 99.3815219,7.00502587 L99.3815219,7.00502587 Z M94.3165193,7.26597756 C94.5991828,7.01649628 94.7401049,6.70474709 94.7401049,6.3278624 C94.7401049,5.98497926 94.6266299,5.70313505 94.4013184,5.48232978 C94.2288527,5.30699647 93.9449602,5.13616938 93.5512795,4.97230647 C93.2014322,4.82319123 92.9687469,4.69455884 92.8593684,4.58927692 C92.7368809,4.47621151 92.674613,4.31726449 92.674613,4.11366482 C92.674613,3.92440316 92.7487609,3.77037203 92.8962375,3.64911347 C93.0424852,3.53031287 93.238711,3.4705029 93.4828668,3.4705029 C93.8773667,3.4705029 94.2247561,3.57947174 94.5279025,3.79904804 L94.5279025,3.05592974 C94.2374555,2.91214004 93.9097296,2.84045001 93.5430864,2.84045001 C93.065426,2.84045001 92.6762516,2.96662445 92.3726956,3.22184094 C92.0711878,3.47541879 91.9183856,3.79372249 91.9183856,4.17552307 C91.9183856,4.51717724 92.0162937,4.79451522 92.2112906,5.00794666 C92.3726956,5.1877862 92.6479852,5.36107123 93.0338824,5.53025968 C93.4083091,5.69494191 93.660658,5.83545435 93.7897001,5.95302599 C93.9199711,6.06936866 93.9838776,6.21807425 93.9838776,6.39791379 C93.9838776,6.8264153 93.6913823,7.04189503 93.107211,7.04189503 C92.6696971,7.04189503 92.2711005,6.89400875 91.9093732,6.60069414 L91.9093732,7.39338097 C92.2342314,7.57895571 92.616032,7.67071894 93.0531363,7.67071894 C93.5848714,7.67071894 94.0080474,7.5359417 94.3165193,7.26597756 L94.3165193,7.26597756 Z M87.7415201,3.92030659 C88.0164001,3.62043747 88.3838627,3.4705029 88.8426788,3.4705029 C89.3076398,3.4705029 89.6689575,3.61879884 89.9274513,3.9153907 C90.1933188,4.22468195 90.3268671,4.67448563 90.3268671,5.26480177 C90.3268671,5.82808052 90.202741,6.26231723 89.95285,6.56996985 C89.6984529,6.88417698 89.3273034,7.04189503 88.8426788,7.04189503 C88.3740309,7.04189503 88.0004235,6.88663492 87.7230855,6.57570505 C87.4436992,6.2664138 87.3052351,5.83381572 87.3052351,5.28241703 C87.3052351,4.69455884 87.4506634,4.24147789 87.7415201,3.92030659 L87.7415201,3.92030659 Z M88.7881944,7.67071894 C89.489118,7.67071894 90.0474809,7.4486847 90.4628733,7.00502587 C90.8749886,6.56259601 91.0826848,5.9730992 91.0826848,5.2385837 C91.0826848,4.49218815 90.8893266,3.90514927 90.5058874,3.47828639 C90.1191709,3.05429111 89.5825199,2.84045001 88.8955246,2.84045001 C88.1970589,2.84045001 87.6403347,3.04527865 87.2237133,3.45165867 C86.7730903,3.89040161 86.5485981,4.5089841 86.5485981,5.30986407 C86.5485981,6.01242629 86.7468722,6.57734368 87.1421915,7.00502587 C87.5461135,7.4486847 88.0962833,7.67071894 88.7881944,7.67071894 L88.7881944,7.67071894 Z M85.0693257,3.12434251 C84.8452431,3.30745931 84.6785126,3.56595305 84.5699534,3.90310099 L84.5515352,3.90310099 L84.5515352,2.95269611 L83.8149715,2.95269611 L83.8149715,7.56011148 L84.5515352,7.56011148 L84.5515352,5.21072701 C84.5515352,4.67612426 84.6666489,4.2586835 84.898515,3.95594677 C85.1025243,3.68639229 85.3540538,3.5520247 85.6535133,3.5520247 C85.900127,3.5520247 86.0869307,3.60036426 86.2167921,3.69991098 L86.2167921,2.93508084 C86.1168357,2.89370546 85.9709977,2.87281294 85.7751815,2.87281294 C85.5142298,2.87281294 85.2782673,2.95679268 85.069342,3.12434251 L85.0693257,3.12434251 Z M81.4360917,7.67071894 C81.9231742,7.67071894 82.3447115,7.56338874 82.6982457,7.34668004 L82.6982457,6.64575644 C82.3447115,6.90998538 81.9682365,7.04189503 81.5647241,7.04189503 C81.087883,7.04189503 80.7093597,6.88622526 80.4254672,6.57406642 C80.1419843,6.2606786 79.9994236,5.83750264 79.9994236,5.30085161 C79.9994236,4.7428984 80.1559127,4.29555265 80.4635653,3.96127232 C80.7593378,3.63436581 81.1411384,3.4705029 81.610196,3.4705029 C82.0005994,3.4705029 82.3647847,3.58971317 82.7080775,3.83141096 L82.7080775,3.07436432 C82.3983766,2.91951387 82.0432037,2.84045001 81.6421493,2.84045001 C80.9105014,2.84045001 80.3275591,3.07272569 79.894961,3.5376867 C79.4603146,4.00223805 79.2440156,4.61303704 79.2440156,5.36721609 C79.2440156,6.03987333 79.4426994,6.58922374 79.837609,7.01403833 C80.2435793,7.45196196 80.7753145,7.67071894 81.4360917,7.67071894 L81.4360917,7.67071894 Z M77.3649177,7.56011148 L78.1006621,7.56011148 L78.1006621,2.95269611 L77.3649177,2.95269611 L77.3649177,7.56011148 Z M77.742212,1.78353424 C77.8773989,1.78353424 77.9925126,1.73683332 78.0859145,1.64343146 C78.179726,1.55084891 78.2276559,1.43737385 78.2276559,1.30177729 C78.2276559,1.16863867 78.179726,1.05475395 78.0859145,0.962581065 C77.9925126,0.870817836 77.8773989,0.825755536 77.742212,0.825755536 C77.610712,0.825755536 77.4964177,0.870817836 77.4021965,0.962581065 C77.3092043,1.05475395 77.2620937,1.16863867 77.2620937,1.30177729 C77.2620937,1.44351871 77.3092043,1.55822274 77.4021965,1.64834734 C77.4964177,1.73806229 77.610712,1.78353424 77.742212,1.78353424 L77.742212,1.78353424 Z M69.921445,3.23617894 C69.921445,2.65528493 69.908762,2.23579588 69.8862145,1.97730214 L69.9022075,1.97730214 C69.9677526,2.28003886 70.0328881,2.50125379 70.0943367,2.63889863 L72.2991122,7.56011148 L72.6682134,7.56011148 L74.8684826,2.60284879 C74.925425,2.4733971 74.9905605,2.2652912 75.0610215,1.97730214 L75.0786204,1.97730214 C75.0368354,2.46971018 75.0155332,2.88592197 75.0155332,3.22757614 L75.0155332,7.56011148 L75.7721702,7.56011148 L75.7721702,1.10882871 L74.8246329,1.10882871 L72.8033839,5.58925033 C72.7247297,5.76253536 72.6231347,6.02717396 72.4940927,6.37988887 L72.4625654,6.37988887 C72.4158645,6.2041459 72.3191854,5.94647147 72.1696605,5.60768491 L70.1906062,1.10882871 L69.1918618,1.10882871 L69.1918618,7.56011148 L69.9214614,7.56011148 L69.9214614,3.23617894 L69.921445,3.23617894 Z M107.146576,2.44103417 C107.352633,2.23333793 107.611946,2.1301043 107.923695,2.1301043 C108.225203,2.1301043 108.482058,2.23333793 108.691393,2.43898588 C108.900318,2.64504349 109.005191,2.90435655 109.005191,3.21200916 C109.005191,3.52130041 108.900318,3.78143277 108.689345,3.98708073 C108.478781,4.19682525 108.222745,4.30046854 107.923695,4.30046854 C107.621778,4.30046854 107.365742,4.19805422 107.156817,3.9911773 C106.945434,3.78389072 106.838104,3.52293903 106.838104,3.21200916 C106.838104,2.90681449 106.940928,2.64954972 107.146576,2.44103417 L107.146576,2.44103417 Z M107.917551,4.4245947 C108.266169,4.4245947 108.558254,4.30702306 108.796265,4.07310875 C109.034686,3.83960411 109.153077,3.55038607 109.153077,3.20504499 C109.153077,2.85355905 109.033867,2.56270238 108.793807,2.33288465 C108.560303,2.10880212 108.271904,1.9949174 107.927382,1.9949174 C107.576716,1.9949174 107.283401,2.11330835 107.047438,2.34845163 C106.811886,2.58523353 106.693904,2.87281294 106.693904,3.21528642 C106.693904,3.56513373 106.809018,3.85353246 107.041703,4.08294053 C107.273569,4.30989066 107.566065,4.4245947 107.917551,4.4245947 L107.917551,4.4245947 Z M107.660286,2.60284879 L107.854463,2.60284879 C107.989241,2.60284879 108.0851,2.6257896 108.141633,2.67126156 C108.192021,2.71345626 108.21701,2.77695314 108.21701,2.86666808 C108.21701,3.04527865 108.110089,3.13458394 107.8942,3.13458394 L107.660286,3.13458394 L107.660286,2.60284879 Z M107.660286,3.32138765 L107.803666,3.32138765 C107.904441,3.32138765 107.996614,3.41437986 108.082642,3.6028222 L108.25265,3.97683929 L108.518518,3.97683929 L108.313689,3.56144682 C108.22848,3.38980042 108.141633,3.29353096 108.055195,3.2730481 L108.055195,3.26691962 C108.180141,3.24027551 108.278459,3.1894944 108.346871,3.1137078 C108.416923,3.03874052 108.451744,2.94820626 108.451744,2.8404664 C108.451744,2.71920785 108.40873,2.62211907 108.323521,2.54592282 C108.222745,2.45784651 108.076088,2.41524215 107.880272,2.41524215 L107.440709,2.41524215 L107.440709,3.97685568 L107.660286,3.97685568 L107.660286,3.32140404 L107.660286,3.32138765 Z" id="path4936" fill="#231F20" fill-rule="nonzero"></path>
                    <path d="M1,26.4273877 C7.15439903,14.1205711 9.06447527,2.4958151 18.3925781,1.61903806 C20.9041966,1.38296332 30.7089934,0.745211088 34.559082,2.27113767 C39.4130331,4.1949305 38.3979843,9.04006987 41.6147461,16.6705091 C42.257629,18.1954834 42.0732422,21.4476513 43.237793,21.0257763 C44.4807129,17.8363232 45.2364194,12.278067 47.2194824,7.84091926 C48.171056,5.71175209 48.8833621,2.76936996 51.0891113,2.01206184 C55.6206166,0.456243201 62.5932617,1.1654674 66.1503906,1.13686033 C64.5716832,4.65813621 59.6816533,17.1316692 50.8183594,24.2367138 C47.1575849,27.1712849 42.6907557,26.7259317 38.5576172,26.7420849 C34.6751197,26.7572586 30.6893078,27.1224296 28.6191406,23.2113232 C25.8073166,17.8990262 25.300293,12.0101513 23.3254395,6.48402829 C21.3244629,8.58314939 20.4269815,8.86932116 18.9899902,11.3683056 C16.7964561,15.1829479 17.6648522,18.3349145 13.7387695,24.2367138 C11.3945312,27.7606396 7.43725586,26.7420849 4.62963867,26.7420849 L1,26.4273877 Z" id="Path-2" fill="#33BDF2"></path>
                    <path d="M4.62963867,26.2420849 C5.06833714,26.2420849 5.3888597,26.2570588 6.30078101,26.3113068 C7.35785959,26.3741898 7.89506301,26.3925616 8.51533463,26.3708001 C10.7018578,26.2940886 12.2130642,25.6274662 13.3224695,23.9597765 C15.2447395,21.0701654 15.864928,19.4436791 16.8718039,15.6017131 C17.1327531,14.6060017 17.3049466,14.0105213 17.5294568,13.3742518 C17.8127917,12.5712708 18.1413027,11.8411791 18.5565427,11.1190603 C19.0183985,10.3158749 19.4467544,9.69807313 19.9085109,9.15568281 C20.176065,8.84140732 20.4521681,8.55408249 20.7977161,8.22338743 C20.9939874,8.03555271 21.7151763,7.36897972 21.781049,7.30727936 C22.2074493,6.90788706 22.5716365,6.55014852 22.9635267,6.13903678 L23.5232733,5.55183551 L23.796277,6.31576654 C24.4404686,8.11837233 24.849508,9.60570488 25.6592828,12.8742492 C26.9475856,18.0744152 27.6546996,20.3204318 29.0610541,22.9774163 C30.5372751,25.7663975 32.4781798,26.3052066 37.6701768,26.249564 C37.8129798,26.2480337 37.8129798,26.2480337 37.9560491,26.2465689 C38.1899893,26.2442294 38.3760057,26.2427909 38.5556631,26.2420888 C38.9721312,26.2404611 39.3032286,26.2424807 40.0644265,26.2496072 C41.145641,26.2597297 41.6334232,26.2609623 42.236196,26.2502489 C45.9117686,26.1849211 48.3512732,25.5735731 50.5056253,23.846589 C53.5091476,21.4388882 56.2384065,18.260468 58.7278579,14.4631895 C60.3788166,11.9449037 61.8517209,9.27072995 63.228773,6.4084332 C63.7378462,5.35028992 64.206471,4.32481279 64.7075049,3.1874956 C64.8152029,2.94302739 65.1341178,2.21036641 65.3855519,1.63486736 C64.9084284,1.62786081 64.2704011,1.60894007 62.980979,1.56861338 C60.5946881,1.49398212 59.1774773,1.47629169 57.6207728,1.52940173 C55.0266713,1.61790461 52.9146395,1.9139452 51.2514752,2.48496563 C50.0698947,2.89064206 49.3383254,3.95024965 48.4391247,6.17609955 C48.3595178,6.37315565 48.0941968,7.04244969 48.0688071,7.10593082 C47.9154574,7.48934715 47.7963461,7.77558262 47.6759673,8.04493283 C47.103986,9.32475382 46.603582,10.767194 46.1122281,12.4859459 C45.8755436,13.3138663 45.6527153,14.159848 45.3705054,15.2830453 C45.3196911,15.4852865 45.2686906,15.6894241 45.1997086,15.9663768 C45.1155456,16.3044715 45.1155456,16.3044715 45.0323053,16.6383846 C44.8986857,17.1736969 44.7997865,17.564537 44.7026315,17.9387308 C44.3337526,19.3594731 44.0310068,20.3673433 43.703668,21.2073264 L43.6213216,21.4186354 L43.4080946,21.4958799 C42.7637391,21.7293068 42.2846358,21.3771418 42.0150365,20.7066104 C41.8544826,20.3072904 41.763569,19.870982 41.6150622,18.9405099 C41.5852778,18.7533025 41.570039,18.6577153 41.5552894,18.5666175 C41.4178797,17.717933 41.3094659,17.2334863 41.1540136,16.8647399 C40.5376151,15.402589 40.0406796,13.9683352 39.5775321,12.3834294 C39.305136,11.451281 38.5148958,8.46917919 38.5750199,8.68874877 C37.5847378,5.07230015 36.6795501,3.649393 34.374856,2.73596106 C31.4416211,1.57341608 24.2631323,1.56945046 18.4393684,2.11684391 C13.4578279,2.5850742 10.5964516,5.89411703 7.05273938,13.9483629 C6.49028468,15.2267254 4.4154144,20.1576799 4.46833244,20.0334824 C3.4824329,22.3473668 2.64699309,24.2074102 1.7728457,25.9929008 L4.62963867,26.2420849 Z M22.4646639,8.03712224 C22.3931992,8.10406039 21.6779212,8.76517016 21.4891253,8.94585088 C21.1664403,9.25466559 20.9131518,9.51824856 20.6699479,9.80392166 C20.2495542,10.2977264 19.8559103,10.8654642 19.4234377,11.617551 C19.0399549,12.2844428 18.7363164,12.9592574 18.4724729,13.7069987 C18.2594753,14.3106413 18.0935662,14.8843888 17.8391362,15.8552249 C16.8065926,19.7951318 16.152033,21.5117589 14.1550696,24.5136511 C12.8446705,26.4834804 11.0319097,27.2831244 8.55039684,27.3701853 C7.88896901,27.3933906 7.32897837,27.3742396 6.24139841,27.3095421 C5.35112636,27.2565819 5.04081083,27.2420849 4.58644965,27.2402162 L0.223647803,26.8619521 L0.552800806,26.2037521 C1.53821288,24.2332452 2.44811857,22.2237416 3.54835953,19.6415005 C3.49250659,19.7725861 5.57111649,14.8327443 6.13741781,13.5456392 C9.81522754,5.18661267 12.8869403,1.63432605 18.3457878,1.12123221 C24.3480034,0.557065528 31.6014196,0.561072545 34.743308,1.80631428 C37.4112823,2.86372706 38.4743892,4.53487471 39.5395139,8.42464405 C39.4823647,8.21593856 40.2691893,11.1851509 40.5373882,12.1029364 C40.9904469,13.6533182 41.4751112,15.0521546 42.0754785,16.4762783 C42.2722031,16.942926 42.392338,17.4797487 42.5424343,18.4067899 C42.55741,18.499284 42.5728758,18.5962948 42.6025638,18.782901 C42.7380425,19.6317453 42.8212755,20.0311933 42.94285,20.3335661 C43.1987351,19.6525981 43.4451225,18.8028286 43.7347238,17.687425 C43.8309362,17.3168613 43.9291499,16.9287306 44.062074,16.3962046 C44.1451473,16.0629613 44.1451473,16.0629613 44.2293553,15.7246861 C44.2984884,15.4471264 44.349638,15.2423924 44.4006502,15.0393635 C44.685258,13.9066225 44.9105673,13.0512215 45.1507458,12.211079 C45.6540762,10.4504333 46.1692337,8.96546545 46.7629975,7.6369057 C46.8769457,7.38194405 46.9914742,7.10672162 47.1403164,6.73457529 C47.1646141,6.67382434 47.4308505,6.00222098 47.5119262,5.80152912 C48.5152822,3.31785714 49.3756455,2.0717037 50.9267475,1.53915806 C52.7004455,0.93018771 54.9022135,0.621568915 57.5866756,0.529983204 C59.1711751,0.475924885 60.6053735,0.493827364 63.0122387,0.569102088 C65.0366148,0.632414462 65.4427228,0.642535349 66.1463697,0.636876494 L66.9253103,0.630612111 L66.6066354,1.34141033 C66.4683512,1.64985056 65.7921591,3.20584459 65.6226376,3.59064831 C65.1174258,4.73744915 64.6443239,5.77272316 64.1299089,6.84197001 C62.7350586,9.74126139 61.2415094,12.4529176 59.5641595,15.0114591 C57.0211506,18.8904315 54.2251883,22.1465326 51.1310935,24.6268387 C48.7698141,26.519701 46.1302014,27.1811967 42.2539667,27.250091 C41.6391628,27.2610182 41.1452894,27.2597702 40.0550647,27.2495634 C39.2983281,27.2424787 38.9701128,27.2404766 38.5595713,27.2420811 C38.382257,27.2427741 38.1981291,27.244198 37.966049,27.2465189 C37.8235746,27.2479776 37.8235746,27.2479776 37.6808932,27.2495065 C32.135938,27.3089319 29.8926813,26.6861877 28.1772271,23.4452301 C26.7202887,20.6926788 25.9962861,18.3930189 24.7008056,13.1638804 C24.0037279,10.3502217 23.6098322,8.87799176 23.1173332,7.40999211 C22.9080886,7.6170548 22.6948887,7.82147978 22.4646639,8.03712224 Z" id="Path-2" fill="#14559A" fill-rule="nonzero"></path>
                </g>
            </g>
        </g>
    </g>
</svg>