<?xml version="1.0" encoding="UTF-8"?>
<svg width="144px" height="126px" viewBox="0 0 144 126" version="1.1" xmlns="http://www.w3.org/2000/svg" xmlns:xlink="http://www.w3.org/1999/xlink">
    <!-- Generator: Sketch 47.1 (45422) - http://www.bohemiancoding.com/sketch -->
    <title>Erlang_logo</title>
    <desc>Created with Sketch.</desc>
    <defs></defs>
    <g id="Symbols" stroke="none" stroke-width="1" fill="none" fill-rule="evenodd">
        <g id="Erlang_logo" fill-rule="nonzero">
            <g>
                <g id="g8" fill="#A90533">
                    <path d="M22.5204901,90.7967982 C11.3777778,79.0229877 4.85827354,62.7574232 4.87479573,43.3503312 C4.85940006,26.187242 10.2674116,11.4347811 19.5645209,0.209146712 L19.5494987,0.214763303 L0.00825931259,0.214763303 L0.00825931259,90.7986714 L22.5065944,90.7986714 L22.5204907,90.7968986 L22.5204907,90.7968986 L22.5204901,90.7967982 Z" id="path10"></path>
                    <path d="M125.43568,90.804285 C130.235751,85.677865 134.536776,79.6404345 138.434133,72.7358095 L116.80509,61.9520082 C109.209019,74.2661341 98.1004741,85.6007277 82.7393481,85.6763641 C60.382957,85.6007277 51.5991609,66.5381186 51.6476012,42.0019819 L135.189778,42.0019819 C135.301304,39.231894 135.301304,37.9438292 135.189778,36.610457 C135.73501,22.0130135 131.855301,9.74307277 124.797701,0.187803779 L124.761256,0.215137697 L143.571016,0.215137697 L143.571016,90.7990436 L125.394732,90.7990436 L125.43568,90.8043618 L125.43568,90.8043618 L125.43568,90.804285 Z" id="path12"></path>
                    <path d="M52.999792,20.9735754 C53.9246584,9.86476518 62.708077,2.39398918 73.0066548,2.37152293 C83.3754548,2.3939893 90.8671407,9.86476518 91.1209778,20.9735754 L52.999792,20.9735754 L52.999792,20.9735754 Z" id="path14"></path>
                </g>
                <g id="g16" transform="translate(0.000000, 102.000000)" fill="#000000">
                    <polygon id="path18" points="11.9200468 4.45369756 11.9200468 0.715145561 0.279361406 0.715145561 0.279361406 22.8816176 11.9200468 22.8816176 11.9200468 19.1423233 4.6107792 19.1423233 4.6107792 13.2672439 11.6489568 13.2672439 11.6489568 9.52832137 4.6107792 9.52832137 4.6107792 4.45369756"></polygon>
                    <path d="M31.6821401,13.5339366 C34.5840397,13.1088615 36.1774899,10.2720263 36.2842717,7.39142341 C36.1774899,2.67882439 33.0808273,0.72887122 28.7042903,0.71477561 L22.7485913,0.71477561 L22.7485913,22.8812474 L27.0800091,22.8812474 L27.0800091,14.0680716 L32.494281,22.8812474 L37.9085536,22.8812474 L31.6821401,13.5339399 L31.6821401,13.5339399 L31.6821401,13.5339366 Z M27.0796329,4.18700025 L27.62106,4.18700025 C29.984164,4.2745385 31.7577147,4.80644482 31.6817645,7.65885717 C31.7577147,10.272394 30.0443231,10.9816027 27.62106,10.8636486 L27.0796329,10.8636486 L27.0796329,4.18700025 L27.0796329,4.18700025 Z" id="path20"></path>
                    <polygon id="path22" points="51.4438578 0.715141463 47.1128162 0.715141463 47.1128162 22.8816135 57.6702706 22.8816135 57.6702706 19.1423192 51.4438578 19.1423192 51.4438578 0.715141463 51.4438578 0.715141463"></polygon>
                    <path d="M79.8687872,18.3411237 L81.7637805,22.8812441 L86.3659121,22.8812441 L77.9737939,0.180640425 L74.4545165,0.180640425 L65.5209683,22.8812441 L70.1227201,22.8812441 L72.0180932,18.3411237 L79.8687872,18.3411237 L79.8687872,18.3411237 Z M78.7859331,14.8696373 L73.3716623,14.8696373 L75.8080856,6.59059376 L78.7859331,14.8696373 L78.7859331,14.8696373 L78.7859331,14.8696373 Z" id="path24"></path>
                    <polygon id="path26" points="94.487695 22.8816176 99.0894528 22.8816176 99.0894528 7.92592566 111.001228 23.4153781 114.249417 23.4153781 114.249417 0.715145561 109.647659 0.715145561 109.647659 15.6708375 97.7358837 0.180642767 94.487695 0.180642767"></polygon>
                    <path d="M133.199741,11.1303454 L133.199741,14.6022023 L138.072588,14.6022023 C137.97107,17.3922995 135.656469,19.7562035 132.929032,19.676455 C128.621676,19.7562035 126.487173,15.649694 126.431901,11.9315426 C126.487203,8.2630958 128.591599,3.97891311 132.929032,3.91956515 C135.205284,3.97854222 137.129601,5.51491311 138.072588,7.39142224 L141.86258,5.52196068 C140.195812,2.05826312 136.828808,0.137613366 132.929032,0.180637756 C126.216458,0.137964585 121.917753,5.60393532 121.82977,11.9315412 C121.917753,18.1015062 126.096522,23.5971293 132.658317,23.6824422 C139.745,23.5971293 143.021759,18.0128549 142.945435,11.6644756 L142.945435,11.1303439 L133.199741,11.1303439 L133.199741,11.1303439 L133.199741,11.1303439 L133.199741,11.1303454 Z" id="path28"></path>
                </g>
            </g>
        </g>
    </g>
</svg>