<?xml version="1.0" encoding="UTF-8"?>
<svg width="152px" height="104px" viewBox="0 0 152 104" version="1.1" xmlns="http://www.w3.org/2000/svg" xmlns:xlink="http://www.w3.org/1999/xlink">
    <!-- Generator: Sketch 47.1 (45422) - http://www.bohemiancoding.com/sketch -->
    <title>ethereum</title>
    <desc>Created with Sketch.</desc>
    <defs></defs>
    <g id="Symbols" stroke="none" stroke-width="1" fill="none" fill-rule="evenodd">
        <g id="ethereum" fill-rule="nonzero">
            <g>
                <path d="M13.7189744,96.6361488 C13.7189744,96.966332 13.438359,97.2350856 13.1031795,97.2350856 L1.23938462,97.2350856 C1.53558974,100.122268 3.74153846,102.756054 6.84389744,102.756054 C8.96410256,102.756054 10.5386667,101.957472 11.7234872,100.291199 C11.8949744,100.060839 12.1522051,99.9149439 12.4795897,100.05316 C12.6588718,100.129947 12.7835897,100.291199 12.8147692,100.475487 C12.8459487,100.667454 12.7913846,100.774956 12.7368205,100.882457 C11.5442051,102.932664 9.16676923,103.938571 6.83610256,103.938571 C2.84512821,103.938571 0,100.421737 0,96.6591849 C0,92.8966332 2.84512821,89.3797992 6.83610256,89.3797992 C10.8270769,89.3721205 13.7111795,92.8812758 13.7189744,96.6361488 L13.7189744,96.6361488 Z M12.4484103,96.0679268 C12.1911795,93.1807442 9.94625641,90.5469581 6.84389744,90.5469581 C3.74153846,90.5469581 1.53558974,93.1807442 1.23938462,96.0679268 L12.4484103,96.0679268 Z M28.1161026,89.6639102 C28.4590769,89.6639102 28.7085128,89.9556999 28.7085128,90.2474897 C28.7085128,90.5853514 28.4512821,90.8310691 28.1161026,90.8310691 L24.9357949,90.8310691 L24.9357949,103.124631 C24.9357949,103.416421 24.6785641,103.70821 24.3433846,103.70821 C24.0004103,103.70821 23.7509744,103.416421 23.7509744,103.124631 L23.7509744,90.8310691 L20.6953846,90.8310691 C20.3524103,90.8310691 20.1029744,90.5776728 20.1029744,90.2474897 C20.1029744,89.9556999 20.3602051,89.6639102 20.6953846,89.6639102 L23.7509744,89.6639102 L23.7509744,85.1642056 C23.7509744,84.8800945 23.9458462,84.6190195 24.2264615,84.5729474 C24.624,84.511518 24.9357949,84.7802717 24.9357949,85.1488482 L24.9357949,89.6639102 L28.1161026,89.6639102 Z M47.5175385,95.6072061 L47.5175385,103.055523 C47.5175385,103.393385 47.2213333,103.639102 46.9251282,103.639102 C46.5821538,103.639102 46.3327179,103.385706 46.3327179,103.055523 L46.3327179,95.6072061 C46.3327179,93.0962788 44.8906667,90.5853514 42.0455385,90.5853514 C38.3975385,90.5853514 36.8229744,93.7259303 37.0334359,96.9432959 C37.0334359,97.0277614 37.0724103,97.4040165 37.0724103,97.4424099 L37.0724103,103.032487 C37.0724103,103.316598 36.8775385,103.577673 36.5969231,103.623745 C36.1993846,103.685174 35.8875897,103.416421 35.8875897,103.047844 L35.8875897,78.5835794 C35.8875897,78.2917897 36.1448205,78 36.48,78 C36.8229744,78 37.0724103,78.2917897 37.0724103,78.5835794 L37.0724103,92.4282339 C38.0935385,90.6314235 39.9175385,89.4181926 42.0377436,89.4181926 C45.5220513,89.4181926 47.5175385,92.4282339 47.5175385,95.6072061 L47.5175385,95.6072061 Z M68.7897436,96.6361488 C68.7897436,96.966332 68.5091282,97.2350856 68.1739487,97.2350856 L56.302359,97.2350856 C56.5985641,100.122268 58.8045128,102.756054 61.9068718,102.756054 C64.0270769,102.756054 65.601641,101.957472 66.7864615,100.291199 C66.9579487,100.060839 67.2151795,99.9149439 67.5425641,100.05316 C67.7218462,100.129947 67.8465641,100.291199 67.8777436,100.475487 C67.9089231,100.667454 67.854359,100.774956 67.7997949,100.882457 C66.6071795,102.932664 64.2297436,103.938571 61.8990769,103.938571 C57.9081026,103.938571 55.0629744,100.421737 55.0629744,96.6591849 C55.0629744,92.8966332 57.9081026,89.3797992 61.8990769,89.3797992 C65.8978462,89.3721205 68.7819487,92.8812758 68.7897436,96.6361488 L68.7897436,96.6361488 Z M67.5113846,96.0679268 C67.2541538,93.1807442 65.0092308,90.5469581 61.9068718,90.5469581 C58.8045128,90.5469581 56.5985641,93.1807442 56.302359,96.0679268 L67.5113846,96.0679268 Z M83.3505641,90.2090963 C83.3505641,90.5853514 83.1401026,90.7926757 82.7971282,90.8387478 C79.3128205,91.3378618 77.7460513,94.1405789 77.7460513,97.4040165 L77.7460513,102.994093 C77.7460513,103.278204 77.5511795,103.539279 77.2705641,103.585351 C76.8730256,103.646781 76.5612308,103.378027 76.5612308,103.009451 L76.5612308,90.2705257 C76.5612308,89.9864146 76.7561026,89.7253396 77.0367179,89.6792676 C77.4342564,89.6178382 77.7460513,89.8865918 77.7460513,90.2551683 L77.7460513,92.8505611 C78.7204103,91.2226816 80.6769231,89.6715889 82.7113846,89.6715889 C83.0075897,89.6639102 83.3505641,89.8789132 83.3505641,90.2090963 L83.3505641,90.2090963 Z M102.837744,96.6361488 C102.837744,96.966332 102.557128,97.2350856 102.221949,97.2350856 L90.3581538,97.2350856 C90.654359,100.122268 92.8603077,102.756054 95.9626667,102.756054 C98.0828718,102.756054 99.6574359,101.957472 100.842256,100.291199 C101.013744,100.060839 101.270974,99.9149439 101.598359,100.05316 C101.777641,100.129947 101.902359,100.291199 101.933538,100.475487 C101.964718,100.667454 101.910154,100.774956 101.85559,100.882457 C100.662974,102.932664 98.2855385,103.938571 95.9548718,103.938571 C91.9638974,103.938571 89.1187692,100.421737 89.1187692,96.6591849 C89.1187692,92.8966332 91.9638974,89.3797992 95.9548718,89.3797992 C99.9458462,89.3721205 102.829949,92.8812758 102.837744,96.6361488 L102.837744,96.6361488 Z M101.567179,96.0679268 C101.309949,93.1807442 99.0650256,90.5469581 95.9626667,90.5469581 C92.8603077,90.5469581 90.654359,93.1807442 90.3581538,96.0679268 L101.567179,96.0679268 L101.567179,96.0679268 Z M121.989744,90.3549911 L121.989744,103.124631 C121.989744,103.462493 121.693538,103.70821 121.397333,103.70821 C121.054359,103.70821 120.804923,103.454814 120.804923,103.124631 L120.804923,100.698169 C119.830564,102.625517 118.084513,104 115.878564,104 C112.355282,104 110.398769,100.989959 110.398769,97.8109864 L110.398769,90.3242764 C110.398769,90.0324867 110.656,89.740697 110.991179,89.740697 C111.334154,89.740697 111.58359,90.0324867 111.58359,90.3242764 L111.58359,97.8109864 C111.58359,100.321914 113.025641,102.832841 115.870769,102.832841 C119.861744,102.832841 120.797128,99.1547549 120.797128,95.0927348 L120.797128,90.3242764 C120.797128,89.9864146 121.140103,89.6408742 121.561026,89.763733 C121.818256,89.8481985 121.989744,90.0939161 121.989744,90.3549911 L121.989744,90.3549911 Z M152,95.5611341 L152,103.047844 C152,103.385706 151.703795,103.631424 151.40759,103.631424 C151.064615,103.631424 150.815179,103.378027 150.815179,103.047844 L150.815179,95.5611341 C150.815179,93.0502067 149.373128,90.5853514 146.528,90.5853514 C142.957949,90.5853514 141.601641,94.3479031 141.601641,97.273479 L141.601641,103.047844 C141.601641,103.385706 141.305436,103.631424 141.009231,103.631424 C140.666256,103.631424 140.416821,103.378027 140.416821,103.047844 L140.416821,95.5611341 C140.416821,93.0502067 138.974769,90.5853514 136.129641,90.5853514 C132.520615,90.5853514 131.031795,93.3880685 131.164308,97.1122268 C131.164308,97.1966923 131.203282,97.3656232 131.164308,97.4040165 L131.164308,103.032487 C131.164308,103.316598 130.969436,103.577673 130.681026,103.623745 C130.283487,103.685174 129.971692,103.416421 129.971692,103.047844 L129.971692,90.2705257 C129.971692,89.9864146 130.166564,89.7253396 130.447179,89.6792676 C130.844718,89.6178382 131.156513,89.8865918 131.156513,90.2551683 L131.156513,92.3898405 C132.177641,90.5930301 134.001641,89.4181926 136.121846,89.4181926 C138.538256,89.4181926 140.409026,90.9232132 141.172923,93.1423509 C142.147282,90.9692853 144.057026,89.4181926 146.520205,89.4181926 C150.004513,89.4181926 152,92.3821618 152,95.5611341 L152,95.5611341 Z" id="Shape" fill="#3C3C3B"></path>
                <g id="Group" opacity="0.6" transform="translate(56.000000, 24.000000)" fill="#010101">
                    <polygon id="Shape" points="20 0.0314606742 0.0470588235 9.13146067 20 20.952809 39.945098 9.13146067"></polygon>
                </g>
                <g id="Group" opacity="0.45" transform="translate(56.000000, 0.000000)" fill="#010101">
                    <polygon id="Shape" points="0.0470588235 33.1492147 20 44.9528796 20 0"></polygon>
                </g>
                <g id="Group" opacity="0.8" transform="translate(76.000000, 0.000000)" fill="#010101">
                    <polygon id="Shape" points="0 0 0 44.9528796 19.945098 33.1492147"></polygon>
                </g>
                <g id="Group" opacity="0.45" transform="translate(56.000000, 36.000000)" fill="#010101">
                    <polygon id="Shape" points="0.0470588235 0.0233983287 20 27.9766017 20 11.745961"></polygon>
                </g>
                <g id="Group" opacity="0.8" transform="translate(76.000000, 36.000000)" fill="#010101">
                    <polygon id="Shape" points="0 11.745961 0 27.9766017 19.9607843 0.0233983287"></polygon>
                </g>
            </g>
        </g>
    </g>
</svg>