<?xml version="1.0" encoding="utf-8"?>
<!-- Generator: Adobe Illustrator 21.0.0, SVG Export Plug-In . SVG Version: 6.00 Build 0)  -->
<svg version="1.1" id="Layer_1" xmlns="http://www.w3.org/2000/svg" xmlns:xlink="http://www.w3.org/1999/xlink" x="0px" y="0px"
	 viewBox="0 0 13.4 272.8" style="enable-background:new 0 0 13.4 272.8;" xml:space="preserve">
<style type="text/css">
	.st0{fill:#F1737A;}
</style>
<polygon class="st0" points="13.4,31.9 12,30.4 11.9,30.5 3.3,21.9 13.4,11.9 12,10.4 11.9,10.5 1.5,0 0,1.5 10.5,11.9 1.9,20.5 
	1.5,20 0,21.5 0.5,21.9 0.4,21.9 1.9,23.4 1.9,23.3 10.5,31.9 1.9,40.5 1.5,40 0,41.5 0.5,41.9 0.4,41.9 1.9,43.4 1.9,43.3 
	10.5,51.9 1.9,60.5 1.5,60 0,61.5 0.5,61.9 0.4,61.9 1.9,63.4 1.9,63.3 10.5,71.9 1.9,80.5 1.5,80 0,81.5 0.5,81.9 0.4,81.9 
	1.9,83.4 1.9,83.3 10.5,91.9 1.9,100.5 1.5,100 0,101.4 0.5,101.9 0.4,101.9 1.9,103.4 1.9,103.3 10.5,111.9 1.9,120.5 1.5,120 
	0,121.4 0.5,121.9 0.4,121.9 1.9,123.4 1.9,123.3 10.5,131.9 1.9,140.5 1.5,140 0,141.4 0.5,141.9 0.4,141.9 1.9,143.4 1.9,143.3 
	10.5,151.9 1.9,160.5 1.5,160 0,161.4 0.5,161.9 0.4,161.9 1.9,163.4 1.9,163.3 10.5,171.9 1.9,180.5 1.5,180 0,181.4 0.5,181.9 
	0.4,181.9 1.9,183.4 1.9,183.3 10.5,191.9 1.9,200.5 1.5,200 0,201.4 0.5,201.9 0.4,201.9 1.9,203.4 1.9,203.3 10.5,211.9 
	1.9,220.5 1.5,220 0,221.4 0.5,221.9 0.4,221.9 1.9,223.4 1.9,223.3 10.5,231.9 1.9,240.5 1.5,240 0,241.4 0.5,241.9 0.4,241.9 
	1.9,243.4 1.9,243.3 10.5,251.9 1.9,260.5 1.5,260 0,261.4 0.5,261.9 0.4,261.9 1.9,263.4 1.9,263.3 11.4,272.8 12.8,271.3 
	3.3,261.9 13.4,251.9 12,250.4 11.9,250.5 3.3,241.9 13.4,231.9 12,230.4 11.9,230.5 3.3,221.9 13.4,211.9 12,210.4 11.9,210.5 
	3.3,201.9 13.4,191.9 12,190.4 11.9,190.5 3.3,181.9 13.4,171.9 12,170.4 11.9,170.5 3.3,161.9 13.4,151.9 12,150.4 11.9,150.5 
	3.3,141.9 13.4,131.9 12,130.4 11.9,130.5 3.3,121.9 13.4,111.9 12,110.4 11.9,110.5 3.3,101.9 13.4,91.9 12,90.4 11.9,90.5 
	3.3,81.9 13.4,71.9 12,70.4 11.9,70.5 3.3,61.9 13.4,51.9 12,50.4 11.9,50.5 3.3,41.9 "/>
</svg>
