<?xml version="1.0" encoding="UTF-8"?>
<svg width="59px" height="31px" viewBox="0 0 59 31" version="1.1" xmlns="http://www.w3.org/2000/svg" xmlns:xlink="http://www.w3.org/1999/xlink">
    <!-- Generator: Sketch 47.1 (45422) - http://www.bohemiancoding.com/sketch -->
    <title>iot</title>
    <desc>Created with Sketch.</desc>
    <defs></defs>
    <g id="Symbols" stroke="none" stroke-width="1" fill="none" fill-rule="evenodd">
        <g id="iot" fill="#E24A4A">
            <g id="Group">
                <path d="M6.16107724,29.9017615 L0,29.9017615 L0,0 L6.16107724,0 L6.16107724,29.9017615 Z M10.555979,18.5859163 C10.555979,16.3816088 10.9804045,14.4169294 11.8292683,12.6918191 C12.6781321,10.9667089 13.9000668,9.63182214 15.4951092,8.6871189 C17.0901517,7.74241567 18.9418791,7.27007114 21.0503472,7.27007114 C24.0487531,7.27007114 26.4960455,8.18737791 28.3922976,10.022019 C30.2885497,11.85666 31.3461908,14.3484486 31.5652524,17.4974593 L31.6063262,19.0171917 C31.6063262,22.4263382 30.6547916,25.1611446 28.7516938,27.2216929 C26.8485959,29.2822413 24.2951973,30.3125 21.0914211,30.3125 C17.8876449,30.3125 15.3308234,29.2856641 13.4208799,27.2319614 C11.5109364,25.1782587 10.555979,22.385265 10.555979,18.8528963 L10.555979,18.5859163 Z M16.4911501,19.0171917 C16.4911501,21.1256598 16.8881933,22.7377922 17.6822917,23.8536374 C18.47639,24.9694825 19.6127551,25.5273967 21.0914211,25.5273967 C22.5290129,25.5273967 23.6516869,24.9763281 24.4594766,23.8741743 C25.2672663,22.7720205 25.6711551,21.0092855 25.6711551,18.5859163 C25.6711551,16.5185223 25.2672663,14.9166582 24.4594766,13.7802761 C23.6516869,12.6438939 22.5153218,12.0757114 21.0503472,12.0757114 C19.599064,12.0757114 18.47639,12.6404711 17.6822917,13.7700076 C16.8881933,14.8995441 16.4911501,16.648588 16.4911501,19.0171917 Z M58.1605691,4.99047256 L49.0011009,4.99047256 L49.0011009,29.9017615 L42.8400237,29.9017615 L42.8400237,4.99047256 L33.8037771,4.99047256 L33.8037771,0 L58.1605691,0 L58.1605691,4.99047256 Z" id="IoT"></path>
            </g>
        </g>
    </g>
</svg>