<?xml version="1.0" encoding="UTF-8"?>
<svg width="58px" height="109px" viewBox="0 0 58 109" version="1.1" xmlns="http://www.w3.org/2000/svg" xmlns:xlink="http://www.w3.org/1999/xlink">
    <!-- Generator: Sketch 47.1 (45422) - http://www.bohemiancoding.com/sketch -->
    <title>java</title>
    <desc>Created with Sketch.</desc>
    <defs></defs>
    <g id="Symbols" stroke="none" stroke-width="1" fill="none" fill-rule="evenodd">
        <g id="java">
            <g id="Page-1">
                <path d="M36.0756383,0 C37.7602095,1.95151246 38.3162363,4.74199288 37.8320879,7.2588968 C37.3120899,10.0858541 35.7707377,12.5845196 33.9603344,14.7366548 C32.5086061,16.469306 30.8414219,18.0013345 29.1028971,19.4239324 C27.0772172,21.0836299 25.0875661,22.8709964 23.8149064,25.205516 C22.7394193,27.1023132 22.4884724,29.4368327 23.2233885,31.4977758 C24.4243491,35.036032 27.2206155,37.6623665 28.7442221,41 C27.0592924,39.48621 25.4102122,37.9177046 23.8686808,36.2580071 C22.2554502,34.5071174 20.7318435,32.6467972 19.7280556,30.4581851 C19.0469137,28.9261566 18.7421924,27.13879 19.2620112,25.5155694 C19.7818299,23.8558719 20.9469409,22.5244662 22.1120519,21.2842527 C25.3564379,17.9830961 29.3538441,15.5573843 32.5263517,12.2015125 C34.2831598,10.3594306 35.7350673,8.15258007 36.2366028,5.61743772 C36.6490521,3.75711744 36.4520587,1.84208185 36.0756383,0" id="Fill-1" fill="#E12122"></path>
                <path d="M36.0756383,0 C37.7602095,1.95151246 38.3162363,4.74199288 37.8320879,7.2588968 C37.3120899,10.0858541 35.7707377,12.5845196 33.9603344,14.7366548 C32.5086061,16.469306 30.8414219,18.0013345 29.1028971,19.4239324 C27.0772172,21.0836299 25.0875661,22.8709964 23.8149064,25.205516 C22.7394193,27.1023132 22.4884724,29.4368327 23.2233885,31.4977758 C24.4243491,35.036032 27.2206155,37.6623665 28.7442221,41 C27.0592924,39.48621 25.4102122,37.9177046 23.8686808,36.2580071 C22.2554502,34.5071174 20.7318435,32.6467972 19.7280556,30.4581851 C19.0469137,28.9261566 18.7421924,27.13879 19.2620112,25.5155694 C19.7818299,23.8558719 20.9469409,22.5244662 22.1120519,21.2842527 C25.3564379,17.9830961 29.3538441,15.5573843 32.5263517,12.2015125 C34.2831598,10.3594306 35.7350673,8.15258007 36.2366028,5.61743772 C36.6490521,3.75711744 36.4520587,1.84208185 36.0756383,0 Z" id="Stroke-3" stroke="#E12122" stroke-width="0.094"></path>
                <path d="M34.5188005,20.4054054 C37.9402332,17.8288288 41.9436622,16.1891892 46,15 C42.7902023,17.0900901 39.4393145,19 36.6702467,21.6846847 C35.6651568,22.6756757 34.7127992,23.8108108 34.2718929,25.1981982 C33.9366278,26.2252252 34.0778942,27.3603604 34.4837043,28.3333333 C35.2242505,30.0630631 36.4764243,31.4684685 37.4287819,33.0540541 C38.2400495,34.4054054 38.3811395,36.1351351 37.7638707,37.5945946 C36.8291494,39.7387387 34.9948029,41.3063063 33.0902641,42.5495495 C32.8433566,42.6936937 32.6318979,42.963964 32.3319053,43 C33.6018918,41.8288288 34.5893455,40.1711712 34.5538966,38.3873874 C34.5188005,37.0540541 33.7957142,35.8828829 32.9491741,34.9279279 C31.2030089,32.8018018 29.7393764,30.0990991 30.0391926,27.2342342 C30.3391853,24.3693694 32.3493652,22.0630631 34.5188005,20.4054054" id="Fill-5" fill="#E12122"></path>
                <path d="M34.5188005,20.4054054 C37.9402332,17.8288288 41.9436622,16.1891892 46,15 C42.7902023,17.0900901 39.4393145,19 36.6702467,21.6846847 C35.6651568,22.6756757 34.7127992,23.8108108 34.2718929,25.1981982 C33.9366278,26.2252252 34.0778942,27.3603604 34.4837043,28.3333333 C35.2242505,30.0630631 36.4764243,31.4684685 37.4287819,33.0540541 C38.2400495,34.4054054 38.3811395,36.1351351 37.7638707,37.5945946 C36.8291494,39.7387387 34.9948029,41.3063063 33.0902641,42.5495495 C32.8433566,42.6936937 32.6318979,42.963964 32.3319053,43 C33.6018918,41.8288288 34.5893455,40.1711712 34.5538966,38.3873874 C34.5188005,37.0540541 33.7957142,35.8828829 32.9491741,34.9279279 C31.2030089,32.8018018 29.7393764,30.0990991 30.0391926,27.2342342 C30.3391853,24.3693694 32.3493652,22.0630631 34.5188005,20.4054054 Z" id="Stroke-7" stroke="#E12122" stroke-width="0.094"></path>
                <path d="M46.7067558,42.4052243 C47.4772824,41.4567645 48.7065649,41.2150003 49.8262965,41.0662223 C51.7714219,40.8058608 53.844632,41.3079865 55.3126512,42.6655858 C56.524134,43.7628235 57.2029094,45.4737705 56.946006,47.1289258 C56.6707524,49.0444425 55.4044024,50.643806 53.9734507,51.8526273 C51.3860669,53.9541165 48.1931252,55.181535 45,56 C45.1835024,55.7952443 45.385355,55.6092718 45.6240916,55.4604938 C48.0461398,54.140089 50.4498377,52.5965173 52.2301779,50.4392363 C53.3128421,49.1002343 54.1569531,47.3520928 53.808115,45.585354 C53.4411102,43.5396565 51.4778181,42.0518765 49.477642,41.940293 C48.5230625,41.8473068 47.6242678,42.2192518 46.7067558,42.4052243" id="Fill-9" fill="#0C6FB6"></path>
                <path d="M46.7067558,42.4052243 C47.4772824,41.4567645 48.7065649,41.2150003 49.8262965,41.0662223 C51.7714219,40.8058608 53.844632,41.3079865 55.3126512,42.6655858 C56.524134,43.7628235 57.2029094,45.4737705 56.946006,47.1289258 C56.6707524,49.0444425 55.4044024,50.643806 53.9734507,51.8526273 C51.3860669,53.9541165 48.1931252,55.181535 45,56 C45.1835024,55.7952443 45.385355,55.6092718 45.6240916,55.4604938 C48.0461398,54.140089 50.4498377,52.5965173 52.2301779,50.4392363 C53.3128421,49.1002343 54.1569531,47.3520928 53.808115,45.585354 C53.4411102,43.5396565 51.4778181,42.0518765 49.477642,41.940293 C48.5230625,41.8473068 47.6242678,42.2192518 46.7067558,42.4052243 Z" id="Stroke-11" stroke="#0C6FB6" stroke-width="0.094"></path>
                <path d="M10.3873283,43.1166241 C13.7790114,41.8012844 17.4656233,40.952141 21.1706684,41.0020906 C19.0140004,41.5681862 16.8020332,42.0510324 14.7743966,42.9168257 C14.295137,43.1499239 13.7421452,43.3663722 13.4656493,43.8159187 C13.3181849,44.165566 13.7237122,44.3986642 14.0186411,44.5152132 C15.2720892,44.9814096 16.6545687,45.0480091 18.0001821,45.1645582 C22.7190454,45.447606 27.4563418,45.2811073 32.1569564,45.0147094 C36.8019031,44.7483114 41.4101681,44.1822158 46,43.516221 C44.9861817,43.9491177 43.9541147,44.3820143 43.0140286,44.93146 C42.5344004,45.2311577 41.9447268,45.314407 41.4101681,45.4309561 C35.7696518,46.5631473 29.981671,46.9127946 24.2305563,46.9960439 C22.0001561,47.0126938 19.7881889,46.979394 17.5762217,46.8461951 C15.1061917,46.6963463 12.6177286,46.5298476 10.2029977,45.9471021 C9.50254146,45.7639535 8.76521907,45.5641551 8.21222727,45.1146086 C7.93573137,44.9148101 7.93573137,44.5152132 8.17536115,44.2821151 C8.78365213,43.7160195 9.63157288,43.4496215 10.3873283,43.1166241" id="Fill-13" fill="#0C6FB6"></path>
                <path d="M10.3873283,43.1166241 C13.7790114,41.8012844 17.4656233,40.952141 21.1706684,41.0020906 C19.0140004,41.5681862 16.8020332,42.0510324 14.7743966,42.9168257 C14.295137,43.1499239 13.7421452,43.3663722 13.4656493,43.8159187 C13.3181849,44.165566 13.7237122,44.3986642 14.0186411,44.5152132 C15.2720892,44.9814096 16.6545687,45.0480091 18.0001821,45.1645582 C22.7190454,45.447606 27.4563418,45.2811073 32.1569564,45.0147094 C36.8019031,44.7483114 41.4101681,44.1822158 46,43.516221 C44.9861817,43.9491177 43.9541147,44.3820143 43.0140286,44.93146 C42.5344004,45.2311577 41.9447268,45.314407 41.4101681,45.4309561 C35.7696518,46.5631473 29.981671,46.9127946 24.2305563,46.9960439 C22.0001561,47.0126938 19.7881889,46.979394 17.5762217,46.8461951 C15.1061917,46.6963463 12.6177286,46.5298476 10.2029977,45.9471021 C9.50254146,45.7639535 8.76521907,45.5641551 8.21222727,45.1146086 C7.93573137,44.9148101 7.93573137,44.5152132 8.17536115,44.2821151 C8.78365213,43.7160195 9.63157288,43.4496215 10.3873283,43.1166241 Z" id="Stroke-15" stroke="#0C6FB6" stroke-width="0.094"></path>
                <path d="M14.7167583,50.5611295 C15.6723912,49.8168701 16.8117996,49.3993587 17.9512081,49 C17.583657,49.435664 17.0690854,49.8531754 17.0323303,50.4522135 C17.0139528,50.8334195 17.3263712,51.1238622 17.6387896,51.3053889 C18.245249,51.6139843 18.9252185,51.7229003 19.6051881,51.8136637 C23.1336787,52.176717 26.6989245,52.3763964 30.2641703,52.1404117 C33.5168138,51.9770377 36.7516311,51.4506103 39.9677033,50.8878775 C40.8496422,51.7047476 41.8973467,52.2674804 43,52.7576024 C39.1219682,53.8828864 35.1342225,54.536564 31.1277316,54.8451593 C27.3421389,55.0992967 23.5012298,55.081144 19.733831,54.482106 C18.245249,54.2098159 16.7199119,53.9012206 15.3599728,53.2114191 C14.8086461,52.9209764 14.1838092,52.5397704 14.0184112,51.904427 C13.9081459,51.3598469 14.3124521,50.8697249 14.7167583,50.5611295" id="Fill-17" fill="#0C6FB6"></path>
                <path d="M14.7167583,50.5611295 C15.6723912,49.8168701 16.8117996,49.3993587 17.9512081,49 C17.583657,49.435664 17.0690854,49.8531754 17.0323303,50.4522135 C17.0139528,50.8334195 17.3263712,51.1238622 17.6387896,51.3053889 C18.245249,51.6139843 18.9252185,51.7229003 19.6051881,51.8136637 C23.1336787,52.176717 26.6989245,52.3763964 30.2641703,52.1404117 C33.5168138,51.9770377 36.7516311,51.4506103 39.9677033,50.8878775 C40.8496422,51.7047476 41.8973467,52.2674804 43,52.7576024 C39.1219682,53.8828864 35.1342225,54.536564 31.1277316,54.8451593 C27.3421389,55.0992967 23.5012298,55.081144 19.733831,54.482106 C18.245249,54.2098159 16.7199119,53.9012206 15.3599728,53.2114191 C14.8086461,52.9209764 14.1838092,52.5397704 14.0184112,51.904427 C13.9081459,51.3598469 14.3124521,50.8697249 14.7167583,50.5611295 Z" id="Stroke-19" stroke="#0C6FB6" stroke-width="0.094"></path>
                <path d="M16.625289,59.2828335 C17.4886362,58.6235996 18.5584359,58.284896 19.6094672,58 C19.2716357,58.3028913 18.6710464,58.677051 18.9338042,59.1937479 C19.4405515,59.8173475 20.3789723,59.8884379 21.1297089,60.0489703 C24.3015713,60.4229519 27.5109704,60.6725699 30.6828327,60.4409472 C33.0850023,60.2984101 35.4501981,59.8884379 37.7962502,59.4966391 C39.1473884,60.2447805 40.5550196,60.8863755 42,61.4565237 C39.7855146,62.4008318 37.401738,63.0064361 35.0183369,63.4342254 C31.0018958,64.1112765 26.8540759,64.2003622 22.8188664,63.5945796 C21.0358668,63.2916884 19.2153305,62.8997115 17.6012467,62.0623062 C16.981889,61.7237807 16.3249944,61.3318038 16.0622366,60.6725699 C15.855784,60.1556949 16.1936155,59.6035419 16.625289,59.2828335" id="Fill-21" fill="#0C6FB6"></path>
                <path d="M16.625289,59.2828335 C17.4886362,58.6235996 18.5584359,58.284896 19.6094672,58 C19.2716357,58.3028913 18.6710464,58.677051 18.9338042,59.1937479 C19.4405515,59.8173475 20.3789723,59.8884379 21.1297089,60.0489703 C24.3015713,60.4229519 27.5109704,60.6725699 30.6828327,60.4409472 C33.0850023,60.2984101 35.4501981,59.8884379 37.7962502,59.4966391 C39.1473884,60.2447805 40.5550196,60.8863755 42,61.4565237 C39.7855146,62.4008318 37.401738,63.0064361 35.0183369,63.4342254 C31.0018958,64.1112765 26.8540759,64.2003622 22.8188664,63.5945796 C21.0358668,63.2916884 19.2153305,62.8997115 17.6012467,62.0623062 C16.981889,61.7237807 16.3249944,61.3318038 16.0622366,60.6725699 C15.855784,60.1556949 16.1936155,59.6035419 16.625289,59.2828335 Z" id="Stroke-23" stroke="#0C6FB6" stroke-width="0.094"></path>
                <path d="M6.76889305,63.9492714 C8.47968079,63.4522297 10.2462551,63.0513896 12.0500204,63.0032887 C12.7752456,62.9872551 13.5190664,63.0193223 14.151314,63.3399944 C11.9942339,63.4522297 9.83715367,63.9172042 7.9032197,64.7669852 C7.47552277,64.9754221 6.99203928,65.2159262 6.82467961,65.6488335 C6.82467961,66.1458752 7.47552277,66.3062113 7.9032197,66.4665473 C10.5995699,67.332362 13.4818754,67.6049333 16.3083942,67.8614709 C24.7321643,68.4707479 33.2115349,68.3104119 41.635491,67.6530341 C44.8153247,67.3483956 48.0139399,67.0437571 51.1006101,66.2901777 C52.0859866,66.0015728 53.2017177,65.7129679 53.8525609,64.9593885 C54.2434387,64.5104476 53.9829155,63.9492714 53.5925956,63.5644649 C54.2244713,63.8691034 55.1172421,64.2539099 54.9872595,64.9914557 C54.7453318,65.7610687 53.8341513,66.1619089 53.0903306,66.5306818 C50.7102901,67.5728661 48.0879501,68.101975 45.4845774,68.5669495 C37.9163872,69.8496379 30.1620558,70.1382428 22.463511,69.9458395 C16.6617091,69.7694699 10.8599072,69.2884617 5.13248739,68.4386807 C4.10973385,68.2302438 2.95681168,68.0538742 2.21299092,67.3644292 C1.72950743,66.8834211 2.15720437,66.2100097 2.62209234,65.8572704 C3.79361003,64.9273213 5.29984706,64.4142459 6.76889305,63.9492714" id="Fill-25" fill="#0C6FB6"></path>
                <path d="M6.76889305,63.9492714 C8.47968079,63.4522297 10.2462551,63.0513896 12.0500204,63.0032887 C12.7752456,62.9872551 13.5190664,63.0193223 14.151314,63.3399944 C11.9942339,63.4522297 9.83715367,63.9172042 7.9032197,64.7669852 C7.47552277,64.9754221 6.99203928,65.2159262 6.82467961,65.6488335 C6.82467961,66.1458752 7.47552277,66.3062113 7.9032197,66.4665473 C10.5995699,67.332362 13.4818754,67.6049333 16.3083942,67.8614709 C24.7321643,68.4707479 33.2115349,68.3104119 41.635491,67.6530341 C44.8153247,67.3483956 48.0139399,67.0437571 51.1006101,66.2901777 C52.0859866,66.0015728 53.2017177,65.7129679 53.8525609,64.9593885 C54.2434387,64.5104476 53.9829155,63.9492714 53.5925956,63.5644649 C54.2244713,63.8691034 55.1172421,64.2539099 54.9872595,64.9914557 C54.7453318,65.7610687 53.8341513,66.1619089 53.0903306,66.5306818 C50.7102901,67.5728661 48.0879501,68.101975 45.4845774,68.5669495 C37.9163872,69.8496379 30.1620558,70.1382428 22.463511,69.9458395 C16.6617091,69.7694699 10.8599072,69.2884617 5.13248739,68.4386807 C4.10973385,68.2302438 2.95681168,68.0538742 2.21299092,67.3644292 C1.72950743,66.8834211 2.15720437,66.2100097 2.62209234,65.8572704 C3.79361003,64.9273213 5.29984706,64.4142459 6.76889305,63.9492714 Z" id="Stroke-27" stroke="#0C6FB6" stroke-width="0.094"></path>
                <path d="M51.8529797,69.7755486 C53.6837966,69.136442 55.6407517,68.4608151 57,67 C56.7647594,68.5886364 55.4055111,69.6842477 54.0642048,70.3962124 C51.4905135,71.747649 48.6092695,72.3684954 45.7456051,72.8797807 C39.692238,73.8475706 33.5484356,74.0849531 27.4048144,73.975392 C23.2183295,73.8475706 18.995598,73.6830463 14.8816065,72.8067399 C13.9029477,72.5328371 12.8517956,72.3502352 12,71.7657266 C15.6609088,72.3867556 19.3761876,72.6423982 23.0914663,72.7884797 C29.1990221,72.9710816 35.3247013,72.7336991 41.3960105,71.9667712 C44.9119328,71.4737461 48.4459784,70.8711599 51.8529797,69.7755486" id="Fill-29" fill="#0C6FB6"></path>
                <path d="M51.8529797,69.7755486 C53.6837966,69.136442 55.6407517,68.4608151 57,67 C56.7647594,68.5886364 55.4055111,69.6842477 54.0642048,70.3962124 C51.4905135,71.747649 48.6092695,72.3684954 45.7456051,72.8797807 C39.692238,73.8475706 33.5484356,74.0849531 27.4048144,73.975392 C23.2183295,73.8475706 18.995598,73.6830463 14.8816065,72.8067399 C13.9029477,72.5328371 12.8517956,72.3502352 12,71.7657266 C15.6609088,72.3867556 19.3761876,72.6423982 23.0914663,72.7884797 C29.1990221,72.9710816 35.3247013,72.7336991 41.3960105,71.9667712 C44.9119328,71.4737461 48.4459784,70.8711599 51.8529797,69.7755486 Z" id="Stroke-31" stroke="#0C6FB6" stroke-width="0.094"></path>
                <path d="M3.98039216,97.2972136 C4,91.2043344 3.96078431,85.1114551 4,79 C5.33333333,79.0371517 6.66666667,79 8,79.0371517 C7.98039216,85.8544892 8,92.6904025 7.98039216,99.5263158 C7.94117647,101.439628 7.90196078,103.44582 6.92156863,105.154799 C5.84313725,106.975232 3.92156863,108.256966 1.88235294,109 C1.23529412,108.331269 0.647058824,107.625387 0,106.956656 C1.64705882,106.04644 3.29411765,104.74613 3.68627451,102.869969 C4.05882353,101.03096 3.94117647,99.1547988 3.98039216,97.2972136" id="Fill-33" fill="#E12122"></path>
                <path d="M3.98039216,97.2972136 C4,91.2043344 3.96078431,85.1114551 4,79 C5.33333333,79.0371517 6.66666667,79 8,79.0371517 C7.98039216,85.8544892 8,92.6904025 7.98039216,99.5263158 C7.94117647,101.439628 7.90196078,103.44582 6.92156863,105.154799 C5.84313725,106.975232 3.92156863,108.256966 1.88235294,109 C1.23529412,108.331269 0.647058824,107.625387 0,106.956656 C1.64705882,106.04644 3.29411765,104.74613 3.68627451,102.869969 C4.05882353,101.03096 3.94117647,99.1547988 3.98039216,97.2972136 Z" id="Stroke-35" stroke="#E12122" stroke-width="0.094"></path>
                <path d="M15.6281554,94.9628129 C14.7967277,95.2207902 14.0219884,95.8110583 13.7952354,96.6591192 C13.5306902,97.5997495 13.6062745,98.7061565 14.2298453,99.4990815 C14.8345199,100.273566 15.9304927,100.457968 16.8752968,100.347142 C18.1980226,100.199622 19.3506836,99.4620169 20.3710721,98.6692763 C20.3710721,97.2862676 20.352176,95.9215146 20.3710721,94.5385059 C18.7838012,94.5385059 17.1587381,94.4463053 15.6281554,94.9628129 M10.9419269,86.406599 C13.4928981,85.3370723 16.3273104,84.7838688 19.1050346,85.0787263 C20.5411368,85.2448717 22.0339273,85.761195 22.9598354,86.8858577 C23.7345748,87.8447437 24.018016,89.0804159 23.9991199,90.2790234 L23.9991199,102.652157 L21.1458115,102.652157 C21.0513311,102.043633 20.9568506,101.416854 20.8812663,100.78989 C19.8041896,101.619695 18.6515286,102.412435 17.3099067,102.744358 C15.779324,103.131784 14.0975727,103.094904 12.6047822,102.523261 C11.4521211,102.062258 10.5451092,101.048051 10.2238758,99.8678838 C9.75147372,98.152953 9.99712279,96.142796 11.2442642,94.7597873 C12.3591331,93.4876036 14.0408844,92.8606397 15.7037397,92.5655978 C17.2343224,92.2703716 18.8026972,92.2703716 20.3710721,92.2703716 C20.3332799,91.1088287 20.5600329,89.8362763 19.8797739,88.8038141 C19.3317875,88.0108892 18.3302952,87.6974072 17.4043871,87.6420868 C15.3825063,87.4759414 13.3795216,87.9740089 11.4710172,88.619413 C11.2820564,87.8818083 11.1119917,87.1442037 10.9419269,86.406599" id="Fill-37" fill="#E12122"></path>
                <path d="M15.6281554,94.9628129 C14.7967277,95.2207902 14.0219884,95.8110583 13.7952354,96.6591192 C13.5306902,97.5997495 13.6062745,98.7061565 14.2298453,99.4990815 C14.8345199,100.273566 15.9304927,100.457968 16.8752968,100.347142 C18.1980226,100.199622 19.3506836,99.4620169 20.3710721,98.6692763 C20.3710721,97.2862676 20.352176,95.9215146 20.3710721,94.5385059 C18.7838012,94.5385059 17.1587381,94.4463053 15.6281554,94.9628129 Z M10.9419269,86.406599 C13.4928981,85.3370723 16.3273104,84.7838688 19.1050346,85.0787263 C20.5411368,85.2448717 22.0339273,85.761195 22.9598354,86.8858577 C23.7345748,87.8447437 24.018016,89.0804159 23.9991199,90.2790234 L23.9991199,102.652157 L21.1458115,102.652157 C21.0513311,102.043633 20.9568506,101.416854 20.8812663,100.78989 C19.8041896,101.619695 18.6515286,102.412435 17.3099067,102.744358 C15.779324,103.131784 14.0975727,103.094904 12.6047822,102.523261 C11.4521211,102.062258 10.5451092,101.048051 10.2238758,99.8678838 C9.75147372,98.152953 9.99712279,96.142796 11.2442642,94.7597873 C12.3591331,93.4876036 14.0408844,92.8606397 15.7037397,92.5655978 C17.2343224,92.2703716 18.8026972,92.2703716 20.3710721,92.2703716 C20.3332799,91.1088287 20.5600329,89.8362763 19.8797739,88.8038141 C19.3317875,88.0108892 18.3302952,87.6974072 17.4043871,87.6420868 C15.3825063,87.4759414 13.3795216,87.9740089 11.4710172,88.619413 C11.2820564,87.8818083 11.1119917,87.1442037 10.9419269,86.406599 L10.9419269,86.406599 Z" id="Stroke-39" stroke="#E12122" stroke-width="0.094"></path>
                <path d="M47.5595526,94.9900058 C46.7663715,95.2482219 46.0302104,95.8384302 45.7847604,96.6499667 C45.5202408,97.5906111 45.5959527,98.6972517 46.1999485,99.5087881 C46.8232026,100.301881 47.9371679,100.467877 48.9000871,100.357213 C50.20286,100.172772 51.3921596,99.4719001 52.3741483,98.6234757 C52.336198,97.277063 52.3552676,95.9122063 52.3552676,94.5473496 C50.7504023,94.5473496 49.1075867,94.4551295 47.5595526,94.9900058 M42.9337645,86.4135414 C45.5015489,85.3437888 48.333664,84.7720245 51.1280177,85.0855727 C52.5250057,85.2515688 53.9601328,85.749557 54.8851016,86.8193096 C55.7538058,87.8337301 56.0179477,89.1801428 55.9990669,90.4712235 C55.980375,94.5473496 56.0179477,98.6050317 55.9614942,102.681158 C55.0174558,102.64427 54.0734174,102.699602 53.129379,102.64427 C53.0349752,102.017173 52.9594521,101.408521 52.8461675,100.799869 C51.5245138,101.906509 49.9385293,102.810266 48.1448564,102.957818 C46.5022296,103.10537 44.6519143,102.902486 43.3678333,101.758957 C42.0272988,100.541653 41.8009184,98.5681436 42.1405834,96.8897388 C42.4617453,95.340442 43.6510448,94.0678053 45.086172,93.385377 C47.3327945,92.3156244 49.9007678,92.2602924 52.3552676,92.2787364 C52.3173172,91.1536518 52.5250057,89.9547912 51.9397019,88.9403707 C51.4865634,88.1288343 50.5236443,87.7599541 49.6175562,87.667734 C47.5216022,87.4464059 45.425837,87.9628382 43.4622372,88.6268225 C43.2924991,87.8890621 43.1036914,87.1513018 42.9337645,86.4135414" id="Fill-41" fill="#E12122"></path>
                <path d="M47.5595526,94.9900058 C46.7663715,95.2482219 46.0302104,95.8384302 45.7847604,96.6499667 C45.5202408,97.5906111 45.5959527,98.6972517 46.1999485,99.5087881 C46.8232026,100.301881 47.9371679,100.467877 48.9000871,100.357213 C50.20286,100.172772 51.3921596,99.4719001 52.3741483,98.6234757 C52.336198,97.277063 52.3552676,95.9122063 52.3552676,94.5473496 C50.7504023,94.5473496 49.1075867,94.4551295 47.5595526,94.9900058 Z M42.9337645,86.4135414 C45.5015489,85.3437888 48.333664,84.7720245 51.1280177,85.0855727 C52.5250057,85.2515688 53.9601328,85.749557 54.8851016,86.8193096 C55.7538058,87.8337301 56.0179477,89.1801428 55.9990669,90.4712235 C55.980375,94.5473496 56.0179477,98.6050317 55.9614942,102.681158 C55.0174558,102.64427 54.0734174,102.699602 53.129379,102.64427 C53.0349752,102.017173 52.9594521,101.408521 52.8461675,100.799869 C51.5245138,101.906509 49.9385293,102.810266 48.1448564,102.957818 C46.5022296,103.10537 44.6519143,102.902486 43.3678333,101.758957 C42.0272988,100.541653 41.8009184,98.5681436 42.1405834,96.8897388 C42.4617453,95.340442 43.6510448,94.0678053 45.086172,93.385377 C47.3327945,92.3156244 49.9007678,92.2602924 52.3552676,92.2787364 C52.3173172,91.1536518 52.5250057,89.9547912 51.9397019,88.9403707 C51.4865634,88.1288343 50.5236443,87.7599541 49.6175562,87.667734 C47.5216022,87.4464059 45.425837,87.9628382 43.4622372,88.6268225 C43.2924991,87.8890621 43.1036914,87.1513018 42.9337645,86.4135414 L42.9337645,86.4135414 Z" id="Stroke-43" stroke="#E12122" stroke-width="0.094"></path>
                <path d="M26,85 L29.8368311,85 C30.585744,87.3846971 31.316569,89.7513284 32.06603,92.1360255 C32.5041596,93.5993624 33.0522783,95.0446334 33.3630617,96.544102 C33.52768,97.2125399 33.6736623,97.8990436 33.8744564,98.5494155 C35.4460956,94.1594049 36.6517741,89.6248672 37.273158,85 L41,85 C39.9223986,90.8533475 38.2230478,96.6163656 35.6651604,102 L31.2802105,102 C29.5262305,96.3273114 27.75398,90.6726886 26,85" id="Fill-45" fill="#E12122"></path>
                <path d="M26,85 L29.8368311,85 C30.585744,87.3846971 31.316569,89.7513284 32.06603,92.1360255 C32.5041596,93.5993624 33.0522783,95.0446334 33.3630617,96.544102 C33.52768,97.2125399 33.6736623,97.8990436 33.8744564,98.5494155 C35.4460956,94.1594049 36.6517741,89.6248672 37.273158,85 L41,85 C39.9223986,90.8533475 38.2230478,96.6163656 35.6651604,102 L31.2802105,102 C29.5262305,96.3273114 27.75398,90.6726886 26,85 Z" id="Stroke-47" stroke="#E12122" stroke-width="0.094"></path>
                <polygon id="Fill-49" fill="#E12122" points="56.410762 85.1098602 56 85.1098602 56 85 57 85 57 85.1098602 56.5872326 85.1098602 56.5872326 86 56.410762 86"></polygon>
                <polygon id="Stroke-51" stroke="#E12122" stroke-width="0.094" points="56.410762 85.1098602 56 85.1098602 56 85 57 85 57 85.1098602 56.5872326 85.1098602 56.5872326 86 56.410762 86"></polygon>
                <path d="M57.8516723,85.5608066 C57.8444014,85.4212545 57.8356762,85.2521341 57.8356762,85.1290362 L57.8327678,85.1290362 C57.7979884,85.2447111 57.758604,85.3709019 57.7092826,85.5088457 L57.5362336,85.9940616 L57.4403781,85.9940616 L57.2805381,85.5177533 C57.2340039,85.3753557 57.1961949,85.2476803 57.1685652,85.1290362 L57.1656568,85.1290362 C57.1627484,85.2537424 57.1554775,85.4197699 57.1468735,85.5711988 L57.120698,86 L57,86 L57.0683471,85 L57.2296413,85 L57.3967523,85.4836076 C57.4374697,85.6067054 57.4694619,85.7165656 57.4956374,85.8204874 L57.4985458,85.8204874 C57.5247213,85.7195348 57.5596219,85.6097983 57.6031265,85.4836076 L57.7776297,85 L57.9389239,85 L58,86 L57.8749394,86 L57.8516723,85.5608066 Z" id="Fill-53" fill="#E12122"></path>
                <path d="M57.8516723,85.5608066 C57.8444014,85.4212545 57.8356762,85.2521341 57.8356762,85.1290362 L57.8327678,85.1290362 C57.7979884,85.2447111 57.758604,85.3709019 57.7092826,85.5088457 L57.5362336,85.9940616 L57.4403781,85.9940616 L57.2805381,85.5177533 C57.2340039,85.3753557 57.1961949,85.2476803 57.1685652,85.1290362 L57.1656568,85.1290362 C57.1627484,85.2537424 57.1554775,85.4197699 57.1468735,85.5711988 L57.120698,86 L57,86 L57.0683471,85 L57.2296413,85 L57.3967523,85.4836076 C57.4374697,85.6067054 57.4694619,85.7165656 57.4956374,85.8204874 L57.4985458,85.8204874 C57.5247213,85.7195348 57.5596219,85.6097983 57.6031265,85.4836076 L57.7776297,85 L57.9389239,85 L58,86 L57.8749394,86 L57.8516723,85.5608066 Z" id="Stroke-55" stroke="#E12122" stroke-width="0.094"></path>
            </g>
        </g>
    </g>
</svg>