<?xml version="1.0" encoding="UTF-8"?>
<svg width="128px" height="103px" viewBox="0 0 128 103" version="1.1" xmlns="http://www.w3.org/2000/svg" xmlns:xlink="http://www.w3.org/1999/xlink">
    <!-- Generator: Sketch 47.1 (45422) - http://www.bohemiancoding.com/sketch -->
    <title>microsoft-sql-server</title>
    <desc>Created with Sketch.</desc>
    <defs>
        <linearGradient x1="25.8951071%" y1="81.4467075%" x2="38.3411716%" y2="73.4213015%" id="linearGradient-1">
            <stop stop-color="#909CA9" offset="0%"></stop>
            <stop stop-color="#EDEDEE" offset="100%"></stop>
        </linearGradient>
        <linearGradient x1="0.167947727%" y1="49.8457052%" x2="18.5944843%" y2="49.8457052%" id="linearGradient-2">
            <stop stop-color="#939FAB" offset="0%"></stop>
            <stop stop-color="#DCDEE1" offset="100%"></stop>
        </linearGradient>
        <radialGradient cx="44.3461988%" cy="43.8808738%" fx="44.3461988%" fy="43.8808738%" r="74.6632083%" gradientTransform="translate(0.443462,0.438809),scale(0.687085,1.000000),translate(-0.443462,-0.438809)" id="radialGradient-3">
            <stop stop-color="#EE352C" offset="0%"></stop>
            <stop stop-color="#A91D22" offset="100%"></stop>
        </radialGradient>
    </defs>
    <g id="Symbols" stroke="none" stroke-width="1" fill="none" fill-rule="evenodd">
        <g id="microsoft-sql-server" fill-rule="nonzero">
            <g>
                <g id="Group" transform="translate(46.000000, 0.000000)">
                    <path d="M41.0230878,32.6664226 L26.7875916,37.2395119 L14.4029084,42.6169665 L10.9381107,43.5168619 C10.0556985,44.3426081 9.13046565,45.178947 8.12976336,46.025781 C7.03225573,46.9572594 6.0100687,47.8042399 5.22446183,48.4180823 C4.35296565,49.0956276 3.06174809,50.3658787 2.40544656,51.1702441 C1.42622901,52.3769874 0.651538168,53.6578312 0.317954198,54.6424198 C-0.27389313,56.4208787 0.0167709924,58.2203766 1.15729771,59.8824616 C2.62064122,61.9994979 5.53666031,64.1589052 8.93670611,65.6303208 C10.6691794,66.3820642 13.5850992,67.345272 15.7800649,67.8850628 C19.4276069,68.7955021 26.4862595,69.779993 30.3705305,69.9282915 C31.1558893,69.9600209 32.2104771,69.9600209 32.2533969,69.9282915 C32.339584,69.8751813 32.9421489,68.742636 33.6416679,67.3348257 C36.0303931,62.5393863 37.7519504,58.0404463 38.688,54.1979149 C39.2474962,51.8691702 39.6886031,48.7674965 39.9790191,45.0944003 C40.0544885,44.0675384 40.0866412,40.6271897 40.0220878,39.4626709 C39.9251832,37.5572943 39.7530076,36.0118759 39.4842252,34.4980893 C39.4411565,34.2757392 39.4302405,34.0745746 39.451874,34.0640307 C39.4947939,34.0323013 39.6239008,33.9899791 41.3778092,33.4923152 L41.0228893,32.6667643 L41.0228893,32.6665202 L41.0230878,32.6665202 L41.0230878,32.6664226 Z M37.773584,34.5402162 C37.9026908,34.5402162 38.2468931,37.7899442 38.3329313,39.8437169 C38.3545649,40.2776778 38.3436489,40.5634868 38.3222137,40.5634868 C38.2362252,40.5634868 36.5037519,39.5579568 35.2665687,38.7958159 C34.1904962,38.1288633 32.1461718,36.795007 31.8234046,36.5409763 C31.715584,36.4669247 31.7263015,36.4563808 32.6087634,36.1598815 C34.1042595,35.6622664 37.6552443,34.5402162 37.773584,34.5402162 L37.773584,34.5402162 Z M30.5213206,36.8902929 C30.6182252,36.8902929 30.8655229,37.0277545 31.4573702,37.3877615 C33.6738702,38.7532985 36.6867939,40.404742 37.9779618,40.955272 C38.376,41.1246095 38.4189198,41.0610042 37.5045038,41.6750907 C35.5461679,42.9876639 33.1035076,44.2790516 30.1122176,45.5811297 C29.5850725,45.8140237 29.1439656,45.9939052 29.1332481,45.9939052 C29.111813,45.9939052 29.1761679,45.7294282 29.2621565,45.4117922 C29.9831107,42.7757601 30.3920649,40.1082427 30.4136985,37.9699233 C30.424416,36.9112831 30.424416,36.9112831 30.5213206,36.8797001 C30.499687,36.8902929 30.5104046,36.8902929 30.5213206,36.8902929 L30.5213206,36.8902929 Z M29.0257252,37.4512692 C29.0900802,37.5146792 29.0471603,39.8859902 28.9610229,40.5316597 C28.7673626,42.0772245 28.4660802,43.5168131 27.9712863,45.136576 C27.8528969,45.5279707 27.745126,45.8563459 27.7238397,45.8774338 C27.6805725,45.9302999 26.2064618,44.511848 25.7222863,43.9614156 C24.8829427,43.0086541 24.2267405,42.0559414 23.7425153,41.124463 C23.4950191,40.6480823 23.1077481,39.7166527 23.1399504,39.6848257 C23.3120763,39.5684031 28.9826565,37.4089958 29.0257252,37.4512692 Z M21.9885573,40.1717503 C21.9992748,40.1717503 22.0099924,40.1717503 22.0209084,40.1822943 C22.0423435,40.2034798 22.117813,40.3729149 22.1823664,40.5633891 C22.5265687,41.4843724 23.3011603,42.8393166 23.9684771,43.7073849 C24.7001489,44.6601464 25.6578817,45.6762692 26.4539084,46.3431729 C26.712271,46.5548815 26.9488511,46.7559484 26.9810534,46.7877755 C27.0457557,46.8513319 27.0672405,46.8406416 25.3132824,47.4970502 C23.279874,48.2591911 21.0631756,49.0213319 18.5237595,49.825795 C17.9171491,50.0181979 17.311092,50.2122852 16.7055954,50.4080544 C16.6085916,50.4398815 16.6409427,50.3868689 16.9206908,49.9529568 C18.1795573,48.0157043 20.0947748,44.2154951 21.1708473,41.5266946 C21.3537901,41.0609066 21.5366832,40.5952162 21.5690344,40.4893375 C21.6121031,40.3410391 21.6657901,40.2881729 21.8056145,40.2140237 C21.8809351,40.1930335 21.956355,40.1717503 21.9885573,40.1717503 Z M19.8367595,41.0503626 C19.8689618,41.0716457 19.3201832,42.2041911 18.7821718,43.2415969 C17.7384008,45.2422594 16.597874,47.2113389 15.0699771,49.6036402 C14.8117634,50.0164156 14.5643664,50.3976081 14.5320153,50.4399303 C14.4782786,50.5140795 14.456645,50.4927964 14.2845191,50.1647141 C13.9186832,49.4554393 13.6173015,48.545 13.4559427,47.7087099 C13.2944847,46.8829637 13.3268359,45.443424 13.5098282,44.5542678 C13.6495534,43.8980056 13.6389351,43.9085983 13.9617023,43.7497559 C15.338958,43.0617155 19.7936908,41.0080404 19.8367595,41.0503626 L19.8367595,41.0503626 Z M38.3976336,41.7914644 L38.3976336,42.2360181 C38.3976336,44.5966388 38.1394198,47.8358229 37.7626679,50.1965411 C37.6981145,50.6093166 37.6441298,50.9479428 37.6335611,50.958682 C37.6335611,50.958682 37.3215611,50.8740865 36.9557252,50.7680614 C35.3417901,50.2704951 33.5878817,49.5400837 32.0060992,48.6828033 C30.962229,48.1217294 29.4451985,47.2006485 29.4883168,47.1582775 C29.4988855,47.1477824 29.9509084,46.9148884 30.4780534,46.6396234 C32.5872786,45.5599442 34.6099695,44.395523 36.3638779,43.2416946 C37.0202786,42.807636 38.0100153,42.1091004 38.225458,41.9184798 L38.3976336,41.7914644 Z M11.7128015,44.9246234 C11.7558206,44.9246234 11.7450534,45.0093166 11.6805,45.3904114 C11.6374313,45.6657252 11.5836947,46.1738354 11.5623092,46.5230056 C11.4760229,48.0685704 11.7344351,49.2119038 12.509126,50.7785077 C12.7243206,51.2125662 12.8965954,51.5724756 12.8856794,51.5829707 C12.8103092,51.646576 5.68735115,53.7002999 3.44911832,54.3035983 C2.78204962,54.4834798 2.20111832,54.6423222 2.15785115,54.6527685 C2.08267939,54.6740516 2.0718626,54.6635077 2.1041145,54.4833821 C2.35156107,52.9274198 3.55674046,50.8949303 5.23522901,49.1799791 C6.35432061,48.0367922 7.24745038,47.3699372 8.77534733,46.512364 C9.87285496,45.8985216 11.5621603,44.9776848 11.6912672,44.9352162 C11.6913664,44.9246234 11.702084,44.9246234 11.7128015,44.9246234 L11.7128015,44.9246234 Z M28.4984313,47.8780474 C28.5091489,47.8675035 28.7673626,48.0052092 29.0793626,48.1850907 C31.3820496,49.4977615 34.5884847,50.7151464 37.3213626,51.3396304 L37.5690076,51.392643 L37.2246069,51.5829707 C35.7936145,52.3663947 31.0914847,54.2929079 26.2818817,56.0608229 C25.5823626,56.3147559 24.8938092,56.5689331 24.7645038,56.6217992 C24.6353969,56.6746653 24.5170076,56.7064923 24.5170076,56.6959484 C24.5170076,56.6852092 24.7108168,56.3147559 24.9581145,55.8596583 C26.3031183,53.3826151 27.6589885,50.3657322 28.3475916,48.269735 C28.4338779,48.0686192 28.4875153,47.8887378 28.4984313,47.8780474 L28.4984313,47.8780474 Z M26.7875916,48.4285774 C26.7985076,48.4393654 26.7123206,48.6614714 26.6046489,48.9155021 C25.6685992,51.1490586 24.4417863,53.5839261 22.8709198,56.3149512 C22.4728817,57.013682 22.1392481,57.5747559 22.1283321,57.5747559 C22.1177634,57.5747559 21.7948473,57.3840865 21.4075267,57.1512413 C19.1262748,55.7750628 17.1034847,54.0813947 15.7801145,52.4405927 L15.586355,52.2076987 L16.5654237,51.9430265 C20.0732405,51.0010042 23.0536145,49.9847838 26.0127519,48.7357183 C26.4324733,48.5662831 26.776874,48.4285774 26.7875916,48.4285774 L26.7875916,48.4285774 Z M37.4184656,52.0806346 C37.4184656,52.0806346 37.4292328,52.0912273 37.4184656,52.0806346 C37.4291832,52.3241213 36.8804046,54.5048117 36.4284313,56.0819107 C36.0518779,57.4051255 35.7289122,58.442629 35.1372634,60.2738075 C34.8790496,61.0785146 34.6532366,61.7452232 34.6423206,61.7452232 C34.6316031,61.7452232 34.5670496,61.7346792 34.5024962,61.7136402 C31.3068282,61.1418271 28.444645,60.3479568 25.7546374,59.289463 C25.0013321,58.9929637 23.9254084,58.516583 23.860855,58.4637169 C23.8394198,58.4423361 24.4850534,58.1461297 25.3027634,57.7967643 C30.1985534,55.6902232 35.2772366,53.2978243 37.0202786,52.2711576 C37.2246565,52.1440934 37.3861145,52.0806346 37.4184656,52.0806346 L37.4184656,52.0806346 Z M12.8749618,52.9063808 C12.8964962,52.9274686 11.529958,54.8647211 9.6145916,57.5005091 C8.9475229,58.4214923 8.17283206,59.5011715 7.88236641,59.9034031 C7.59180153,60.3056834 7.15069466,60.9408577 6.90319847,61.3219526 L6.45107634,62.0100418 L5.96685115,61.6078103 C5.39653817,61.1419247 4.40675191,60.1469386 3.96559542,59.5964575 C3.04016412,58.4639121 2.41621374,57.2677127 2.16871756,56.1774895 C2.05032824,55.6692817 2.05032824,55.4151046 2.15780153,55.3835216 C2.31916031,55.3411994 5.19211069,54.6742469 7.88226718,54.0601604 C9.37791221,53.7215342 11.1101374,53.3193026 11.7342366,53.1711018 C12.3583855,53.0226569 12.8642443,52.9063808 12.8749618,52.9063808 L12.8749618,52.9063808 Z M14.2521679,53.4250837 L14.5963702,53.8061297 C16.146,55.5104393 17.7276832,56.7703417 19.6429504,57.8710112 C19.9873511,58.0616806 20.2455153,58.2309205 20.2238817,58.2417085 C20.1487595,58.2945746 13.5742328,60.5914435 10.5292061,61.6288982 C8.81846565,62.2216527 7.40880916,62.6979847 7.39819084,62.6979847 C7.38747328,62.6979847 7.2905687,62.6345746 7.18279771,62.5604254 L6.98923664,62.4227685 L7.30123664,61.9782636 C8.31260687,60.5385774 9.58248855,58.9613808 12.3477672,55.6798257 L14.2521679,53.4250837 Z M22.8387672,59.4693933 C22.8493359,59.4588982 23.3227939,59.6281381 23.9037748,59.8400907 C25.3027634,60.358696 26.4108397,60.6867782 27.8958664,61.0573291 C29.7250954,61.5125732 32.3719847,61.9571757 33.9322824,62.0841423 C34.1690115,62.1052301 34.2981183,62.1265132 34.2550496,62.1582915 C34.1795802,62.2006625 32.5980458,62.7193654 31.4359351,63.0792748 C29.5850725,63.650795 23.9361756,65.2915481 19.3309504,66.593675 C18.4808893,66.837113 17.7491679,67.0382775 17.7061489,67.0487727 C17.5986756,67.0700558 17.243458,66.9746234 17.243458,66.9323013 C17.243458,66.9112622 17.5016718,66.5831311 17.813771,66.2231729 C19.3631031,64.4023919 20.901916,62.37 22.1823664,60.4433891 C22.5373359,59.913947 22.8387672,59.4799861 22.8387672,59.4693933 Z M20.9448359,59.5224547 C20.9555534,59.5329986 20.1916794,60.7396932 18.8575916,62.8144561 C18.2871794,63.6930683 17.652313,64.6881032 17.4263015,65.0374686 C17.2111069,65.3761925 16.8883397,65.9055858 16.7054962,66.2018898 L16.3933969,66.7418271 L16.2320382,66.6994561 C15.8445687,66.5935774 13.1223588,65.6513598 12.4014046,65.3655997 C11.5082748,65.0162343 10.5829427,64.5929149 9.89424046,64.2330056 C9.03356107,63.7777615 7.9576374,63.1002162 8.04362595,63.0791771 C8.06511069,63.0686332 9.53927099,62.6767992 11.3145649,62.2005649 C16.0275115,60.9407113 18.6420992,60.2103975 20.3530878,59.6811506 C20.665187,59.5858647 20.9341183,59.5117155 20.9448359,59.5224547 Z M34.3410382,62.6132915 L34.3517557,62.6132915 C34.3948244,62.7192678 32.6518321,67.4827824 32.0167176,68.9858787 C31.877042,69.3246025 31.8234046,69.4094421 31.7479351,69.3986541 C31.5649924,69.3882566 29.0364924,69.0388912 27.4976298,68.8165411 C24.8185382,68.4143096 20.3207863,67.6414296 19.1910763,67.3874965 L18.9328626,67.3346304 L20.5358817,66.974477 C23.9791947,66.2123361 25.6361985,65.7995607 27.314687,65.2914505 C29.4344809,64.656325 31.5327901,63.862357 33.6523855,62.8885565 C33.9859198,62.7403068 34.2657176,62.6238842 34.3410382,62.6132915 Z" id="Shape" fill="url(#linearGradient-1)"></path>
                    <path d="M26.3464847,0.020209205 C26.1097557,-0.0113737796 22.2898397,1.34357043 19.8258931,2.32791492 C16.5009695,3.6618689 13.9187328,4.93221757 12.3261832,6.03288703 C11.7344847,6.44590656 10.9918969,7.17622036 10.8737061,7.46198047 C10.830687,7.56785914 10.8090534,7.69487448 10.8090534,7.82188982 L12.2509618,9.1662901 L15.6833092,10.2460181 L23.850187,11.6857043 L33.1897443,13.2629986 L33.2866489,12.4690795 C33.2544466,12.4690795 33.232813,12.4585356 33.2008092,12.4585356 L31.9738473,12.2679149 L31.7265496,11.833954 C30.4568168,9.6320781 29.0580267,6.90095537 28.2403168,5.05903766 C27.6055496,3.62994421 27.0029351,1.97874477 26.6693015,0.793089261 C26.4863588,0.0732705718 26.4649237,0.0309483961 26.3467328,0.020404463 L26.3467328,0.0201603905 L26.3464847,0.0201603905 L26.3464847,0.020209205 Z M26.1741107,0.560244073 L26.1851756,0.560244073 C26.1957443,0.570690377 26.238813,0.867287308 26.2819313,1.21640865 C26.4646756,2.69861227 26.7985076,4.12746165 27.3256527,5.6730265 C27.7236908,6.83749651 27.7236908,6.77403766 27.2610992,6.63633194 C26.1635916,6.34002789 21.2463168,5.5037378 17.6847634,5.01681311 C17.1144504,4.94266388 16.6302252,4.86861227 16.6302252,4.85806834 C16.5872061,4.81574616 19.2017939,3.47124826 20.3531374,2.94209902 C21.8272481,2.27504881 25.8729771,0.613110181 26.1741107,0.560244073 L26.1741107,0.560244073 Z M15.8015496,5.30257322 L16.2213702,5.44003487 C18.5023244,6.20232218 24.2372595,7.28209902 27.400874,7.53612971 C27.7558435,7.56790795 28.0572748,7.59973501 28.0678435,7.59973501 C28.0785611,7.61027894 27.7774771,7.76907252 27.3900076,7.94895397 C25.8622595,8.70055091 24.1836221,9.62153417 23.0215115,10.3308089 C22.6773092,10.5424198 22.3651107,10.7119038 22.3221908,10.7119038 C22.2791221,10.7119038 22.0532595,10.6695328 21.8165305,10.6377545 L21.3861412,10.5741492 L20.3102672,9.53669456 C18.4164847,7.72665272 16.9315573,6.32938633 16.3612443,5.79999303 L15.8015496,5.30257322 L15.8015496,5.30257322 Z M15.3713092,5.63065551 L16.8884389,7.49380753 C17.7168664,8.52062064 18.5561603,9.52619944 18.7392519,9.74840307 C18.9219962,9.97085077 19.0727366,10.1508787 19.0620191,10.1614226 C19.0189504,10.193152 16.8671031,9.78023013 15.7263779,9.52629707 C14.5535496,9.26157601 14.069374,9.13456067 13.3484695,8.91235704 L12.7566221,8.7217364 L12.7566221,8.57343794 C12.7673397,7.86416318 13.6820534,6.80566946 15.2314351,5.72603905 L15.3713092,5.63065551 Z M28.2617023,8.17125523 C28.3048206,8.17125523 28.358458,8.26649233 28.4875649,8.55230126 C28.8534008,9.34617155 29.9941756,11.4845886 30.2736756,11.897364 C30.3600115,12.0351185 30.5104046,12.0456625 28.9934237,11.8021757 C25.3458817,11.2198187 24.1729046,11.0294909 24.1729046,11.0083054 C24.1729046,10.9977615 24.2805267,10.9236123 24.4204008,10.849463 C25.5502595,10.2356206 26.6907366,9.45219665 27.7022557,8.61590656 C27.9497519,8.41474198 28.1757137,8.22421897 28.2186336,8.19239191 C28.2293511,8.17125523 28.2509847,8.1607113 28.2617023,8.17125523 Z" id="Shape" fill="url(#linearGradient-2)"></path>
                    <path d="M10.9487786,7.31377964 C10.9487786,7.31377964 10.7121985,7.68442817 10.9381107,8.23490934 C11.0781336,8.57353556 11.4869389,8.98631102 11.9495305,9.40982566 C11.9495305,9.40982566 16.7376985,14.003954 17.3187786,14.6603626 C19.9656183,17.6666039 21.1170115,20.6306206 21.2246336,24.7167364 C21.289187,27.3419805 20.7833282,29.6496374 19.5245115,32.3278452 C17.2864275,37.1337796 12.5627137,42.4372315 5.27824809,48.322894 L6.34365267,47.9735286 C7.03225573,47.4653208 7.96840458,46.9256276 10.1633702,45.7399721 C15.2312366,43.0087029 20.9340687,40.4999303 27.9281183,37.9170572 C37.9991985,34.190802 54.5590153,29.8294212 63.9845611,28.4111158 L64.9638779,28.2628173 L64.8131374,28.0299233 C63.9525076,26.7172524 63.3605115,25.9022455 62.6502748,25.0342259 C60.5845153,22.5148117 58.0775992,20.4718759 55.0108397,18.7781102 C50.7929351,16.4599582 45.3374504,14.6498187 38.4297366,13.3054184 C37.1278015,13.0512413 34.2656183,12.5643654 31.9414962,12.2150488 C27.013355,11.4636471 23.8284046,10.9448466 20.3207366,10.3520432 C19.0619198,10.1402371 17.1787557,9.82274756 15.9306069,9.55817294 C15.2850229,9.42041841 14.0477405,9.1346583 13.0793397,8.8065272 C12.3046489,8.50997908 11.1855076,8.21357741 10.9487786,7.31377964 L10.9487786,7.31377964 Z M13.7250229,9.96030683 C13.7356412,9.94986053 13.9077672,10.0131729 14.1338779,10.0873222 C14.5427328,10.2247838 15.0699275,10.3836262 15.6941756,10.5531102 C16.1664284,10.6809036 16.6398736,10.8043933 17.1144504,10.9235635 C17.7600344,11.0822594 18.2979466,11.2305091 18.3086641,11.2305091 C18.3841336,11.3046583 19.4709237,14.7235774 19.8367595,16.0362483 C19.9764351,16.5339121 20.0842557,16.9572315 20.0734885,16.9572315 C20.0624237,16.9679707 19.9442328,16.787894 19.8044084,16.5444561 C18.5454427,14.3637657 16.554855,12.1513947 14.2521679,10.3729358 C13.9510344,10.1614226 13.7250229,9.97085077 13.7250229,9.96030683 L13.7250229,9.96030683 Z M19.0189008,11.3999442 C19.0727366,11.3999442 19.3094656,11.4317225 19.5998321,11.4951813 C21.4290611,11.8974128 24.710916,12.5114017 26.8090267,12.8607671 C27.164145,12.9136332 27.4439924,12.9772873 27.4439924,12.9983264 C27.4439924,13.0196095 27.3147366,13.0935635 27.1532786,13.1783543 C26.7983588,13.3582357 25.3671679,14.1944282 24.8938588,14.5120642 C23.6993969,15.2953905 22.6235229,16.1422245 21.8487328,16.9043654 C21.5367328,17.2114086 21.2676031,17.4654393 21.2676031,17.4654393 C21.2676031,17.4654393 21.2032481,17.2855579 21.1492137,17.0631102 C20.7620916,15.5916946 19.9549504,13.4110042 19.2232786,11.8761785 C19.1048893,11.6327894 19.0079847,11.4104393 19.0079847,11.3893515 C19.0079847,11.4104881 19.0079847,11.3999442 19.0189008,11.3999442 L19.0189008,11.3999442 Z M28.3369733,13.146576 C28.4015267,13.1676639 28.5091489,13.527622 28.7242939,14.3214923 C29.1224809,15.8565132 29.3054237,17.5713668 29.2408702,19.1697978 C29.2192366,19.6144003 29.1978015,20.0271757 29.1761679,20.0802371 L29.1439656,20.1859693 L28.5844695,20.0060879 C27.433126,19.6461785 25.5609771,19.1061925 23.9578092,18.6616876 C23.0430458,18.4182008 22.3008053,18.1958996 22.3008053,18.1747629 C22.3008053,18.1111576 23.6350916,16.7985844 24.2053053,16.3011158 C25.2918473,15.3588494 28.2400687,13.114749 28.3369733,13.146576 L28.3369733,13.146576 Z M29.0794122,13.2523082 C29.1117634,13.2207252 33.5340954,13.9721269 35.5462176,14.3532706 C37.0419618,14.6390307 39.2153931,15.083682 39.3444504,15.1366946 C39.4090038,15.1577824 39.1829924,15.2847978 38.4620382,15.6023361 C35.6214885,16.8621409 33.5124122,17.9946374 31.4144504,19.3709135 C30.8656718,19.7308229 30.4029313,20.0271757 30.3922137,20.0271757 C30.3814962,20.0271757 30.370729,19.7202789 30.370729,19.349728 C30.370729,17.3385216 29.9618244,15.3060321 29.2084695,13.5911785 C29.1331985,13.4217922 29.068645,13.2630474 29.0794122,13.2523082 L29.0794122,13.2523082 Z M40.517229,15.4754184 C40.5495802,15.5071478 40.4096069,16.3646722 40.2805,16.8726848 C39.8931794,18.4499791 38.8495076,20.7895607 37.5692061,22.9912413 C37.3430458,23.3829289 37.1386679,23.700516 37.1169847,23.71106 C37.0956985,23.7216039 36.8051336,23.5627615 36.4715,23.3722385 C35.2234008,22.6524198 33.803126,21.9749721 32.2535954,21.339749 C31.823355,21.1598675 31.4466527,21.011569 31.4358855,20.9905788 C31.360416,20.9269735 34.8252137,18.6722315 36.6544427,17.5925035 C38.1070687,16.7245328 40.4741603,15.4329986 40.517229,15.4754184 L40.517229,15.4754184 Z M41.3349389,15.6023849 C41.4318435,15.6023849 43.3901794,16.1317294 44.4122176,16.4281311 C46.940916,17.1691841 49.8460191,18.2170851 51.7398015,19.0639191 L52.5251603,19.4133821 L51.9765802,19.5402999 C47.3499198,20.5882008 43.3901794,21.7951395 39.570313,23.3194212 C39.2582634,23.4464365 38.9784656,23.5523152 38.9571794,23.5523152 C38.9355458,23.5523152 39.0431679,23.3088773 39.183042,23.012378 C40.3343855,20.609484 41.0768244,18.1006625 41.2595687,15.9622455 C41.2705344,15.7610809 41.3025878,15.6023849 41.3349389,15.6023849 L41.3349389,15.6023849 Z M21.8380153,20.0060879 C21.8702176,19.9742608 23.3659122,20.323675 24.1729046,20.545781 C25.3995191,20.8846513 28.0033397,21.7419805 28.0033397,21.8055858 C28.0033397,21.8161297 27.7129237,22.0596165 27.3687214,22.3561158 C25.9591641,23.5099442 24.6032939,24.7271339 22.9784427,26.2726987 C22.4942176,26.7280404 22.0854618,27.0984937 22.0640267,27.0984937 C22.0423931,27.0984937 22.0318244,27.0348396 22.0423931,26.9501953 C22.2898397,25.1717364 22.2362023,22.8853138 21.8918511,20.5670642 C21.8594504,20.2705649 21.8272481,20.0166318 21.8380153,20.0060879 L21.8380153,20.0060879 Z M53.2678969,20.0379149 C53.2891832,20.058954 52.579145,21.1598675 52.127271,21.7843515 C51.4817863,22.6946932 50.5346221,23.9016806 48.3933931,26.5480614 C47.2638321,27.9452301 45.9939504,29.522622 45.5744771,30.0518689 C45.1438893,30.5811158 44.7889695,31.0256206 44.7780534,31.0256206 C44.7673359,31.0256206 44.6276603,30.8351953 44.4769198,30.6023501 C43.2717405,28.8238912 41.8298321,27.2677824 40.1189924,25.870516 C39.7962252,25.605795 39.4413053,25.3199861 39.322916,25.2352929 C39.2045267,25.1506485 39.1076221,25.0659554 39.1076221,25.0554114 C39.1076221,25.0237308 40.9366527,24.250802 42.3249237,23.7004672 C44.7567176,22.7265202 48.0704275,21.5621478 50.5562061,20.8105021 C51.8581908,20.4083194 53.2462634,20.0166318 53.2678969,20.0379149 L53.2678969,20.0379149 Z M54.0963244,20.249477 C54.1392443,20.2389819 54.3976069,20.3659972 54.7096565,20.545781 C57.3243931,22.0171967 59.8850954,23.9121269 61.9081336,25.8599233 C62.4783473,26.4104533 63.8879046,27.8500907 63.866271,27.8606346 C63.866271,27.8606346 63.3713282,27.9029568 62.7903969,27.9452301 C58.2604427,28.2841004 52.4609542,29.2260739 46.8871794,30.5492399 C46.510626,30.6338354 46.1771412,30.7079847 46.1555076,30.7079847 C46.1342214,30.7079847 46.5536947,30.2952092 47.0810382,29.7977406 C50.3519771,26.6961646 51.8477214,24.7378243 53.6121985,21.244463 C53.8595954,20.7259066 54.0748893,20.281304 54.0963244,20.249477 C54.0856069,20.249477 54.0856069,20.249477 54.0963244,20.249477 L54.0963244,20.249477 Z M30.1338511,22.663159 C30.2845916,22.694742 31.6833817,23.3407043 32.7378206,23.8592608 C33.7062214,24.3354463 35.1588969,25.0977824 35.2341679,25.1611925 C35.2448855,25.1717364 34.7283092,25.4364086 34.0937405,25.7434519 C32.0707023,26.7384868 30.3384275,27.6805091 28.5306336,28.7602859 C28.0142061,29.0673291 27.5838168,29.3215063 27.5730992,29.3215063 C27.5300305,29.3215063 27.5407481,29.27894 27.831313,28.7602859 C28.7997634,27.0243933 29.574355,24.9495816 30.0156603,22.927636 C30.0585305,22.7688912 30.1016489,22.663159 30.1338511,22.663159 L30.1338511,22.663159 Z M28.7350115,22.9170921 C28.7673626,22.9489191 28.4015267,24.2508508 28.1756641,24.9601255 C27.7343588,26.3045258 26.9919695,27.9876011 26.2711641,29.257901 C26.0987901,29.5541562 25.840626,29.9882148 25.7007519,30.2316527 L25.4318206,30.6550697 L24.8292557,30.0835983 C24.1299351,29.4166457 23.5595229,29.0038215 22.828,28.6332218 C22.5372863,28.4851674 22.3114237,28.3580056 22.3114237,28.3369665 C22.3114237,28.2522734 24.1513702,26.6115202 25.5609275,25.4259135 C26.5722977,24.5684379 28.7028092,22.8853626 28.7350115,22.9170921 L28.7350115,22.9170921 Z M37.2894084,26.378675 L37.8167023,26.7173013 C39.0215344,27.4901813 40.4418092,28.5168968 41.5287977,29.4166457 C42.1419313,29.9140656 43.3254771,30.9622106 43.5624046,31.2162413 L43.691313,31.3539958 L42.8199656,31.5973849 C37.8918244,32.9416388 34.0828244,34.1378382 29.6389084,35.7469596 C29.1439656,35.926841 28.7242939,36.0750418 28.6919427,36.0750418 C28.6275878,36.0750418 28.5736031,36.1279079 29.6820267,35.1222315 C32.5227252,32.5501464 35.0404084,29.7129986 36.9127061,26.9501464 L37.2894084,26.378675 L37.2894084,26.378675 Z M35.0405076,26.9291074 C35.0619427,26.9501953 33.5878817,28.9931799 32.7054695,30.1470572 C31.6510305,31.5232357 29.7787328,33.8308438 28.4875649,35.3338912 C27.9497023,35.9585704 27.4871107,36.4772245 27.4654771,36.4878661 C27.433126,36.49841 27.4224084,36.3396653 27.4224084,36.0961785 C27.4224084,34.8151883 27.0889237,33.4496513 26.5077939,32.2853278 C26.2602977,31.7984031 26.217229,31.6819317 26.2712137,31.6290656 C26.4755916,31.4490377 29.6067061,29.6918131 31.5864771,28.6439121 C32.9207137,27.9452789 35.007958,26.9079219 35.0405076,26.9291074 L35.0405076,26.9291074 Z M21.4397786,30.2106625 C21.4721298,30.2106625 21.719626,30.3375802 21.9994237,30.4858787 C22.6880267,30.8563319 23.3013588,31.2691562 23.8500878,31.7138563 C23.8715229,31.7349442 23.591874,31.9573431 23.2260382,32.2218201 C22.2038015,32.9416388 20.6544198,34.0955649 19.7507214,34.8048396 C18.8036069,35.5458438 18.7715534,35.5669805 18.8790267,35.4082357 C19.5892634,34.3390516 19.9441832,33.7356555 20.3209351,32.9629707 C20.6544198,32.2749791 20.9879046,31.4598257 21.2246336,30.7505509 C21.3106718,30.4435565 21.4183435,30.2106625 21.4397786,30.2106625 Z M25.0660344,33.0051953 C25.1196718,32.994749 25.1844237,33.0898884 25.4747901,33.5134031 C26.0881221,34.4130056 26.5615802,35.6199442 26.6801183,36.5937936 L26.7014046,36.8055997 L25.2274924,37.3666736 C22.5911221,38.3722036 20.1595267,39.3673361 18.513042,40.1081939 C18.0505,40.32 17.243458,40.7009972 16.716313,40.9552232 C16.1890191,41.2197001 15.7586298,41.4208647 15.7586298,41.4103208 C15.7586298,41.3997768 16.0921145,41.1562901 16.5009695,40.8597908 C19.7184198,38.5628243 22.5051336,36.0433124 24.5925267,33.5239958 C24.8185382,33.2592748 25.0230649,33.015788 25.0444008,33.0052441 L25.0660344,33.0051953 Z M23.3982634,33.4075244 C23.4413321,33.4498466 22.2147176,34.8153347 21.3754237,35.651576 C19.2987481,37.7370781 17.2435573,39.3673361 14.693374,40.9552232 C14.3706069,41.1562901 14.0801412,41.3361715 14.0477901,41.3574547 C13.9724198,41.3997768 14.0692252,41.2938494 15.1883168,40.0976499 C15.8985534,39.346053 16.4364656,38.7109275 17.0497977,37.9276987 C17.4586527,37.4090934 17.5340229,37.3349442 18.1259198,36.9219247 C19.7076527,35.7998257 23.3551947,33.3651046 23.3982634,33.4075244 Z" id="Shape" fill="url(#radialGradient-3)"></path>
                </g>
                <path d="M23.0114663,77.5554909 C22.8143836,77.5554909 22.6172143,77.5742072 22.4218635,77.5742072 C18.4408103,77.7855203 15.755775,79.5306213 14.1858676,82.9385405 C12.8431767,86.0206927 12.9897765,90.0495273 14.2009345,93.1505683 C15.6093484,96.1806252 17.8851514,97.7797908 21.6838424,98.3838012 C22.4875866,98.5149016 23.0265333,98.9544328 24.5831922,100.764825 L26.4986005,103 L29.9724861,103 L27.662566,100.680559 C26.3856849,99.408799 25.3529058,98.3014322 25.3529058,98.204142 C25.3529058,98.106938 25.8413695,97.8937274 26.4326176,97.7142407 C28.3817967,97.1267041 30.0004552,95.6268125 31.1327282,93.3280712 C32.0491281,91.4821437 32.1806609,90.9115122 32.3120205,88.614841 C32.655703,81.7786474 29.0371226,77.5046895 23.0112931,77.5535072 L23.0114663,77.5554909 L23.0114663,77.5554909 Z M26.057156,95.432577 C24.3671459,96.2479004 21.9131373,96.4106546 20.3112775,95.8252743 C18.6550381,95.2193664 17.0514465,93.5060917 16.3302243,91.5664965 C15.5284718,89.445517 15.642946,85.5327751 16.5593459,83.7706828 C18.0333964,80.9651352 19.982662,79.6746592 22.8311824,79.6746592 C27.0561644,79.6746592 29.4596901,82.2521612 29.7733252,87.0963193 C30.0212372,91.1401616 28.661661,94.173841 26.0589744,95.430852 L26.057156,95.432577 L26.057156,95.432577 Z M86.0673655,83.3948043 C84.6102005,83.3948043 83.4948128,83.9822546 82.7435433,85.1397328 L82.1539404,86.056314 L82.1539404,83.6733925 L79.6321305,83.6733925 L79.6321305,97.9631588 L82.1522952,97.9631588 L82.1522952,93.3956914 C82.1522952,89.2191101 82.2045966,88.7309338 82.7905626,87.5880319 C83.5981167,86.0206927 84.9874805,85.239093 86.3303445,85.6131603 L87.2315908,85.875016 L87.2315908,83.3985993 L86.0673655,83.3985993 L86.0673655,83.3948043 L86.0673655,83.3948043 Z M71.2516997,83.2637902 C70.757694,83.2637902 70.2337277,83.3293404 69.7120127,83.4435357 C66.3374478,84.3224256 64.435288,87.539473 64.5516672,90.850102 C64.5516672,93.6220983 65.0923458,95.0078808 66.4352098,96.4612835 C69.186228,98.7093959 71.6741805,98.8888826 75.0316003,97.6826731 C75.6044044,97.4395337 76.227778,97.1589616 76.227778,97.1589616 L76.227778,94.9108493 L75.0316003,95.528056 C72.3144395,96.7063204 70.2676716,96.7063204 68.6282311,95.3184679 C67.5825498,94.257935 67.1223149,92.9860891 66.9102518,91.5348426 L77.0783682,91.5348426 L77.0783682,89.6080987 C77.0783682,85.6803492 74.7048899,83.2002238 71.2496215,83.2637902 L71.2516997,83.2637902 Z M67.1392869,89.5296109 C67.1392869,89.5296109 67.5149216,87.0795005 68.908182,86.1180692 C69.5787481,85.6466254 70.3484617,85.4185798 71.1013765,85.4185798 C71.8563695,85.4185798 72.6092843,85.6616329 73.2308394,86.1349742 C74.5078938,87.1131381 74.7218618,89.5110671 74.7218618,89.5110671 L67.1393735,89.5110671 L67.1393735,89.5296109 L67.1392869,89.5296109 Z M6.34230523,86.9523677 C3.60834565,85.3025732 2.39528259,84.1129237 2.54361416,82.7101499 C2.96791347,78.8291481 7.78267149,79.3659696 10.449003,80.8342936 L10.4679665,78.2233265 C10.4679665,78.2233265 8.99382953,77.5874035 6.88125194,77.5536797 C3.64021139,77.5050345 1.54460578,78.5635837 0.562655953,80.718287 C-0.87961532,83.8979019 0.397438999,86.2956584 5.01312271,88.9704507 C7.60437919,90.4722397 8.74972754,91.7759983 8.74972754,93.1974021 C8.74972754,96.1339639 5.19513846,97.1589616 1.52789358,95.3165704 C0.773160364,94.9425031 0.134633205,94.6301048 0.100862443,94.6301048 C-0.0306703414,95.4625058 0.0371309559,97.4543687 0.0371309559,97.4543687 C0.0371309559,97.4543687 1.16386209,97.9258125 2.85369902,98.2509759 C7.04473707,99.0832906 10.8586683,97.1250653 11.2191495,93.9454504 C11.5327846,90.9604161 10.4490896,89.3948018 6.34247842,86.9502114 L6.34230523,86.9523677 L6.34230523,86.9523677 Z M108.386635,83.2302388 C107.894621,83.2302388 107.372559,83.297514 106.827984,83.4116231 C103.457489,84.2906855 101.55888,87.5078192 101.688421,90.8184482 C101.688421,93.5866494 102.227454,94.9594082 103.569972,96.4107409 C106.321076,98.6609232 108.809116,98.8422212 112.183507,97.6341142 C112.75432,97.391061 113.375875,97.1143703 113.375875,97.1143703 L113.375875,94.8624629 L112.181689,95.4832058 C109.458986,96.6578478 107.412045,96.6578478 105.778493,95.2700815 C104.726837,94.2114461 104.270585,92.9545215 104.058349,91.4861975 L114.209666,91.4861975 L114.209666,89.5597123 C114.209666,85.6507654 111.836015,83.1686562 108.38092,83.2342063 L108.386635,83.2302388 L108.386635,83.2302388 Z M104.274222,89.4959733 C104.274222,89.4959733 104.65358,87.0494855 106.044935,86.0693378 C106.71351,85.5962553 107.48331,85.3679509 108.236312,85.3679509 C108.987408,85.3679509 109.744219,85.6110903 110.365948,86.0861566 C111.642829,87.0644067 111.85697,89.4790683 111.85697,89.4790683 L104.2763,89.4790683 L104.274222,89.4959733 L104.274222,89.4959733 Z M58.0507957,86.9841078 C55.3168361,85.3381946 54.1074099,84.1447501 54.2539231,82.74189 C54.6782224,78.8589045 59.493067,79.3977097 62.1593985,80.8660337 L62.1782755,78.2550666 C62.1782755,78.2550666 60.7041385,77.6190574 58.5915609,77.5890423 C55.3505203,77.5404834 53.2549147,78.5991188 52.2711465,80.7537359 C50.8308668,83.9332645 52.1246333,86.3311935 56.7251635,89.0058995 C59.3128697,90.5060498 60.458218,91.7928171 60.458218,93.2142209 C60.458218,96.1507827 56.9054474,97.1925992 53.2381159,95.3333029 C52.4870196,94.9592357 51.8486656,94.6505461 51.8110848,94.6505461 C51.679552,95.4827746 51.7473533,97.4748963 51.7473533,97.4748963 C51.7473533,97.4748963 52.8607493,97.929435 54.545131,98.2715897 C58.7400656,99.1058019 62.5557287,97.1493016 62.9144781,93.9696867 C63.2262082,90.9994874 62.1445913,89.4340457 58.0508823,86.9875578 L58.0508823,86.9841078 L58.0507957,86.9841078 Z M123.204206,83.3611667 C121.747041,83.3611667 120.618664,83.9501695 119.880557,85.1080789 L119.29078,86.0207789 L119.29078,83.6417387 L116.768971,83.6417387 L116.768971,97.9276237 L119.288962,97.9276237 L119.288962,93.3603288 C119.288962,89.1855588 119.339532,88.6954849 119.927576,87.5545668 C120.734957,85.9891251 122.124321,85.2055417 123.467011,85.581334 L124.368258,85.8431034 L124.368258,83.3612529 L123.204206,83.3612529 L123.204206,83.3611667 Z M37.9961592,86.9017388 L37.9961592,77.8003554 L35.4537404,77.8003554 L35.4537404,97.9594501 L46.1459097,97.9594501 L46.1459097,95.5785986 L37.9962457,95.5785986 L37.9962457,86.9017388 L37.9961592,86.9017388 Z M96.793219,89.7390265 L94.6976134,95.170635 L92.6826246,89.7090977 L90.6358567,83.65666 L88.0333434,83.65666 C89.7197166,88.4187079 91.5539885,93.2628661 93.4037603,97.9594501 C94.2055994,97.9780801 95.0092569,97.9594501 95.8109228,97.9594501 L98.6409126,90.8819284 L101.52329,83.6584713 L99.0353378,83.6584713 C99.0353378,83.6584713 97.9366623,86.5276715 96.7914006,89.740924 L96.793219,89.7390265 L96.793219,89.7390265 Z M43.8547801,72.3070779 C44.2641856,72.3070779 44.6058764,72.1763226 44.8875592,71.8957506 C45.1653454,71.6188011 45.3118585,71.2933789 45.3118585,70.8856741 C45.3118585,70.477883 45.1653454,70.1374533 44.8875592,69.8755976 C44.6058764,69.6138281 44.2809844,69.4827278 43.8734839,69.4827278 C43.4605281,69.4827278 43.1186641,69.6138281 42.8407047,69.8905189 C42.5591085,70.1674684 42.4313858,70.5078981 42.4313858,70.9006816 C42.4313858,71.3121815 42.5629186,71.6524387 42.8407047,71.9107581 C43.1036837,72.1724413 43.4454611,72.3034554 43.8547801,72.3034554 L43.8547801,72.3070779 L43.8547801,72.3070779 Z M42.9535337,69.9878954 C43.1975491,69.7448422 43.4942988,69.6324582 43.8735705,69.6324582 C44.2304148,69.6324582 44.5271646,69.7448422 44.7750766,69.9878954 C45.0191786,70.2310348 45.1506248,70.5265281 45.1506248,70.8856741 C45.1506248,71.2447338 45.0191786,71.5553209 44.7750766,71.7983741 C44.5272512,72.041341 44.2304148,72.1574338 43.8735705,72.1574338 C43.5111842,72.1574338 43.2163395,72.0452222 42.9723241,71.7983741 C42.7282221,71.5553209 42.5967759,71.2447338 42.5967759,70.8856741 C42.5967759,70.5265281 42.7094317,70.2311211 42.9535337,69.9878954 Z M43.5599353,71.0166882 L43.7251523,71.0166882 C43.8417047,71.0166882 43.9561789,71.1288135 44.0537678,71.3421103 L44.2511102,71.7833665 L44.5608487,71.7833665 L44.3168333,71.2932064 C44.2173395,71.0969872 44.1197506,70.9828781 44.0051032,70.9508793 C44.1497114,70.9172417 44.2641856,70.8686828 44.3468807,70.7713063 C44.429316,70.6872985 44.4594499,70.5731032 44.4594499,70.4439866 C44.4594499,70.2944287 44.4125172,70.1823034 44.3131099,70.0999344 C44.2003675,70.0064392 44.0200836,69.9559828 43.7871519,69.9559828 L43.2653504,69.9559828 L43.2653504,71.7833665 L43.5281562,71.7833665 L43.5281562,71.0165157 L43.5599353,71.0166882 L43.5599353,71.0166882 Z M43.5599353,70.1674684 L43.7891436,70.1674684 C43.9543605,70.1674684 44.0708263,70.201106 44.1346444,70.2496649 C44.1966441,70.29831 44.2135295,70.3620489 44.2135295,70.477883 C44.2135295,70.689196 44.0819101,70.7884701 43.8379813,70.7884701 L43.5563851,70.7884701 L43.5563851,70.1674684 L43.5599353,70.1674684 L43.5599353,70.1674684 Z M1.56140456,70.8538477 C1.56140456,70.2179248 1.54270076,69.7448422 1.5276338,69.4660815 L1.54270076,69.4660815 C1.60833726,69.7950399 1.68912732,70.0402493 1.75485041,70.2029172 L4.1958703,75.6345257 L4.60527583,75.6345257 L7.04629572,70.1543583 C7.112192,70.0048867 7.17791509,69.7802911 7.25861855,69.4678927 L7.27732236,69.4678927 C7.22857123,70.0104067 7.21168585,70.481678 7.21168585,70.8575565 L7.21168585,75.6514308 L8.04712253,75.6514308 L8.04712253,68.5252639 L6.99936302,68.5252639 L4.75551242,73.4817199 C4.67281735,73.6780254 4.55825654,73.97188 4.41182998,74.3608685 L4.37788604,74.3608685 C4.32913492,74.1681855 4.2145741,73.8745034 4.05126217,73.5153575 L1.85789453,68.5082726 L0.744498513,68.5082726 L0.744498513,75.6343532 L1.54815604,75.6343532 L1.54815604,70.857384 L1.56140456,70.8538477 Z M9.87810392,70.8671303 L10.5993261,70.8671303 L10.5993261,75.3053948 L9.87810392,75.3053948 L9.87810392,70.8671303 L9.87810392,70.8671303 Z M10.2386717,69.2397609 C10.3889949,69.2397609 10.5166311,69.189132 10.6142199,69.090203 C10.7138004,68.9928264 10.7796101,68.8656936 10.7796101,68.7161357 C10.7796101,68.5702003 10.7306858,68.4391862 10.6162115,68.3420684 C10.5148127,68.2428807 10.3851849,68.1922518 10.2368533,68.1922518 C10.0905133,68.1922518 9.95906716,68.2428807 9.86121854,68.3420684 C9.76198446,68.4391862 9.69608818,68.5702003 9.69608818,68.7161357 C9.69608818,68.8788899 9.74683091,68.9928264 9.86121854,69.090203 C9.97413411,69.189132 10.0904268,69.2397609 10.2368533,69.2397609 L10.2386717,69.2397609 Z M15.740708,75.4027713 L15.740708,74.6208267 C15.3462829,74.9145088 14.921897,75.0605304 14.4825307,75.0605304 C13.9569191,75.0605304 13.530455,74.8810437 13.2187249,74.5369915 C12.9089864,74.1965618 12.7437695,73.7231343 12.7437695,73.1340452 C12.7437695,72.5168385 12.9089864,72.0265922 13.2506773,71.6525249 C13.5792927,71.2934652 14.0056703,71.1138922 14.5277316,71.1138922 C14.9539359,71.1138922 15.3630817,71.2449926 15.7407946,71.5069345 L15.7407946,70.6746198 C15.3971988,70.4950468 15.0047652,70.4126778 14.5615023,70.4126778 C13.7426913,70.4126778 13.1044239,70.6746198 12.6274768,71.1797874 C12.1541666,71.6846963 11.9100646,72.3711619 11.9100646,73.1997679 C11.9100646,73.9366036 12.1222143,74.555794 12.5636588,75.0290491 C13.0236338,75.5152416 13.6115914,75.7621761 14.3325539,75.7621761 C14.8900312,75.7468235 15.3462829,75.630817 15.740708,75.4027713 L15.740708,75.4027713 Z M17.8042747,73.0366687 C17.8042747,72.4512021 17.9357209,71.9781195 18.1798229,71.6524387 C18.4090311,71.3589291 18.6868173,71.2111825 19.0154328,71.2111825 C19.2933921,71.2111825 19.4904748,71.2616389 19.6349963,71.3757479 L19.6349963,70.5265281 C19.5224271,70.4779692 19.3590286,70.4611504 19.146879,70.4611504 C18.8520342,70.4611504 18.589315,70.5599932 18.3582884,70.7417224 C18.1141864,70.9341467 17.9189221,71.2280013 17.8043613,71.6020685 L17.7856575,71.6020685 L17.7856575,70.5601657 L16.9688381,70.5601657 L16.9688381,75.6476358 L17.7874759,75.6476358 L17.7874759,73.0366687 L17.8042747,73.0366687 L17.8042747,73.0366687 Z M22.5043854,75.7486348 C23.2743587,75.7486348 23.8940089,75.5017004 24.353984,75.011799 C24.812054,74.5252615 25.0411756,73.8707947 25.0411756,73.0551262 C25.0411756,72.2230702 24.8310176,71.587061 24.4028217,71.1136335 C23.9785224,70.6407234 23.3887463,70.4122465 22.618773,70.4122465 C21.8487996,70.4122465 21.2291495,70.6405509 20.7691744,71.0818934 C20.277247,71.5684309 20.018078,72.2548103 20.018078,73.1357702 C20.018078,73.902621 20.2284092,74.5386302 20.6716721,75.011799 C21.1297422,75.5017004 21.736317,75.7467373 22.5043854,75.7467373 L22.5043854,75.7486348 L22.5043854,75.7486348 Z M21.34016,71.6038798 C21.6518901,71.2765601 22.0613822,71.1137197 22.5682034,71.1137197 C23.0941614,71.1137197 23.4884134,71.2765601 23.7813531,71.6038798 C24.0761112,71.946207 24.2227109,72.4344695 24.2227109,73.0871251 C24.2227109,73.7079542 24.0911782,74.1962168 23.8132188,74.5235365 C23.5354327,74.8658636 23.1260271,75.0471616 22.5850888,75.0471616 C22.0593906,75.0471616 21.6518901,74.8656911 21.34016,74.5235365 C21.0304215,74.179398 20.8820034,73.7079542 20.8820034,73.0871251 C20.8501376,72.4699184 21.0135361,71.9650095 21.34016,71.6038798 Z M28.6260718,75.3053948 C28.9377153,75.0287041 29.1031055,74.6882744 29.1031055,74.2615945 C29.1031055,73.8875272 28.9714861,73.5771126 28.7274707,73.3320757 C28.5283098,73.1358564 28.2205629,72.9580085 27.7754816,72.7784355 C27.3809698,72.6140425 27.1369544,72.4679346 27.0054217,72.3538256 C26.8740621,72.222984 26.793272,72.0604023 26.793272,71.8302004 C26.793272,71.6188873 26.8759671,71.4561331 27.0375472,71.3252053 C27.2027641,71.1944499 27.4130954,71.1308835 27.6947781,71.1308835 C28.1360494,71.1308835 28.513416,71.2467176 28.8588303,71.4918407 L28.8588303,70.6762585 C28.5283964,70.5118656 28.1697336,70.4332916 27.7603281,70.4332916 C27.2346299,70.4332916 26.7914536,70.5774157 26.4645699,70.8558315 C26.1208875,71.1328673 25.9576622,71.491927 25.9576622,71.9144669 C25.9576622,72.2885341 26.0702314,72.5991212 26.2841994,72.8271669 C26.4644833,73.0217474 26.7726632,73.2201229 27.2005993,73.3976259 C27.6100915,73.5772851 27.8879642,73.7398668 28.0362092,73.8707084 C28.1826358,74.0018088 28.2483589,74.1643905 28.2483589,74.357246 C28.2483589,74.8321398 27.921735,75.0773492 27.2832078,75.0773492 C26.7911938,75.0773492 26.3500957,74.9164063 25.9554974,74.5910704 L25.9554974,75.469874 C26.3123417,75.6833434 26.7405377,75.7804611 27.2136747,75.7804611 C27.8202495,75.748721 28.295205,75.6009744 28.622002,75.3072923 L28.6260718,75.3053948 L28.6260718,75.3053948 Z M32.5243433,70.412419 C31.7542834,70.412419 31.1347198,70.6407234 30.6746581,71.0820659 C30.1864542,71.5686034 29.9235618,72.2549828 29.9235618,73.1359427 C29.9235618,73.9027935 30.1358846,74.5388027 30.5770693,75.0119715 C31.037131,75.5018729 31.6417142,75.7469098 32.4116876,75.7469098 C33.2002781,75.7469098 33.8013111,75.5001479 34.2612862,75.0099015 C34.7213478,74.523709 34.9503829,73.8690697 34.9503829,73.0534875 C34.9503829,72.2211727 34.7363282,71.585336 34.3118557,71.1120809 C33.8689392,70.6388259 33.2790766,70.4106078 32.5279802,70.4106078 L32.5243433,70.412419 L32.5243433,70.412419 Z M34.112868,73.0872113 C34.112868,73.7080405 33.9814218,74.1963031 33.7035491,74.5236227 C33.4255897,74.8659499 33.0161842,75.0472479 32.4753324,75.0472479 C31.9493745,75.0472479 31.5420472,74.8657774 31.2302305,74.5236227 C30.920492,74.1794843 30.7721604,73.7080405 30.7721604,73.0872113 C30.7721604,72.432572 30.9356455,71.9276632 31.264261,71.587061 C31.5739129,71.2616389 31.9834916,71.0969872 32.4923044,71.0969872 C32.9992122,71.0969872 33.4067993,71.2614664 33.7014709,71.587061 C33.9644498,71.9461207 34.110963,72.4343833 34.110963,73.0872113 L34.112868,73.0872113 L34.112868,73.0872113 Z M36.325026,75.6327145 L37.1418455,75.6327145 L37.1418455,71.2280875 L38.3379366,71.2280875 L38.3379366,70.5434332 L37.1417589,70.5434332 L37.1417589,69.757866 C37.1417589,69.0435416 37.4195451,68.6843956 37.9942541,68.6843956 C38.1877,68.6843956 38.3848693,68.7329545 38.5313824,68.8153235 L38.5313824,68.0803852 C38.3848693,68.0149213 38.1877,68 37.9415198,68 C37.5003351,68 37.1398539,68.1310141 36.8449226,68.4077049 C36.5012401,68.733127 36.3192244,69.1558394 36.3192244,69.7283684 L36.3192244,70.5625807 L35.4552125,70.5625807 L35.4552125,71.2470626 L36.3192244,71.2470626 L36.3192244,75.6351295 L36.325026,75.6327145 L36.325026,75.6327145 Z M39.6804542,74.244862 C39.6804542,75.2400172 40.1218987,75.7468235 41.023145,75.7468235 C41.3499421,75.7468235 41.5958625,75.6945559 41.7930318,75.5785493 L41.7930318,74.8790599 C41.6428818,74.9913577 41.4644163,75.0437979 41.2673336,75.0437979 C40.9895475,75.0437979 40.7941966,74.9780752 40.6795492,74.8303285 C40.5630834,74.6846519 40.4974469,74.437545 40.4974469,74.0971153 L40.4974469,71.22619 L41.7929452,71.22619 L41.7929452,70.5415356 L40.4974469,70.5415356 L40.4974469,69.0416441 C40.2157641,69.1388481 39.9397963,69.2212171 39.6786358,69.3033273 L39.6786358,70.5414494 L38.7960932,70.5414494 L38.7960932,71.2261038 L39.6786358,71.2261038 L39.6786358,74.2430507 L39.6804542,74.244862 L39.6804542,74.244862 Z M127.560634,83.6228499 C127.282761,83.3611667 126.954146,83.2301526 126.546732,83.2301526 C126.133689,83.2301526 125.791739,83.3611667 125.513866,83.6416525 C125.235993,83.9166182 125.104374,84.2587729 125.104374,84.6517289 C125.104374,85.0595201 125.235993,85.3999497 125.511788,85.6616329 C125.789834,85.9234886 126.131438,86.054589 126.544653,86.054589 C126.952067,86.054589 127.29575,85.9234886 127.577519,85.6467116 C127.853573,85.3661396 128,85.042615 128,84.6368077 C127.984933,84.2253078 127.836601,83.8847919 127.558729,83.6230224 L127.560634,83.6228499 L127.560634,83.6228499 Z M127.429274,85.5495076 C127.185086,85.7925608 126.888422,85.9047723 126.527855,85.9047723 C126.171183,85.9047723 125.87452,85.7925608 125.626608,85.5495076 C125.382593,85.3025732 125.250973,84.9939699 125.250973,84.6329264 C125.250973,84.2774892 125.363629,83.9821684 125.611541,83.735234 C125.855557,83.4922671 126.150575,83.3797967 126.527855,83.3797967 C126.884699,83.3797967 127.181535,83.4922671 127.429274,83.735234 C127.67329,83.9821684 127.804736,84.2774892 127.804736,84.6329264 C127.804736,85.0108749 127.69208,85.3025732 127.429274,85.5495076 L127.429274,85.5495076 Z M126.693072,84.7171066 C126.839498,84.683469 126.956051,84.6180051 127.036754,84.5376199 C127.119449,84.4533534 127.149583,84.3391581 127.149583,84.2085752 C127.149583,84.0626398 127.102564,83.9466333 127.003156,83.8662481 C126.890501,83.7726666 126.708398,83.7221239 126.477545,83.7221239 L125.955483,83.7221239 L125.955483,85.5475239 L126.218462,85.5475239 L126.218462,84.780673 L126.381688,84.780673 C126.494517,84.780673 126.607173,84.8927984 126.708398,85.1060952 L126.903576,85.5456264 L127.215479,85.5456264 L126.971464,85.0554663 C126.886864,84.8422557 126.789188,84.7448792 126.689868,84.7130529 L126.693072,84.7171066 L126.693072,84.7171066 Z M126.512788,84.5526274 L126.231191,84.5526274 L126.231191,83.935507 L126.462218,83.935507 C126.625617,83.935507 126.740091,83.9652633 126.805901,84.0158922 C126.871537,84.0644511 126.886604,84.1281038 126.886604,84.2441103 C126.886604,84.4554234 126.755158,84.5527999 126.511142,84.5527999 L126.512788,84.5526274 Z M80.8283948,70.3321201 L81.0575164,70.3321201 L81.0575164,68.5047364 L81.6638314,68.5047364 L81.6638314,68.2765183 L80.2219065,68.2765183 L80.2219065,68.5047364 L80.828568,68.5047364 L80.828568,70.3321201 L80.8283948,70.3321201 L80.8283948,70.3321201 Z M82.2179317,68.9592751 C82.2179317,68.7814271 82.2179317,68.635578 82.2047698,68.5534678 C82.2198367,68.6505855 82.2536075,68.7162219 82.2686744,68.7647808 L82.9729247,70.3321201 L83.0855805,70.3321201 L83.791476,68.749687 C83.8104396,68.7011282 83.8255065,68.6374755 83.8572857,68.5534678 C83.8422187,68.7162219 83.8422187,68.8468048 83.8422187,68.9461651 L83.8422187,70.3303088 L84.0864073,70.3303088 L84.0864073,68.2765183 L83.791476,68.2765183 L83.1532086,69.6942996 C83.1381416,69.7449285 83.0872257,69.8438575 83.0554466,69.9562416 L83.0366562,69.9562416 C83.0234942,69.8906051 82.9898101,69.8252275 82.9427908,69.7131884 L82.3043502,68.2766908 L81.9739163,68.2766908 L81.9739163,70.3341038 L82.2047698,70.3341038 L82.2047698,68.9612589 L82.2179317,68.9592751 L82.2179317,68.9592751 Z" id="Shape" fill="#231F1F"></path>
            </g>
        </g>
    </g>
</svg>