<?xml version="1.0" encoding="utf-8"?>
<!-- Generator: Adobe Illustrator 21.0.0, SVG Export Plug-In . SVG Version: 6.00 Build 0)  -->
<svg version="1.1" id="Layer_1" xmlns="http://www.w3.org/2000/svg" xmlns:xlink="http://www.w3.org/1999/xlink" x="0px" y="0px"
	 viewBox="0 0 3258.4 730.6" style="enable-background:new 0 0 3258.4 730.6;" xml:space="preserve">
<style type="text/css">
	.st0{fill:red;}
	.st1{fill:none;}
	.st2{fill:#2B2523;}
	.st3{fill:#E20C18;}
</style>
<g>
	<g>
		<circle class="st0" id="circ1" cx="555.5" cy="259.2" r="10.8"/>
		<circle class="st0" id="circ2" cx="1228.1" cy="324.5" r="10.8"/>
		<circle class="st0" id="circ3" cx="1620.6" cy="335" r="28.7"/>
		<circle class="st0" id="circ4" cx="2439" cy="336" r="11"/>
	</g>
	<polygon class="st1" points="612.3,430.7 675.5,496.3 612.3,430.7 	"/>
	<polygon class="st2" points="675.5,496.3 675.5,430.7 612.3,430.7 	"/>
	<polygon class="st1" points="1224.2,435 1231.2,430.7 1220,430.7 	"/>
	<polygon class="st1" points="1525.9,430.7 1562,476 1525.9,430.7 	"/>
	<polygon class="st2" points="1568.2,430.7 1525.9,430.7 1562,476 1596.8,466.8 1572.4,434.3 	"/>
	<polygon class="st1" points="2290.3,430.7 2348.4,504.7 2290.3,430.7 	"/>
	<polygon class="st2" points="2346.7,430.7 2290.3,430.7 2348.4,504.7 2393.6,491.4 2352.4,435.3 	"/>
	<polygon class="st3" points="515.1,330 612.3,430.7 612.3,430.7 	"/>
	<polygon class="st3" points="1435.9,317.9 1525.9,430.7 1525.9,430.7 	"/>
	<polygon class="st3" points="2197.2,312.3 2290.3,430.7 2290.3,430.7 	"/>
	<polygon class="st2" points="675.4,26.3 577,376.3 515.1,330 612.3,430.7 675.5,430.7 675.5,26.4 	"/>
	<polygon class="st2" points="2346.7,430.7 2197.4,312.3 2197.2,312.3 2290.3,430.7 	"/>
	<polygon class="st2" points="1568.2,430.7 1435.9,317.9 1525.9,430.7 	"/>
	<polygon class="st3" points="2194.6,309 1733.5,430.7 2290.3,430.7 2197.2,312.3 	"/>
	<polygon class="st3" points="2708,430.7 2708,398.6 2599,430.7 	"/>
	<polygon class="st3" points="1429.6,310 1231.2,430.7 1525.9,430.7 1435.9,317.9 	"/>
	<polygon class="st3" points="675.5,25.9 675.5,26.4 675.5,430.7 1220,430.7 792,0 	"/>
	<path class="st3" d="M612.3,430.7L515.1,330l-15.7-11.7c0,0-207.7,49.2-356.7,101.9v10.5H612.3z"/>
	<path class="st3" d="M2877.3,347L2708,397v32.2H2599l-205.4,60.6l-45.2,13.3l-58.1-74h-556.8l-136.7,36.1l-34.8,9.2l-36.1-45.3
		h-294.7l-7,4.3l-4.2-4.3H675.5v65.6l-63.3-65.6H142.6v-10.5C99,434,8.9,425.5,3.1,434L0,730.6h3258.4L2877.3,347z"/>
</g>
</svg>
