<?xml version="1.0" encoding="utf-8"?>
<!-- Generator: Adobe Illustrator 21.0.0, SVG Export Plug-In . SVG Version: 6.00 Build 0)  -->
<svg version="1.1" id="Слой_1" xmlns="http://www.w3.org/2000/svg" xmlns:xlink="http://www.w3.org/1999/xlink" x="0px" y="0px"
	 viewBox="0 0 2560 432.9" style="enable-background:new 0 0 2560 432.9;" xml:space="preserve">
<style type="text/css">
	.st0{fill:#2B2423;}
	.st1{fill:#E20D17;}
</style>
<g>
	<g>
		<g>
			<polygon class="st0" points="2047,309 2143.2,431 2202.5,431 			"/>
			<path class="st0" d="M350.9,314.9l113.9,118c0,0,49.4,0,63,0c0-6.1,0.1-407,0.1-407l-98.4,349.8L350.9,314.9z"/>
			<path class="st0" d="M1282,310l96.5,121c49.5,0.1,45.3,0,45.3,0L1282,310z"/>
		</g>
	</g>
	<g>
		<path class="st1" d="M1584.9,431c0,0,0.1,0,0.1,0l558.2,0L2047,309L1584.9,431z"/>
		<path class="st1" d="M2450.5,431L2450.5,431c7.3,0,15.1,0,22.5,0h4h83v-32.3L2450.5,431z"/>
		<polygon class="st1" points="464.9,431 465.2,431 464.9,431 		"/>
		<polygon class="st1" points="351,313 0,410.5 0,431 464.9,431 462,428 		"/>
		<polygon class="st1" points="527.9,25.9 527.9,431 1072.6,431 644.4,0 		"/>
		<polygon class="st1" points="1083.1,431 1378.5,431 1282,310 		"/>
	</g>
</g>
</svg>
