<?xml version="1.0" encoding="utf-8"?>
<!-- Generator: Adobe Illustrator 21.0.0, SVG Export Plug-In . SVG Version: 6.00 Build 0)  -->
<svg version="1.1" id="Layer_1" xmlns="http://www.w3.org/2000/svg" xmlns:xlink="http://www.w3.org/1999/xlink" x="0px" y="0px"
	 viewBox="0 0 14.3 25.7" style="enable-background:new 0 0 14.3 25.7;" xml:space="preserve">
<g>
	<path d="M7.6,25.7h-1C3,25.7,0,22.7,0,19V6.7C0,3,3,0,6.7,0h1c3.7,0,6.7,3,6.7,6.7V19C14.3,22.7,11.3,25.7,7.6,25.7z M6.7,1
		C3.5,1,1,3.5,1,6.7V19c0,3.1,2.5,5.7,5.7,5.7h1c3.1,0,5.7-2.5,5.7-5.7V6.7c0-3.1-2.5-5.7-5.7-5.7H6.7z"/>
</g>

</svg>
