<?xml version="1.0" encoding="utf-8"?>
<!-- Generator: Adobe Illustrator 21.0.0, SVG Export Plug-In . SVG Version: 6.00 Build 0)  -->
<svg version="1.1" id="Layer_1" xmlns="http://www.w3.org/2000/svg" xmlns:xlink="http://www.w3.org/1999/xlink" x="0px" y="0px"
	 viewBox="0 0 67 47" style="enable-background:new 0 0 67 47;" xml:space="preserve">
<style type="text/css">
	.st0{fill:#FF6666;}
</style>
<g>
	<rect y="10" class="st0" width="1" height="37"/>
	<rect x="2" y="3" class="st0" width="1" height="37"/>
	<rect x="4" y="8" class="st0" width="1" height="27"/>
	<rect x="6" y="12" class="st0" width="1" height="27"/>
	<rect x="8" y="7" class="st0" width="1" height="27"/>
	<rect x="10" y="6" class="st0" width="1" height="37"/>
	<rect x="12" y="12" class="st0" width="1" height="25"/>
	<rect x="14" y="16" class="st0" width="1" height="17"/>
	<rect x="16" y="12" class="st0" width="1" height="24"/>
	<rect x="18" y="15" class="st0" width="1" height="20"/>
	<rect x="20" y="12" class="st0" width="1" height="27"/>
	<rect x="22" y="20" class="st0" width="1" height="23"/>
	<rect x="24" y="10" class="st0" width="1" height="33"/>
	<rect x="26" y="15" class="st0" width="1" height="25"/>
	<rect x="28" y="12" class="st0" width="1" height="28"/>
	<rect x="30" y="9" class="st0" width="1" height="33"/>
	<rect x="32" y="9" class="st0" width="1" height="26"/>
	<rect x="66" y="7" class="st0" width="1" height="37"/>
	<rect x="64" class="st0" width="1" height="37"/>
	<rect x="62" y="5" class="st0" width="1" height="27"/>
	<rect x="60" y="9" class="st0" width="1" height="27"/>
	<rect x="58" y="4" class="st0" width="1" height="27"/>
	<rect x="56" y="3" class="st0" width="1" height="37"/>
	<rect x="54" y="9" class="st0" width="1" height="25"/>
	<rect x="52" y="13" class="st0" width="1" height="17"/>
	<rect x="50" y="9" class="st0" width="1" height="24"/>
	<rect x="48" y="12" class="st0" width="1" height="20"/>
	<rect x="46" y="9" class="st0" width="1" height="27"/>
	<rect x="44" y="17" class="st0" width="1" height="23"/>
	<rect x="42" y="7" class="st0" width="1" height="33"/>
	<rect x="40" y="12" class="st0" width="1" height="25"/>
	<rect x="38" y="9" class="st0" width="1" height="28"/>
	<rect x="36" y="6" class="st0" width="1" height="33"/>
	<rect x="34" y="6" class="st0" width="1" height="26"/>
</g>
</svg>
