<?xml version="1.0" encoding="UTF-8"?>
<svg width="365px" height="103px" viewBox="0 0 365 103" version="1.1" xmlns="http://www.w3.org/2000/svg" xmlns:xlink="http://www.w3.org/1999/xlink">
    <!-- Generator: Sketch 47.1 (45422) - http://www.bohemiancoding.com/sketch -->
    <title>NoSQL</title>
    <desc>Created with Sketch.</desc>
    <defs></defs>
    <g id="Symbols" stroke="none" stroke-width="1" fill="none" fill-rule="evenodd">
        <g id="NoSQL" fill="#000000">
            <path d="M69.4023438,87 L51.8242188,87 L17.6054688,30.8671875 L17.6054688,87 L0.02734375,87 L0.02734375,1.6875 L17.6054688,1.6875 L51.8828125,57.9375 L51.8828125,1.6875 L69.4023438,1.6875 L69.4023438,87 Z M81.0039062,54.7148438 C81.0039062,48.4257498 82.2148316,42.8203371 84.6367188,37.8984375 C87.0586059,32.9765379 90.5448991,29.1679822 95.0957031,26.4726562 C99.6465071,23.7773303 104.929657,22.4296875 110.945312,22.4296875 C119.500043,22.4296875 126.482395,25.0468488 131.892578,30.28125 C137.302761,35.5156512 140.320309,42.6249551 140.945312,51.609375 L141.0625,55.9453125 C141.0625,65.6719236 138.347683,73.47458 132.917969,79.3535156 C127.488254,85.2324513 120.203171,88.171875 111.0625,88.171875 C101.921829,88.171875 94.6269804,85.2422168 89.1777344,79.3828125 C83.7284884,73.5234082 81.0039062,65.5547379 81.0039062,55.4765625 L81.0039062,54.7148438 Z M97.9375,55.9453125 C97.9375,61.9609676 99.0703012,66.560531 101.335938,69.7441406 C103.601574,72.9277503 106.843729,74.5195312 111.0625,74.5195312 C115.164083,74.5195312 118.367176,72.9472813 120.671875,69.8027344 C122.976574,66.6581874 124.128906,61.6289408 124.128906,54.7148438 C124.128906,48.8163768 122.976574,44.24611 120.671875,41.0039062 C118.367176,37.7617025 115.125021,36.140625 110.945312,36.140625 C106.804667,36.140625 103.601574,37.751937 101.335938,40.9746094 C99.0703012,44.1972817 97.9375,49.1874662 97.9375,55.9453125 Z M196.84375,64.6171875 C196.84375,61.2968584 195.671887,58.7480558 193.328125,56.9707031 C190.984363,55.1933505 186.765655,53.3183692 180.671875,51.3457031 C174.578095,49.373037 169.753924,47.4296971 166.199219,45.515625 C156.51167,40.2812238 151.667969,33.2305131 151.667969,24.3632812 C151.667969,19.7538832 152.966784,15.6425962 155.564453,12.0292969 C158.162122,8.41599756 161.892554,5.59376016 166.755859,3.5625 C171.619165,1.53123984 177.078095,0.515625 183.132812,0.515625 C189.226593,0.515625 194.656226,1.61912959 199.421875,3.82617188 C204.187524,6.03321416 207.888659,9.14841738 210.525391,13.171875 C213.162123,17.1953326 214.480469,21.7655994 214.480469,26.8828125 L196.902344,26.8828125 C196.902344,22.976543 195.671887,19.939464 193.210938,17.7714844 C190.749988,15.6035048 187.292991,14.5195312 182.839844,14.5195312 C178.542947,14.5195312 175.203137,15.4277253 172.820312,17.2441406 C170.437488,19.060556 169.246094,21.4531102 169.246094,24.421875 C169.246094,27.1953264 170.642564,29.5195219 173.435547,31.3945312 C176.22853,33.2695406 180.339817,35.0273355 185.769531,36.6679688 C195.769581,39.6757963 203.054665,43.4062277 207.625,47.859375 C212.195335,52.3125223 214.480469,57.8593418 214.480469,64.5 C214.480469,71.8828494 211.687528,77.6738071 206.101562,81.8730469 C200.515597,86.0722866 192.996141,88.171875 183.542969,88.171875 C176.980436,88.171875 171.003933,86.9707151 165.613281,84.5683594 C160.222629,82.1660036 156.111342,78.8750209 153.279297,74.6953125 C150.447251,70.5156041 149.03125,65.6719025 149.03125,60.1640625 L166.667969,60.1640625 C166.667969,69.5781721 172.292913,74.2851562 183.542969,74.2851562 C187.722677,74.2851562 190.984363,73.4355554 193.328125,71.7363281 C195.671887,70.0371009 196.84375,67.6640777 196.84375,64.6171875 Z M296.335938,46.2773438 C296.335938,54.2461336 295.046888,61.1698925 292.46875,67.0488281 C289.890612,72.9277638 286.316429,77.6445135 281.746094,81.1992188 L295.925781,92.3320312 L284.734375,102.234375 L266.570312,87.6445312 C264.49999,87.9960955 262.351574,88.171875 260.125,88.171875 C253.054652,88.171875 246.746121,86.4726732 241.199219,83.0742188 C235.652316,79.6757643 231.355484,74.8222972 228.308594,68.5136719 C225.261704,62.2050466 223.71875,54.9492598 223.679688,46.7460938 L223.679688,42.5273438 C223.679688,34.1288643 225.193344,26.7363601 228.220703,20.3496094 C231.248062,13.9628587 235.525363,9.06056396 241.052734,5.64257812 C246.580106,2.22459229 252.898402,0.515625 260.007812,0.515625 C267.117223,0.515625 273.435519,2.22459229 278.962891,5.64257812 C284.490262,9.06056396 288.767563,13.9628587 291.794922,20.3496094 C294.822281,26.7363601 296.335938,34.1093332 296.335938,42.46875 L296.335938,46.2773438 Z M278.523438,42.4101562 C278.523438,33.464799 276.921891,26.667992 273.71875,22.0195312 C270.515609,17.3710705 265.945342,15.046875 260.007812,15.046875 C254.109346,15.046875 249.55861,17.3417739 246.355469,21.9316406 C243.152328,26.5215073 241.53125,33.2499557 241.492188,42.1171875 L241.492188,46.2773438 C241.492188,54.9883248 243.093734,61.7460697 246.296875,66.5507812 C249.500016,71.3554928 254.109345,73.7578125 260.125,73.7578125 C266.023467,73.7578125 270.554672,71.4433825 273.71875,66.8144531 C276.882828,62.1855237 278.484375,55.4375443 278.523438,46.5703125 L278.523438,42.4101562 Z M326.804688,72.8789062 L364.128906,72.8789062 L364.128906,87 L309.226562,87 L309.226562,1.6875 L326.804688,1.6875 L326.804688,72.8789062 Z"></path>
        </g>
    </g>
</svg>