<?xml version="1.0" encoding="UTF-8"?>
<svg width="249px" height="101px" viewBox="0 0 249 101" version="1.1" xmlns="http://www.w3.org/2000/svg" xmlns:xlink="http://www.w3.org/1999/xlink">
    <!-- Generator: Sketch 47.1 (45422) - http://www.bohemiancoding.com/sketch -->
    <title>oracle</title>
    <desc>Created with Sketch.</desc>
    <defs>
        <polygon id="path-1" points="7.20804709e-16 36.9332305 7.20804709e-16 0.805718761 50.350198 0.805718761 50.350198 36.9332305"></polygon>
        <polygon id="path-3" points="0.9888 0.742 45.3264404 0.742 45.3264404 37.0170516 0.9888 37.0170516 0.9888 0.742"></polygon>
        <polygon id="path-5" points="2.289 2.94019015 2.289 0.8692 0.2184 0.8692 0.2184 2.94019015 2.289 2.94019015"></polygon>
    </defs>
    <g id="Symbols" stroke="none" stroke-width="1" fill="none" fill-rule="evenodd">
        <g id="oracle">
            <g id="Page-1">
                <g id="Group-3" transform="translate(0.000000, 0.258300)">
                    <mask id="mask-2" fill="white">
                        <use xlink:href="#path-1"></use>
                    </mask>
                    <g id="Clip-2"></g>
                    <path d="M25.7252,7.8692 C22.7292,7.8692 19.7332,7.9152 16.7382,7.8552 C14.0282,7.8022 11.8332,9.2182 9.9752,10.7532 C6.9972,13.2122 6.0332,21.8392 8.2832,25.0792 C9.5532,26.9082 11.2342,28.7572 13.1672,29.7352 C15.0462,30.6862 17.4742,30.7182 19.6772,30.8272 C22.9972,30.9902 26.3332,30.8312 29.6612,30.8832 C31.7602,30.9152 33.7272,30.6252 35.7592,29.9312 C40.5782,28.2832 43.1932,25.0732 43.2172,20.1472 C43.2232,19.1492 43.2542,18.1482 43.2122,17.1522 C43.0372,13.0152 37.8772,7.9572 33.7142,7.8782 C31.0522,7.8282 28.3882,7.8692 25.7252,7.8692 M25.2572,36.8692 C21.9332,36.8692 18.6032,36.7392 15.2872,36.9002 C10.6692,37.1262 7.1172,34.9812 4.5942,31.5632 C2.8112,29.1482 0.4082,26.6182 1.2182,23.0242 C-0.1288,21.1692 -0.2588,18.8632 0.3422,16.9972 C1.1822,14.3902 1.4962,11.6332 3.1352,9.1712 C6.4422,4.2042 10.5172,0.9062 16.7042,0.8752 C22.3542,0.8472 28.0102,0.7132 33.6532,0.9152 C38.8252,1.1002 43.1222,3.4432 46.1672,7.6052 C48.0062,10.1192 49.5482,12.9472 49.2032,16.2952 C49.0352,17.9192 51.5882,19.1792 49.5692,21.1322 C48.2852,22.3742 49.9792,24.5472 48.5302,26.1822 C47.4472,27.4042 47.0122,29.1842 46.2092,30.6732 C44.0722,34.6362 40.5692,36.5692 36.2232,36.8252 C32.5792,37.0392 28.9132,36.8692 25.2572,36.8692" id="Fill-1" fill="#FA1816" mask="url(#mask-2)"></path>
                </g>
                <path d="M76.7335,26.1275 C80.6665,30.0965 84.1505,33.5385 88.0795,37.5065 C84.9805,38.5675 82.5435,37.9905 80.1925,38.0725 C79.6885,38.0905 79.0915,37.4775 78.6515,37.0405 C73.2175,31.6375 67.8015,26.2175 62.4025,20.7805 C62.2205,20.5955 62.2745,20.1765 62.1475,19.4795 C62.8585,19.3615 63.5645,19.1485 64.2715,19.1435 C68.7685,19.1125 73.2735,18.9705 77.7605,19.1805 C80.9845,19.3315 81.6775,16.8785 82.9105,14.9055 C83.2945,14.2925 82.1615,10.1985 81.3665,9.8465 C79.5305,9.0305 77.7085,8.0975 75.5835,8.1135 C70.2655,8.1555 64.9475,8.1275 59.2185,8.1275 L59.2185,22.0385 C59.2185,26.3695 59.2545,30.7005 59.2045,35.0305 C59.1765,37.4595 58.4555,38.0785 55.9395,38.1275 C52.9515,38.1855 52.2445,37.6615 52.2335,34.9735 C52.1945,24.8125 52.1985,14.6505 52.2315,4.4905 C52.2395,1.7215 52.8615,1.1475 55.7315,1.1365 C63.2275,1.1095 70.7235,1.1735 78.2185,1.1115 C83.1405,1.0705 86.1385,4.0905 88.1285,7.8895 C90.7775,12.9475 89.1655,19.8145 85.1345,23.7325 C83.4375,25.3845 81.5455,26.3625 79.1235,26.1355 C78.5205,26.0795 77.9075,26.1275 76.7335,26.1275" id="Fill-4" fill="#FA1816"></path>
                <path d="M210.5211,23.1275 C209.5311,25.5205 211.0791,26.4835 212.2121,27.6125 C213.7171,29.1115 215.4181,30.1525 217.6631,30.1395 C223.9911,30.1045 230.3191,30.1275 236.6471,30.1275 L240.5421,30.1275 C239.5461,32.3415 238.8881,34.2085 237.8761,35.8575 C237.4671,36.5245 236.2911,37.0615 235.4561,37.0735 C228.6291,37.1695 221.7801,37.4415 214.9811,37.0015 C211.3081,36.7635 208.3091,34.4585 206.1891,31.1885 C203.9281,27.7005 202.7321,23.7275 202.4231,19.8205 C202.1791,16.7245 203.1871,13.1635 204.7121,10.4015 C206.0751,7.9345 207.8231,5.4905 210.7061,3.7855 C213.1581,2.3355 215.6831,1.4085 218.1451,1.2675 C225.0791,0.8675 232.0501,1.1275 239.0141,1.1275 C238.8161,6.0975 237.0371,8.1015 232.9821,8.1225 C228.6521,8.1455 224.3221,8.1275 219.9931,8.1275 C215.5321,8.1275 212.5201,10.5315 210.2491,14.0845 C210.0221,14.4395 210.2181,15.0645 210.2181,15.9285 C211.1081,15.9935 212.0261,16.1165 212.9451,16.1185 C220.4391,16.1345 227.9331,16.1185 235.4271,16.1355 C236.9431,16.1385 237.8691,17.3445 237.1761,18.6035 C236.4181,19.9795 235.3541,21.1905 234.3891,22.4475 C233.3701,23.7755 231.9091,23.0755 230.6761,23.0895 C224.0191,23.1695 217.3591,23.1275 210.5211,23.1275" id="Fill-6" fill="#FA1816"></path>
                <g id="Group-10" transform="translate(88.000000, 0.258300)">
                    <mask id="mask-4" fill="white">
                        <use xlink:href="#path-3"></use>
                    </mask>
                    <g id="Clip-9"></g>
                    <path d="M8.5138,36.7613 L0.9888,36.7613 C1.4108,35.8503 1.6718,35.2053 2.0028,34.5973 C2.3748,33.9143 2.8378,33.2813 3.2138,32.5993 C7.5548,24.7353 11.8798,16.8643 16.2218,9.0013 C17.3468,6.9653 18.4138,4.8873 19.6818,2.9423 C21.7278,-0.1967 25.3918,-0.0097 27.5258,3.7073 C31.1528,10.0233 34.4188,16.5613 38.3068,22.7083 C40.7268,26.5343 41.8578,31.1003 45.1658,34.4063 C45.4988,34.7383 45.2108,35.6923 45.2108,36.7093 C44.1388,36.7613 43.0168,36.6963 41.9428,36.8923 C39.0678,37.4183 37.0798,36.2773 36.4668,33.5383 C35.8728,30.8833 34.2168,30.7813 32.1008,30.8443 C28.9388,30.9393 25.7708,30.8813 22.6058,30.8653 C19.1868,30.8493 18.4478,30.3863 17.2498,27.2833 C17.0288,26.7103 17.2188,25.9773 17.2188,24.9673 L31.0908,24.9673 C31.7198,21.3933 28.5728,19.7913 27.8178,17.1153 C27.1188,14.6343 25.4678,12.4213 23.9808,9.6093 C22.6208,11.0423 21.5628,12.0763 20.7968,13.6893 C19.1388,17.1813 17.0278,20.4543 15.2468,23.8923 C14.2598,25.7993 13.7048,27.9303 12.7038,29.8293 C11.4778,32.1563 9.9908,34.3453 8.5138,36.7613" id="Fill-8" fill="#FA1816" mask="url(#mask-4)"></path>
                </g>
                <path d="M167.5221,30.1275 C167.1481,31.8105 166.9201,33.0345 166.6001,34.2335 C166.0301,36.3685 164.8011,37.2735 162.4021,37.1915 C156.5861,36.9945 150.7581,37.0415 144.9381,37.1545 C140.3141,37.2445 137.0761,34.8025 134.2651,31.6145 C132.7841,29.9345 130.1651,22.6795 130.2641,20.3325 C130.5421,13.7645 132.3261,7.9695 138.3251,4.0565 C141.4001,2.0495 144.4671,1.0175 148.1091,1.0915 C154.3941,1.2205 160.6841,1.1275 166.9711,1.1275 C166.9341,5.5055 164.6681,8.1045 161.0421,8.1225 C156.8831,8.1435 152.7241,8.1185 148.5651,8.1295 C143.6171,8.1435 139.6691,10.2295 138.0691,14.9065 C135.9081,21.2225 136.7151,26.4895 143.1131,29.4725 C144.0791,29.9225 145.2531,30.0905 146.3341,30.0995 C153.1471,30.1545 159.9601,30.1275 167.5221,30.1275" id="Fill-11" fill="#FA1816"></path>
                <path d="M177.2184,30.1046 L204.0184,30.1046 C204.9084,33.2776 201.9894,34.6036 201.0374,36.7636 C200.2884,38.4666 198.6024,38.1266 197.1394,38.1266 C190.1574,38.1276 183.1764,38.1496 176.1944,38.1196 C171.9164,38.1006 170.2394,36.4376 170.2274,32.1666 C170.1994,21.8966 170.2184,11.6266 170.2184,1.1276 C171.7824,1.1276 173.0834,1.0786 174.3804,1.1386 C176.4374,1.2346 177.1944,1.9976 177.2054,4.1556 C177.2404,11.3026 177.2184,18.4506 177.2184,25.5986 L177.2184,30.1046 Z" id="Fill-13" fill="#FA1816"></path>
                <path d="M133.2184,84.1275 L136.4174,84.1275 C136.7444,84.1275 137.0854,84.1875 137.3974,84.1165 C138.5304,83.8615 139.6174,82.2495 139.1644,81.1585 C138.8374,80.3735 138.0914,79.3605 137.3814,79.2215 C136.0444,78.9595 134.5974,79.2545 133.2184,79.3165 L133.2184,84.1275 Z M133.3194,95.1275 C134.6404,95.1275 135.6184,95.1385 136.5964,95.1255 C138.6084,95.0975 139.9564,93.9115 140.2184,91.9565 C140.3884,90.6875 139.4534,89.2405 138.2234,89.1545 C136.6234,89.0435 135.0104,89.1275 133.3194,89.1275 L133.3194,95.1275 Z M128.3434,98.9855 L128.3434,74.1275 C131.4184,74.1275 134.3814,74.0085 137.3314,74.1535 C142.3764,74.4015 145.3714,78.4145 144.1854,83.2345 C144.0464,83.8005 143.5384,84.3505 143.0664,84.7465 C141.8854,85.7365 142.0924,86.4765 143.0834,87.5515 C145.4464,90.1155 146.1404,93.0285 144.2074,96.1955 C143.7954,96.8705 143.3544,97.8505 142.7394,98.0235 C139.2284,99.0145 135.9174,101.5705 131.9284,99.4225 C131.0154,98.9315 129.7294,99.1315 128.3434,98.9855 L128.3434,98.9855 Z" id="Fill-15" fill="#161616"></path>
                <path d="M209.277,81.9816 L204.386,81.9816 C204.28,81.0556 204.191,80.2696 204.06,79.1276 C202.648,79.1276 201.157,78.9476 199.75,79.2116 C199.15,79.3246 198.522,80.3026 198.298,81.0106 C198.173,81.4036 198.73,82.3076 199.198,82.5396 C201.122,83.4946 203.104,84.9006 205.113,84.9866 C208.413,85.1276 209.281,87.7216 210.025,89.6276 C212.019,94.7456 207.818,100.1436 202.193,100.0726 C200.477,100.0516 198.797,100.4646 196.948,99.5126 C193.526,97.7476 191.94,95.3136 192.29,91.1276 C193.082,91.1276 193.863,91.1796 194.634,91.1176 C196.43,90.9716 197.735,91.3196 198.269,93.3986 C198.718,95.1476 200.307,95.2406 201.873,95.1426 C203.222,95.0576 203.905,94.3086 204.215,93.1016 C204.497,91.9946 204.066,91.0566 203.127,90.5876 C201.897,89.9726 200.555,89.5716 199.24,89.1416 C198.648,88.9476 197.967,89.0036 197.393,88.7796 C194.172,87.5196 193.498,86.0816 193.151,82.6326 C192.738,78.5396 194.646,76.3376 198.073,74.7096 C200.486,73.5636 202.932,74.1726 205.314,74.2626 C206.324,74.3006 207.27,75.8316 208.26,76.6656 C209.978,78.1116 208.941,80.0186 209.277,81.9816" id="Fill-17" fill="#161616"></path>
                <path d="M6.318,95.1275 C7.371,95.1275 8.504,95.4575 9.241,95.0575 C10.673,94.2815 12.965,94.2385 13.151,92.1195 C13.319,90.2075 14.496,88.6405 14.328,86.5565 C14.124,84.0265 13.5,81.9435 11.739,80.1145 C10.046,78.3565 8.174,79.2875 6.318,79.3135 L6.318,95.1275 Z M1.393,74.1065 C5.432,74.2585 9.309,73.6945 13.099,75.1005 C16.197,76.2495 19.091,79.8055 19.202,83.1305 C19.285,85.6275 19.165,88.1295 19.233,90.6275 C19.311,93.5185 17.379,95.2125 15.736,97.2035 C14.268,98.9815 12.543,99.2045 10.501,99.1485 C7.525,99.0665 4.544,99.1275 1.393,99.1275 L1.393,74.1065 Z" id="Fill-19" fill="#161616"></path>
                <path d="M230.3141,88.9581 L230.3141,93.9851 L240.0631,93.9851 C240.1211,94.9021 240.2291,95.6761 240.2081,96.4461 C240.1171,99.7741 239.8241,100.0791 236.5411,100.1201 C233.7161,100.1561 230.8911,100.1711 228.0671,100.1121 C226.1821,100.0731 225.2491,99.2881 225.2391,97.6121 C225.1921,89.8451 225.2181,82.0781 225.2181,74.1271 C228.9921,74.1271 232.4571,74.1111 235.9201,74.1321 C240.0821,74.1561 240.0821,74.1701 240.1891,79.1271 C238.2661,79.1271 236.3271,79.1131 234.3881,79.1301 C230.3121,79.1671 230.3121,79.1741 230.3501,83.9421 L239.0141,83.9421 C239.1001,85.6601 239.1781,87.2171 239.2661,88.9581 L230.3141,88.9581 Z" id="Fill-21" fill="#161616"></path>
                <path d="M171.1642,89.9957 C171.1172,86.8997 170.1972,84.0797 168.3342,81.2097 C167.5342,84.1527 166.7722,86.9537 165.9452,89.9957 L171.1642,89.9957 Z M179.4262,99.1277 C177.8432,99.1277 176.8612,99.0907 175.8822,99.1357 C174.3062,99.2087 173.6492,98.3437 173.1882,96.9437 C172.2732,94.1617 172.2032,94.1787 169.6752,94.1307 C168.6812,94.1117 167.6832,94.1767 166.6922,94.1157 C165.2842,94.0297 164.6712,94.9347 164.2262,96.0177 C162.9672,99.0777 162.9812,99.0887 159.9872,99.1227 C159.5102,99.1277 159.0332,99.0657 158.0642,99.0037 C159.2372,96.0507 160.1932,93.2217 161.1002,90.3697 C162.4972,85.9747 163.4732,81.4517 165.1772,77.1277 C166.2962,74.2877 166.1192,74.2137 168.5522,74.1307 C169.2142,74.1087 169.8782,74.1117 170.5402,74.1327 C171.0112,74.1477 171.4792,74.2127 171.8302,74.2447 C174.3382,82.4617 176.8082,90.5507 179.4262,99.1277 L179.4262,99.1277 Z" id="Fill-23" fill="#161616"></path>
                <path d="M40.0402,89.9513 L46.2242,89.9513 C45.4002,86.8963 44.6302,84.0413 43.5562,80.0553 C42.1642,83.9743 41.1492,86.8303 40.0402,89.9513 M40.6262,74.2193 C46.4442,74.0803 46.3092,74.1263 48.2582,79.9083 C50.0312,85.1683 50.8002,90.7293 53.1652,95.8133 C53.5412,96.6203 53.2182,97.7523 53.2182,99.1273 C52.3382,99.1273 51.5582,99.0903 50.7832,99.1353 C49.1892,99.2273 48.2912,99.2003 48.0612,96.9303 C47.7872,94.2293 47.0622,94.2823 44.1502,94.0863 C41.4712,93.9063 39.3382,94.3203 38.5702,97.2823 C38.2102,98.6703 37.5902,99.5393 35.9222,99.1573 C35.1592,98.9823 34.3222,99.1273 33.0552,99.1273 C35.0102,90.5983 37.9832,82.6803 40.6262,74.2193" id="Fill-25" fill="#161616"></path>
                <path d="M106.2247,89.9274 C105.4097,86.9004 104.6517,84.0864 103.8297,81.0344 C101.1607,83.5034 101.7807,87.0674 99.8967,89.9274 L106.2247,89.9274 Z M97.8727,99.0294 L93.4297,99.0294 C92.6147,96.8344 94.1417,95.0954 94.6697,93.2544 C96.4927,86.8954 98.5707,80.6084 100.5747,74.2224 C101.0237,74.1924 101.5067,74.0944 101.9747,74.1394 C103.3997,74.2804 105.1837,74.0134 106.1427,74.7724 C107.2237,75.6254 108.0597,77.3984 108.1247,78.8124 C108.3247,83.1384 110.7747,86.7534 111.5277,90.8864 C111.9987,93.4744 112.8787,95.9884 113.6707,98.8814 L108.5087,98.8814 C107.8617,95.9304 106.5787,94.3124 104.7097,94.1274 C100.3437,93.6964 100.1057,93.8644 97.8727,99.0294 L97.8727,99.0294 Z" id="Fill-27" fill="#161616"></path>
                <path d="M239.2184,56.1275 L1.2184,56.1275 C1.4824,55.7945 1.7254,55.1955 2.0144,55.1725 C3.3394,55.0695 4.6764,55.1275 6.0094,55.1275 L234.4274,55.1275 C235.7604,55.1275 237.0974,55.0695 238.4224,55.1725 C238.7114,55.1955 238.9544,55.7945 239.2184,56.1275" id="Fill-29" fill="#161616"></path>
                <path d="M82.2184,74.1315 L82.2184,78.9475 C81.4764,79.0065 80.7094,79.0875 79.9404,79.1245 C76.6354,79.2835 76.2504,79.6165 76.2274,82.7705 C76.1924,87.5925 76.2554,92.4155 76.2014,97.2375 C76.1774,99.3735 75.3224,100.1205 73.2404,100.1275 C71.1484,100.1345 70.2634,99.3875 70.2374,97.2815 C70.1774,92.6265 70.2284,87.9695 70.2154,83.3135 C70.2054,80.0775 69.8704,79.6925 66.5384,79.1425 C65.9074,79.0385 65.2444,79.1275 64.4074,79.1275 L64.4074,74.1265 C70.4374,74.1305 76.3324,74.1225 82.2184,74.1315" id="Fill-31" fill="#161616"></path>
                <path d="M247.2184,2.1275 C247.1104,2.4025 247.0784,2.7665 246.8804,2.9385 C245.8184,3.8595 244.9384,4.7605 246.1974,6.1865 C246.3554,6.3665 246.2184,6.8075 246.2184,7.1275 C244.8854,7.3075 244.0374,7.0705 244.1674,5.3775 C244.2264,4.6065 244.8704,3.2935 243.2184,3.1275 C243.6104,2.7945 243.9674,2.2425 244.4014,2.1725 C245.3194,2.0245 246.2774,2.1275 247.2184,2.1275" id="Fill-33" fill="#FA1816"></path>
                <g id="Group-37" transform="translate(246.000000, 6.258300)">
                    <mask id="mask-6" fill="white">
                        <use xlink:href="#path-5"></use>
                    </mask>
                    <g id="Clip-36"></g>
                    <path d="M0.2184,0.8692 L2.2184,0.8692 C2.5214,2.5052 1.8544,3.1722 0.2184,2.8692 L0.2184,0.8692 Z" id="Fill-35" fill="#FA1816" mask="url(#mask-6)"></path>
                </g>
            </g>
        </g>
    </g>
</svg>