<svg id="Слой_1" data-name="Слой 1" xmlns="http://www.w3.org/2000/svg" viewBox="0 0 11 13"><defs><style>.cls-1{fill:#ea0000;}</style></defs><title>Artboard 12_2</title><polygon class="cls-1" points="6.91 11.97 1.06 11.97 1.06 1.04 6.91 1.04 6.91 2.92 7.91 2.92 7.91 0.04 0.06 0.04 0.06 12.97 7.91 12.97 7.91 7.07 6.91 7.07 6.91 11.97"/><path class="cls-1" d="M6,8H2v2.94H6ZM5,9.94H3V9H5Z"/><polygon class="cls-1" points="11 4.97 9.97 4.97 9.97 4.03 8.97 4.03 8.97 4.97 5 4.97 5 5.97 8.97 5.97 8.97 6.98 9.97 6.98 9.97 5.97 11 5.97 11 4.97"/></svg>