<?xml version="1.0" encoding="utf-8"?>
<!-- Generator: Adobe Illustrator 21.0.0, SVG Export Plug-In . SVG Version: 6.00 Build 0)  -->
<svg version="1.1" id="Layer_1" xmlns="http://www.w3.org/2000/svg" xmlns:xlink="http://www.w3.org/1999/xlink" x="0px" y="0px"
	 viewBox="0 0 236 241.2" style="enable-background:new 0 0 236 241.2; fill: #1D1D1B" xml:space="preserve" >
<style type="text/css">
	.st0{fill:#1D1D1B;}
	.st1{fill:#E21118;}
	.st2{fill:#2B2523;}
</style>
<g>
	<g>
		<path class="st0" d="M50.9,206.4c-5.6,2.5-8.5,7.9-8.5,15.9c0,0,0,0,0,0.2c0,11.9,6.1,18,18.2,18h13.9v-7.6H61.9
			c-6.1,0-8.7-0.5-8.8-6.5h21.5v-4v-3.8H52.9c0.2-5.6,2.9-6.7,9-6.7h12.4v-5.6v-1.8H60.4C56.7,204.6,53.4,205.1,50.9,206.4z"/>
		<path class="st0" d="M32.5,219.9c6.3-1.4,9.7-6,9.7-13.5v-0.2c0-10.1-5.4-14.8-16.8-14.8H0v15v16.1v18h10.1v-18v-1.3h12.1l0.7,1.3
			l10.1,18h11.4l-10.6-18L32.5,219.9z M31.9,206.6c0,4.9-3.1,6-9,6H10.3v-6.1v-6.1h12.6C28.7,200.3,31.9,201.2,31.9,206.6
			C31.9,206.4,31.9,206.4,31.9,206.6z"/>
		<polygon class="st0" points="97.8,221.9 112.6,206.4 114.4,204.6 102.1,204.6 100.5,206.4 87,221.9 87,206.4 87,191.4 77.4,191.4 
			77.4,206.4 77.4,222.5 77.4,240.5 87,240.5 87,223 101.6,240.5 114.4,240.5 98.2,222.5 		"/>
		<path class="st0" d="M136.8,218.5h-8.5c-3.1,0-4.7-0.9-4.7-3.2c0-3.1,2.3-3.2,6.5-3.2h16.8v-5.6v-1.8h-20.4
			c-3.6,0-6.3,0.5-8.3,1.8c-2.9,1.8-4.3,4.7-4.3,9.2c0,3.1,0.5,5.2,1.6,6.9c1.8,2.7,5.4,3.4,11,3.4h8.1c3.6,0,5.1,0.9,5.1,3.6
			s-1.4,3.4-5.1,3.4h-20.2v7.6h24.5c5.4,0,9.7-4.5,9.7-11.4c0-2.7-0.7-5.1-2-6.7C144.9,219.7,141.5,218.5,136.8,218.5z"/>
		<path class="st0" d="M179.3,206.4c-2.7-1.4-6.1-2.3-10.1-2.3c-4,0-7.6,0.9-10.3,2.3c-5.6,2.9-8.8,8.7-8.8,15.9c0,0,0,0,0,0.2
			c0,11.2,7.4,18.8,19.1,18.8c11.5,0,18.8-7.6,18.8-18.8c0,0,0,0,0-0.2C188,215.1,184.9,209.3,179.3,206.4z M178.3,222.5
			c0,7-3.6,10.8-9.2,10.8c-5.6,0-9.2-3.8-9.2-10.8c0,0,0,0,0-0.2c0-6.9,3.6-10.6,9.2-10.6C174.7,211.6,178.3,215.4,178.3,222.5
			C178.3,222.3,178.3,222.3,178.3,222.5z"/>
		<path class="st0" d="M226.1,204.6v-13.2h-9.6v13.2h-13.7v-2.9c0-2.5,1.4-3.2,4.5-3.2h4.5v-7h-9c-7.9,0-9.7,2-9.7,9.6v3.6h-6.9v1.8
			v5.1h6.9v10.8v18h9.7v-18v-10.8h13.7v10.8v6.7c0,7.4,4,11.4,10.8,11.4h8.7v-7.2h-4c-4.9,0-6.1-2.2-6.1-7.4v-3.6v-10.8h9.9v-4.9
			v-1.8H226.1z"/>
	</g>
	<polygon class="st1" points="231.5,172 2.5,172 119.8,0 	"/>
	<polygon class="st2" points="2.9,172 184,152.8 232,172 	"/>
</g>
</svg>
