<?xml version="1.0" encoding="UTF-8"?>
<svg width="2560px" height="898px" viewBox="0 0 2560 898" version="1.1" xmlns="http://www.w3.org/2000/svg" xmlns:xlink="http://www.w3.org/1999/xlink">
    <!-- Generator: sketchtool 48.2 (47327) - http://www.bohemiancoding.com/sketch -->
    <title>CA916540-70B4-4E6A-BAB7-8C983A2810EB</title>
    <desc>Created with sketchtool.</desc>
    <defs>
        <rect id="path-1" x="0" y="0" width="403" height="212"></rect>
    </defs>
    <g id="Desktop-HD-Copy" stroke="none" stroke-width="1" fill="none" fill-rule="evenodd" transform="translate(0.000000, -356.000000)">
        <g id="spector_sl1_bg" transform="translate(0.000000, 348.000000)">
            <g id="Group">
                <path d="M1164.29431,134 L1183.1348,147.192258 L1180.8405,150.468866 L1162,137.276608 L1164.29431,134 Z M1174.29431,120 L1193.1348,133.192258 L1190.8405,136.468866 L1172,123.276608 L1174.29431,120 Z M1183.29431,106 L1202.1348,119.192258 L1199.8405,122.468866 L1181,109.276608 L1183.29431,106 Z" id="Combined-Shape" fill="#FF6666"></path>
                <path d="M1479.87,352.4 L1070,352.4 L1070.53,351.62 L1278.33,44 L1479.87,352.4 Z M1071.87,351.4 L1478,351.4 L1278.31,45.81 L1071.87,351.4 Z" id="Shape" fill="#2B2523" fill-rule="nonzero"></path>
                <path d="M1414.86,318.41 L1136,318.41 L1277.74,108 L1414.86,318.41 Z M1137.86,317.41 L1413,317.41 L1277.72,109.81 L1137.86,317.41 Z" id="Shape" fill="#2B2523" fill-rule="nonzero"></path>
                <path d="M793,361 L793,360.2 L793,329.9 L793,329.7 L793,327 L766,327 L712.3,344 L712,344 L712,391 L752,391 L752,390.2 L752.4,390.7 L793,361 Z M790,358 L769,358 L769,340 L790,331.2 L790,358 Z M766,357.6 L752,365.5 L752,347.1 L766,341.2 L766,357.6 Z M748,367.8 L716,385.9 L716,348 L748,348 L748,367.8 Z M785,330 L769,336.7 L769,330 L785,330 Z M766,330 L766,338 L751.6,344 L722.4,344 L766,330 Z M720.2,387 L748,371.3 L748,387 L720.2,387 Z M752,387.3 L752,369 L766.1,361 L787.9,361 L752,387.3 Z" id="Shape" fill="#FF6666" fill-rule="nonzero"></path>
                <rect id="Rectangle-3" fill="#FF6666" x="620" y="396" width="40" height="4"></rect>
                <rect id="Rectangle-3-Copy" fill="#FF6666" transform="translate(643.090794, 353.390258) rotate(4.000000) translate(-643.090794, -353.390258) " x="623.090794" y="351.390258" width="40" height="4"></rect>
                <rect id="Rectangle-3-Copy-2" fill="#FF6666" transform="translate(650.090794, 308.390258) rotate(9.000000) translate(-650.090794, -308.390258) " x="630.090794" y="306.390258" width="40" height="4"></rect>
                <rect id="Rectangle-5" fill="#2B2523" x="0" y="213" width="1241" height="3"></rect>
                <path d="M1475,169 C1471.68629,169 1469,171.686292 1469,175 C1469,178.313708 1471.68629,181 1475,181 C1478.31371,181 1481,178.313708 1481,175 C1481,173.408701 1480.36786,171.882578 1479.24264,170.757359 C1478.11742,169.632141 1476.5913,169 1475,169 Z M1475,179 C1472.79086,179 1471,177.209139 1471,175 C1471,172.790861 1472.79086,171 1475,171 C1477.20914,171 1479,172.790861 1479,175 C1479,176.060866 1478.57857,177.078282 1477.82843,177.828427 C1477.07828,178.578573 1476.06087,179 1475,179 Z M1531,177 L1532,177 L1532,178 L1531,178 L1531,177 Z M1531,171 L1532,171 L1532,172 L1531,172 L1531,171 Z M1534,174 L1535,174 L1535,175 L1534,175 L1534,176 L1533,176 L1533,175 L1485,175 L1485,174 L1533,174 L1533,173 L1534,173 L1534,174 Z M1532,172 L1533,172 L1533,173 L1532,173 L1532,172 Z M1532,176 L1533,176 L1533,177 L1532,177 L1532,176 Z" id="Combined-Shape" fill="#2B2523" fill-rule="nonzero"></path>
                <path d="M1877,169 C1873.68629,169 1871,171.686292 1871,175 C1871,178.313708 1873.68629,181 1877,181 C1880.31371,181 1883,178.313708 1883,175 C1883,173.408701 1882.36786,171.882578 1881.24264,170.757359 C1880.11742,169.632141 1878.5913,169 1877,169 Z M1877,179 C1874.79086,179 1873,177.209139 1873,175 C1873,172.790861 1874.79086,171 1877,171 C1879.20914,171 1881,172.790861 1881,175 C1881,176.060866 1880.57857,177.078282 1879.82843,177.828427 C1879.07828,178.578573 1878.06087,179 1877,179 Z M1933,177 L1934,177 L1934,178 L1933,178 L1933,177 Z M1933,171 L1934,171 L1934,172 L1933,172 L1933,171 Z M1936,174 L1937,174 L1937,175 L1936,175 L1936,176 L1935,176 L1935,175 L1887,175 L1887,174 L1935,174 L1935,173 L1936,173 L1936,174 Z M1934,172 L1935,172 L1935,173 L1934,173 L1934,172 Z M1934,176 L1935,176 L1935,177 L1934,177 L1934,176 Z" id="Combined-Shape-Copy" fill="#2B2523" fill-rule="nonzero"></path>
                <path d="M2104,95 C2100.68629,95 2098,97.6862915 2098,101 C2098,104.313708 2100.68629,107 2104,107 C2107.31371,107 2110,104.313708 2110,101 C2110,99.4087011 2109.36786,97.8825776 2108.24264,96.7573593 C2107.11742,95.632141 2105.5913,95 2104,95 Z M2104,105 C2101.79086,105 2100,103.209139 2100,101 C2100,98.790861 2101.79086,97 2104,97 C2106.20914,97 2108,98.790861 2108,101 C2108,102.060866 2107.57857,103.078282 2106.82843,103.828427 C2106.07828,104.578573 2105.06087,105 2104,105 Z M2160,103 L2161,103 L2161,104 L2160,104 L2160,103 Z M2160,97 L2161,97 L2161,98 L2160,98 L2160,97 Z M2163,100 L2164,100 L2164,101 L2163,101 L2163,102 L2162,102 L2162,101 L2114,101 L2114,100 L2162,100 L2162,99 L2163,99 L2163,100 Z M2161,98 L2162,98 L2162,99 L2161,99 L2161,98 Z M2161,102 L2162,102 L2162,103 L2161,103 L2161,102 Z" id="Combined-Shape-Copy-3" fill="#2B2523" fill-rule="nonzero" opacity="0.300000012"></path>
                <path d="M1842,122 C1838.68629,122 1836,124.686292 1836,128 C1836,131.313708 1838.68629,134 1842,134 C1845.31371,134 1848,131.313708 1848,128 C1848,126.408701 1847.36786,124.882578 1846.24264,123.757359 C1845.11742,122.632141 1843.5913,122 1842,122 Z M1842,132 C1839.79086,132 1838,130.209139 1838,128 C1838,125.790861 1839.79086,124 1842,124 C1844.20914,124 1846,125.790861 1846,128 C1846,129.060866 1845.57857,130.078282 1844.82843,130.828427 C1844.07828,131.578573 1843.06087,132 1842,132 Z M1900,130 L1901,130 L1901,131 L1900,131 L1900,130 Z M1900,124 L1901,124 L1901,125 L1900,125 L1900,124 Z M1903,127 L1904,127 L1904,128 L1903,128 L1903,129 L1902,129 L1902,128 L1854,128 L1854,127 L1902,127 L1902,126 L1903,126 L1903,127 Z M1901,125 L1902,125 L1902,126 L1901,126 L1901,125 Z M1901,129 L1902,129 L1902,130 L1901,130 L1901,129 Z" id="Combined-Shape-Copy-2" fill="#2B2523" fill-rule="nonzero"></path>
                <path d="M1563,518.52 C1498.65455,518.657767 1435.84494,498.868198 1383.2,461.87 C1331.77266,425.929104 1292.33364,375.362138 1270,316.73 L1270.93,316.37 C1293.20439,374.804365 1332.52467,425.19675 1383.79,461.01 C1508.02059,547.971908 1676.75017,533.215817 1784,426.01 C1842.80124,367.524934 1875.75715,287.943904 1875.52,205.01 C1875.52,204.01 1875.52,202.39 1875.52,200.49 C1875.52,195.49 1875.52,188.61 1875.52,186 L1876.52117,186 C1876.47,188.59 1876.52,195.45 1876.52,200.46 C1876.52,202.36 1876.52,203.99 1876.52,204.99 C1876.74802,288.180758 1843.68469,368.005182 1784.7,426.67 C1726.03525,485.670631 1646.20202,518.745427 1563,518.52 Z" id="Shape" fill="#2B2523" fill-rule="nonzero"></path>
                <path d="M1653.75,642.53 C1561.1539,642.711159 1470.77017,614.235483 1395,561.01 C1320.96584,509.343267 1264.17466,436.612237 1232,352.26 L1232.93,351.9 C1265.01716,436.072206 1321.66904,508.653498 1395.53,560.22 C1522.54042,648.965235 1686.20307,666.332777 1829.01,606.22 C1995.7756,535.960031 2104.15079,372.55189 2104,191.59 C2104,190.59 2104,187.37 2104,182.78 C2104,163.78 2104.12,119.22 2104,115.05 L2105,115.05 C2105.14,119.23 2105.05,163.79 2105,182.82 C2105,187.42 2105,190.64 2105,191.63 C2104.87167,372.897007 1996.34589,536.512619 1829.4,607.13 C1773.82569,630.619951 1714.08461,642.659998 1653.75,642.53 Z" id="Shape" fill="#2B2523" fill-rule="nonzero"></path>
                <polygon id="Rectangle-9" fill="#E20C18" points="1310 204 2561 204 2561 789 1342.42578 254.621094"></polygon>
                <polygon id="Shape" fill="#2B2523" points="1366.97 292.1 1277.2 154 1183 292.18 1183.22 292.18 1367.02 292.18 1367.17 292.18"></polygon>
                <polygon id="Path-2" fill="#2B2523" points="1340.07275 253.392578 2561.30859 787.039062 2561.30859 906.115221 1341.77393 256.175781"></polygon>
                <g id="img_5" transform="translate(420.000000, 0.000000)">
                    <mask id="mask-2" fill="white">
                        <use xlink:href="#path-1"></use>
                    </mask>
                    <g id="Mask" transform="translate(201.500000, 106.000000) scale(1, -1) translate(-201.500000, -106.000000) "></g>
                    <g mask="url(#mask-2)" fill="#FF6666" fill-rule="nonzero" id="Shape">
                        <g transform="translate(9.000000, 8.000000)">
                            <path d="M191.5,0 C85.9,0 0,85.9 0,191.5 C0,297.1 85.9,383 191.5,383 C297.1,383 383,297.1 383,191.5 C383,85.9 297.1,0 191.5,0 Z M191.5,382 C86.5,382 1,296.5 1,191.5 C1,86.5 86.5,1 191.5,1 C296.5,1 382,86.5 382,191.5 C382,296.5 296.5,382 191.5,382 Z"></path>
                            <path d="M192,50 C113.7,50 50,113.7 50,192 C50,270.3 113.7,334 192,334 C270.3,334 334,270.3 334,192 C334,113.7 270.3,50 192,50 Z M192,333 C114.3,333 51,269.7 51,192 C51,114.3 114.3,51 192,51 C269.7,51 333,114.3 333,192 C333,269.7 269.7,333 192,333 Z"></path>
                            <path d="M191.5,101 C141.6,101 101,141.6 101,191.5 C101,241.4 141.6,282 191.5,282 C216.1,282 238.4,272.1 254.7,256.2 L254.9,256.1 C271.6,239.7 282,216.8 282,191.6 C282,141.6 241.4,101 191.5,101 Z M129.6,256.1 L146.8,230.7 C157.7,243.1 173.7,251 191.5,251 C209.6,251 225.9,242.8 236.8,230 L253.6,255.9 C237.5,271.4 215.6,281 191.5,281 C167.5,281 145.7,271.5 129.6,256.1 Z M227.6,214 L193.6,161.7 L210.8,136.3 C233.6,144.3 250,166 250,191.5 C250,199.5 248.4,207.1 245.5,214 L227.6,214 Z M245.1,215 C243,219.8 240.2,224.3 236.9,228.3 L228.2,215 L245.1,215 Z M226.4,214 L158.1,214 L193,162.6 L226.4,214 Z M193,160.7 L176.3,135 C181.2,133.7 186.3,133 191.5,133 C197.9,133 204,134 209.8,136 L193,160.7 Z M192.4,161.6 L156.9,214 L137.5,214 C134.6,207.1 133,199.5 133,191.5 C133,164.9 150.9,142.4 175.3,135.3 L192.4,161.6 Z M156.2,215 L146.7,229 C143.2,224.8 140.2,220.1 138,215 L156.2,215 Z M157.4,215 L227,215 L236.2,229.1 C225.5,241.8 209.4,250 191.5,250 C173.9,250 158.1,242.2 147.4,229.8 L157.4,215 Z M254.3,255.2 L237.4,229.3 C240.9,225 243.8,220.2 246.1,215.1 L277.4,215.1 L277.4,214.1 L246.5,214.1 C249.3,207.2 250.9,199.6 250.9,191.6 C250.9,165.8 234.3,143.7 211.3,135.5 L227.9,111 L227.1,110.4 L210.3,135.1 C204.4,133.1 198,132 191.4,132 C185.9,132 180.6,132.8 175.6,134.1 L160.2,110.4 L159.4,110.9 L174.7,134.4 C150,141.7 132,164.5 132,191.5 C132,199.5 133.6,207.1 136.4,214 L105.5,214 L105.5,215 L136.8,215 C139.1,220.4 142.3,225.4 146.1,229.9 L128.8,255.3 C112.2,239 101.9,216.4 101.9,191.4 C101.9,142 142,101.9 191.4,101.9 C240.8,101.9 280.9,142 280.9,191.4 C281,216.4 270.8,238.9 254.3,255.2 Z"></path>
                        </g>
                    </g>
                </g>
            </g>
        </g>
    </g>
</svg>