<svg xmlns="http://www.w3.org/2000/svg" viewBox="0 0 164 50"><defs><style>.cls-1{fill:none;}.cls-2{fill:#6cc2bc;}</style></defs><title>Artboard 12_2</title><g id="Слой_2" data-name="Слой 2"><rect class="cls-1" x="3" y="3" width="150.88" height="38.5"/><polygon class="cls-1" points="4.54 44.5 7.11 47.07 157.16 47.07 154.62 44.5 4.54 44.5"/><polygon class="cls-1" points="158.08 43.55 160.92 46.38 160.92 6.98 158.08 4.31 158.08 43.55"/><polygon class="cls-1" points="160.92 6.98 158.08 4.31 158.08 43.55 160.92 46.38 160.92 6.98"/><polygon class="cls-1" points="4.54 44.5 7.11 47.07 157.16 47.07 154.62 44.5 4.54 44.5"/><rect class="cls-1" x="3" y="3" width="150.88" height="38.5"/><path class="cls-2" d="M163.45,5.24,157.89,0H157l-.14.06V0H0V44.5H.3l5.13,5.13.88.37h157.6V6.33ZM3,3H153.88V41.5H3ZM7.11,47.07,4.54,44.5H154.62l2.54,2.57Zm153.81-.69-2.83-2.83V4.31L160.92,7Z"/></g></svg>