<?xml version="1.0" encoding="UTF-8"?>
<svg width="76px" height="68px" viewBox="0 0 76 68" version="1.1" xmlns="http://www.w3.org/2000/svg" xmlns:xlink="http://www.w3.org/1999/xlink">
    <!-- Generator: Sketch 47.1 (45422) - http://www.bohemiancoding.com/sketch -->
    <title>swift</title>
    <desc>Created with Sketch.</desc>
    <defs>
        <linearGradient x1="50%" y1="0%" x2="50%" y2="100%" id="linearGradient-1">
            <stop stop-color="#F5515F" offset="0%"></stop>
            <stop stop-color="#9F041B" offset="100%"></stop>
        </linearGradient>
    </defs>
    <g id="Symbols" stroke="none" stroke-width="1" fill="none" fill-rule="evenodd">
        <g id="swift" fill="url(#linearGradient-1)">
            <g id="Group">
                <path d="M46.6494101,0 C54.105731,10.223951 57.5149916,22.5796475 54.5309309,33.4433137 L54.5309309,33.4433137 C54.2551256,34.4641766 53.9276067,35.4505638 53.5541203,36.4005599 L53.5541203,36.4005599 C53.1997871,36.1630609 52.7592646,35.8949168 52.1885008,35.5731439 L52.1885008,35.5731439 C52.1885008,35.5731439 34.9334287,24.9201624 16.4008416,6.1768906 L16.4008416,6.1768906 C15.9756417,5.74977537 26.414108,21.0876172 38.128174,33.4433137 L38.128174,33.4433137 C32.5909986,30.2447378 17.0405568,18.957787 7.24180569,10.0113511 L7.24180569,10.0113511 C8.51932074,11.926666 9.7987511,14.0564962 11.5033814,15.7630417 L11.5033814,15.7630417 C19.5975022,26.1976774 30.4611684,38.9785738 43.2420648,48.7773249 L43.2420648,48.7773249 C43.2439801,48.7849862 43.2497261,48.7869015 43.255472,48.7926474 L43.255472,48.7926474 C34.2707298,54.354722 21.5032405,54.7645993 8.73192069,48.7773249 L8.73192069,48.7773249 C5.53909073,47.2891252 2.55694541,45.5825796 0,43.4546648 L0,43.4546648 C5.32457546,51.9739855 13.6332116,59.4303065 23.6445626,63.6880515 L23.6445626,63.6880515 C36.0098357,68.9877279 48.3004115,68.4571857 57.2391862,63.295412 L57.2391862,63.295412 L57.2391862,63.295412 C61.5888664,61.458625 70.1445781,58.6948256 74.766233,67.7389426 L74.766233,67.7389426 C74.8485915,67.905575 74.9405267,67.9898488 75.0324618,67.9994254 L75.0324618,67.9994254 L75.0669374,67.9994254 C75.4614923,67.9611191 75.8809463,66.5916689 75.8847769,64.3986334 L75.8847769,64.3986334 L75.8847769,64.3411739 C75.8771156,60.4741531 74.5861934,54.0942391 69.6542575,47.9288404 L69.6542575,47.9288404 C69.6044593,47.865635 69.5546611,47.8043449 69.5048629,47.7430549 L69.5048629,47.7430549 C69.6351043,47.3159396 69.7557692,46.8792478 69.8668574,46.4368101 L69.8668574,46.4368101 C74.1284331,30.0340532 63.9025668,10.4346357 46.6494101,0 Z" id="Page-1"></path>
            </g>
        </g>
    </g>
</svg>