<?xml version="1.0" encoding="utf-8"?>
<!-- Generator: Adobe Illustrator 21.0.0, SVG Export Plug-In . SVG Version: 6.00 Build 0)  -->
<svg version="1.1" id="Layer_1" xmlns="http://www.w3.org/2000/svg" xmlns:xlink="http://www.w3.org/1999/xlink" x="0px" y="0px"
	 viewBox="0 0 16 162.5" style="enable-background:new 0 0 16 162.5;" xml:space="preserve">
<style type="text/css">
	.st0{fill:#F1737A;}
</style>
<path class="st0" d="M9.5,146.6V123h-1V0h-1v123h-1v23.6c-3.7,0.7-6.5,4-6.5,7.9c0,4.4,3.6,8,8,8c4.4,0,8-3.6,8-8
	C16,150.6,13.2,147.4,9.5,146.6z M1,154.5c0-3.3,2.4-6.1,5.5-6.8v13.7C3.4,160.6,1,157.8,1,154.5z M9.5,161.3v-13.7
	c3.1,0.7,5.5,3.5,5.5,6.8S12.6,160.6,9.5,161.3z"/>
</svg>
