<svg id="Слой_1" data-name="Слой 1" xmlns="http://www.w3.org/2000/svg" viewBox="0 0 66 12"><defs><style>.cls-1{fill:#2b2523;}</style></defs><title>Artboard 12_2</title><path class="cls-1" d="M6,0a6,6,0,1,0,6,6A6,6,0,0,0,6,0ZM6,10a4,4,0,1,1,4-4A4,4,0,0,1,6,10Z"/><rect class="cls-1" x="62" y="8" width="1" height="1"/><rect class="cls-1" x="62" y="2" width="1" height="1"/><polygon class="cls-1" points="65 5 65 4 64 4 64 5 16 5 16 6 64 6 64 7 65 7 65 6 66 6 66 5 65 5"/><rect class="cls-1" x="63" y="3" width="1" height="1"/><rect class="cls-1" x="63" y="7" width="1" height="1"/></svg>