<svg id="Слой_1" data-name="Слой 1" xmlns="http://www.w3.org/2000/svg" viewBox="0 0 159.36 138.88"><defs><style>.cls-1{fill:#f1737a;}</style></defs><title>Artboard 12_2</title><path class="cls-1" d="M28.08,94q-1.24-.68-2.44-1.39m103.17,2.6a97.35,97.35,0,0,1-14.5,5.92l-1.91.59a115,115,0,0,1-32.79,4.69,114.74,114.74,0,0,1-34.25-5.12l-1.88-.61a96.19,96.19,0,0,1-13.63-5.74l-6.28-3.59c-9.34-5.88-16.92-13.28-22-21.85l.21.12c4.93-8.51,12.35-15.88,21.53-21.76l.07,0,.08-.13q2.41-1.54,5-2.94l1.77-.94a96.21,96.21,0,0,1,13.63-5.73l1.88-.6a117.13,117.13,0,0,1,67-.44l1.91.59a97.36,97.36,0,0,1,14.5,5.91l1.78.94c11.65,6.26,21.06,14.68,27,24.7l.86-.51c-5-8.41-12.36-15.71-21.44-21.58l.06,0A42.88,42.88,0,0,0,133.07,41l9-15.46-1.75-1-8.68,14.87a55.37,55.37,0,0,0-13.72-10.62l7.28-20-1.88-.7-7.18,19.73a73.07,73.07,0,0,0-16.31-6l3.37-19.14-2-.34-3.35,19a84.27,84.27,0,0,0-17.4-1.88V.44h-2v19a84,84,0,0,0-17.38,2.12L57.71,2.27l-2,.36,3.43,19.42a71.82,71.82,0,0,0-16.62,6.51L35.28,8.19l-1.85.69,7.37,20.68A54.24,54.24,0,0,0,28,39.93L19,24.39l-1.73,1,9.33,16.16a42.72,42.72,0,0,0-3.83,5.51C13.47,53,6,60.51,1,69.13l.28.16-.69.4C6,79.11,14.46,87.15,24.94,93.37q1,1.32,2,2.58L16.85,113.47l1.73,1,9.78-16.95a54.55,54.55,0,0,0,12.68,10L33,130l1.85.69,7.9-22.18a72.25,72.25,0,0,0,16.34,6.32l-3.77,21.42,2,.34,3.75-21.29a84.49,84.49,0,0,0,17,2.11v21h2v-21a85.08,85.08,0,0,0,17.09-1.73l3.68,20.87,2-.36-3.69-20.94a74.14,74.14,0,0,0,16.11-5.69l7.71,21.2,1.88-.68L117,108.67a56.49,56.49,0,0,0,13.73-10.08l9.2,15.76,1.75-1-9.51-16.28a44.07,44.07,0,0,0,3.72-4.73c9.57-6,17.35-13.52,22.51-22.27l-.86-.51a64.87,64.87,0,0,1-20.36,20.76c.07-.12-2,1.28-2,1.28s-3,1.82-4.63,2.67ZM28.87,43.5,27.8,41.65h0l1.07,1.85ZM61.94,32l-1.62-9.2h0L61.94,32ZM97,32l1.67-9.49h0L97,32Zm17,4.46,2.64-7.24h0l-2.64,7.24Zm16.5,6.76,1.26-2.16h0l-1.26,2.15Zm5,2.85q-2-1.24-4.15-2.38l1.06-1.82A42.48,42.48,0,0,1,135.62,46.08Zm5.09-20.22h0l-8.35,14.3h0Zm-9.57,14.41-1.45,2.48a98.4,98.4,0,0,0-14.66-6l2.57-7.07A54.11,54.11,0,0,1,131.14,40.28Zm-7.2-30.92h0l-6.89,18.92h0Zm-8.12,19.38-2.71,7.43a111.7,111.7,0,0,0-15.21-3.39l1.77-10A72,72,0,0,1,115.82,28.75ZM102.06,3.46h0L98.87,21.55h0Zm-23.57,17v11h2v-11a83.35,83.35,0,0,1,17.23,1.86L95.93,32.5a120.13,120.13,0,0,0-32.86.14L61.29,22.56A83,83,0,0,1,78.49,20.46ZM56.9,3.43l3.24,18.38h0ZM59.34,23l1.74,9.89a110.85,110.85,0,0,0-15.67,3.68l-2.53-7.1A70.68,70.68,0,0,1,59.34,23Zm-18.2,7.47,2.39,6.71A97.26,97.26,0,0,0,29.75,43l-1.26-2.18A52.92,52.92,0,0,1,41.15,30.51ZM18.62,25.75l8.65,15h0Zm8.5,16.73L28,44q-1.69.92-3.32,1.91Q25.8,44.13,27.12,42.48ZM130.21,95.61l.77,1.32h0l-.77-1.33ZM61.54,106.86l-1.28,7.24h0l1.28-7.24ZM27.19,94.66l.39.21-.09.16Zm1.69,2,.47-.81a97.23,97.23,0,0,0,13.8,5.81l-1.77,5A53.27,53.27,0,0,1,28.88,96.62Zm14.24,10.94,1.9-5.33a110.8,110.8,0,0,0,15.68,3.69l-1.4,7.93A71.1,71.1,0,0,1,43.12,107.56Zm16.52,10.08.45-2.57h0Zm20.46-1.21v-9h-2v9a83.53,83.53,0,0,1-16.86-2.09l1.43-8.12a119.8,119.8,0,0,0,16.93,1.2,119.72,119.72,0,0,0,15.94-1.06L97,114.73A84.16,84.16,0,0,1,80.1,116.44ZM99,114.3l-1.45-8.24a111.67,111.67,0,0,0,15.21-3.4l2.18,6A73,73,0,0,1,99,114.3Zm17.73-6.57-2.06-5.66a98.35,98.35,0,0,0,14.66-6l.94,1.62A55.21,55.21,0,0,1,116.7,107.73ZM140.35,113h0l-8.84-15.15h0Zm-8.67-16.83-.59-1q1.35-.73,2.66-1.49Q132.77,94.93,131.68,96.15Z"/><path class="cls-1" d="M79.49,35.44a34,34,0,1,0,34,34A34,34,0,0,0,79.49,35.44Zm0,67a33,33,0,1,1,33-33A33,33,0,0,1,79.49,102.44Z"/><circle class="cls-1" cx="79.98" cy="69.93" r="13.89"/></svg>