<svg id="Слой_1" data-name="Слой 1" xmlns="http://www.w3.org/2000/svg" viewBox="0 0 958.5 514"><defs><style>.cls-1,.cls-3{fill:#f1737a;}.cls-2{fill:#f66;opacity:0.5;}.cls-3,.cls-4{opacity:0.3;}</style></defs><title>Artboard 12_2</title><path class="cls-1" d="M6.3,514Q5,496.36,5,478.5A474.79,474.79,0,0,1,917,293.74a471.69,471.69,0,0,1,37.3,184.76q0,17.86-1.3,35.5h1q1.29-17.64,1.3-35.5a475.79,475.79,0,0,0-914-185.15A472.67,472.67,0,0,0,4,478.5Q4,496.35,5.3,514Z"/><path class="cls-2" d="M68,514q-1.49-17.62-1.5-35.5A413.26,413.26,0,0,1,860.35,317.68,410.56,410.56,0,0,1,892.82,478.5q0,17.87-1.5,35.5h1q1.49-17.62,1.49-35.5A414.26,414.26,0,0,0,98.06,317.29,411.57,411.57,0,0,0,65.51,478.5q0,17.87,1.49,35.5Z"/><path class="cls-3" d="M129.76,514Q128,496.42,128,478.5a351.67,351.67,0,0,1,703.34,0q0,17.9-1.76,35.5h1q1.75-17.6,1.75-35.5a352.67,352.67,0,1,0-705.34,0q0,17.9,1.75,35.5Z"/><g class="cls-4"><path class="cls-1" d="M715.61,374.79A259.51,259.51,0,0,1,735,514h2A260.1,260.1,0,0,0,602.07,249.31l-.94,1.76A259.36,259.36,0,0,1,715.61,374.79Z"/><path class="cls-1" d="M224.32,514A258.12,258.12,0,0,1,355.14,252.75l-1-1.75A260.12,260.12,0,0,0,222.3,514Z"/></g></svg>