<svg id="Слой_1" data-name="Слой 1" xmlns="http://www.w3.org/2000/svg" viewBox="0 0 409.86 308.5"><defs><style>.cls-1{fill:#f1737a;}.cls-2{fill:#f66;}</style></defs><title>Artboard 12_2</title><g id="Shape_20_copy_2" data-name="Shape 20 copy 2"><path class="cls-1" d="M409.86,308.5H0l.53-.78L208.33.1Zm-408-1H408L208.31,1.9Z"/></g><g id="Shape_20_copy_2-2" data-name="Shape 20 copy 2-2"><path class="cls-1" d="M343.86,274.5H65l.53-.78L206.75,64.09Zm-277-1H342L206.73,65.91Z"/></g><g id="Group_4_copy" data-name="Group 4 copy"><rect class="cls-2" x="173.44" y="182" width="1" height="37"/><g id="Shape_25_copy" data-name="Shape 25 copy"><rect class="cls-2" x="175.44" y="175" width="1" height="37"/></g><g id="Shape_25_copy-2" data-name="Shape 25 copy-2"><rect class="cls-2" x="177.44" y="180" width="1" height="27"/></g><g id="Shape_25_copy_2" data-name="Shape 25 copy 2"><rect class="cls-2" x="179.44" y="184" width="1" height="27"/></g><g id="Shape_25_copy_3" data-name="Shape 25 copy 3"><rect class="cls-2" x="181.44" y="179" width="1" height="27"/></g><g id="Shape_25_copy_4" data-name="Shape 25 copy 4"><rect class="cls-2" x="183.44" y="178" width="1" height="37"/></g><g id="Shape_25_copy_4-2" data-name="Shape 25 copy 4-2"><rect class="cls-2" x="183.44" y="178" width="1" height="37"/></g><g id="Shape_25_copy_5" data-name="Shape 25 copy 5"><rect class="cls-2" x="185.44" y="184" width="1" height="25"/></g><g id="Shape_25_copy_6" data-name="Shape 25 copy 6"><rect class="cls-2" x="187.44" y="188" width="1" height="17"/></g><g id="Shape_25_copy_7" data-name="Shape 25 copy 7"><rect class="cls-2" x="189.44" y="184" width="1" height="24"/></g><g id="Shape_25_copy_8" data-name="Shape 25 copy 8"><rect class="cls-2" x="191.44" y="187" width="1" height="20"/></g><g id="Shape_25_copy_8-2" data-name="Shape 25 copy 8-2"><rect class="cls-2" x="193.44" y="184" width="1" height="27"/></g><g id="Shape_25_copy_9" data-name="Shape 25 copy 9"><rect class="cls-2" x="195.44" y="192" width="1" height="23"/></g><g id="Shape_25_copy_10" data-name="Shape 25 copy 10"><rect class="cls-2" x="197.44" y="182" width="1" height="33"/></g><g id="Shape_25_copy_11" data-name="Shape 25 copy 11"><rect class="cls-2" x="199.44" y="187" width="1" height="25"/></g><g id="Shape_25_copy_12" data-name="Shape 25 copy 12"><rect class="cls-2" x="201.44" y="184" width="1" height="28"/></g><g id="Shape_25_copy_13" data-name="Shape 25 copy 13"><rect class="cls-2" x="203.44" y="181" width="1" height="33"/></g><g id="Shape_25_copy_14" data-name="Shape 25 copy 14"><rect class="cls-2" x="205.44" y="181" width="1" height="26"/></g><rect class="cls-2" x="239.44" y="179" width="1" height="37"/><g id="Shape_25_copy-3" data-name="Shape 25 copy-3"><rect class="cls-2" x="237.44" y="172" width="1" height="37"/></g><g id="Shape_25_copy-4" data-name="Shape 25 copy-4"><rect class="cls-2" x="235.44" y="177" width="1" height="27"/></g><g id="Shape_25_copy_2-2" data-name="Shape 25 copy 2-2"><rect class="cls-2" x="233.44" y="181" width="1" height="27"/></g><g id="Shape_25_copy_3-2" data-name="Shape 25 copy 3-2"><rect class="cls-2" x="231.44" y="176" width="1" height="27"/></g><g id="Shape_25_copy_4-3" data-name="Shape 25 copy 4-3"><rect class="cls-2" x="229.44" y="175" width="1" height="37"/></g><g id="Shape_25_copy_4-4" data-name="Shape 25 copy 4-4"><rect class="cls-2" x="229.44" y="175" width="1" height="37"/></g><g id="Shape_25_copy_5-2" data-name="Shape 25 copy 5-2"><rect class="cls-2" x="227.44" y="181" width="1" height="25"/></g><g id="Shape_25_copy_6-2" data-name="Shape 25 copy 6-2"><rect class="cls-2" x="225.44" y="185" width="1" height="17"/></g><g id="Shape_25_copy_7-2" data-name="Shape 25 copy 7-2"><rect class="cls-2" x="223.44" y="181" width="1" height="24"/></g><g id="Shape_25_copy_8-3" data-name="Shape 25 copy 8-3"><rect class="cls-2" x="221.44" y="184" width="1" height="20"/></g><g id="Shape_25_copy_8-4" data-name="Shape 25 copy 8-4"><rect class="cls-2" x="219.44" y="181" width="1" height="27"/></g><g id="Shape_25_copy_9-2" data-name="Shape 25 copy 9-2"><rect class="cls-2" x="217.44" y="189" width="1" height="23"/></g><g id="Shape_25_copy_10-2" data-name="Shape 25 copy 10-2"><rect class="cls-2" x="215.44" y="179" width="1" height="33"/></g><g id="Shape_25_copy_11-2" data-name="Shape 25 copy 11-2"><rect class="cls-2" x="213.44" y="184" width="1" height="25"/></g><g id="Shape_25_copy_12-2" data-name="Shape 25 copy 12-2"><rect class="cls-2" x="211.44" y="181" width="1" height="28"/></g><g id="Shape_25_copy_13-2" data-name="Shape 25 copy 13-2"><rect class="cls-2" x="209.44" y="178" width="1" height="33"/></g><g id="Shape_25_copy_14-2" data-name="Shape 25 copy 14-2"><rect class="cls-2" x="207.44" y="178" width="1" height="26"/></g></g><rect class="cls-1" x="62.65" y="145.13" width="4" height="21.18" transform="translate(-100.18 120.19) rotate(-55.29)"/><rect class="cls-1" x="75.34" y="126.81" width="4" height="21.18" transform="translate(-79.65 122.74) rotate(-55.29)"/><rect class="cls-1" x="88.03" y="108.49" width="4" height="21.18" transform="translate(-59.12 125.28) rotate(-55.29)"/></svg>