<?xml version="1.0" encoding="UTF-8"?>
<svg width="928px" height="990px" viewBox="0 0 928 990" version="1.1" xmlns="http://www.w3.org/2000/svg" xmlns:xlink="http://www.w3.org/1999/xlink">
    <!-- Generator: sketchtool 49.1 (51147) - http://www.bohemiancoding.com/sketch -->
    <title>510A0D58-54B1-46C3-9FFF-1DA4ACD42BCC</title>
    <desc>Created with sketchtool.</desc>
    <defs></defs>
    <g id="Page-1" stroke="none" stroke-width="1" fill="none" fill-rule="evenodd">
        <g id="void_big_circule">
            <g id="Group-2">
                <g>
                    <path d="M257,326 L257,313.7 C270.1,313.7 280.7,303.1 280.7,290 C280.7,276.9 270.1,266.3 257,266.3 L257,254 C276.9,254 293,270.1 293,290 C293,309.9 276.9,326 257,326 Z" id="Shape" fill="#F1737A" fill-rule="nonzero"></path>
                    <path d="M189.5,290 C173.8,290 161,277.2 161,261.5 C161,245.8 173.8,233 189.5,233 C205.2,233 218,245.8 218,261.5 C218,277.2 205.2,290 189.5,290 Z M189.5,241.4 C178.4,241.4 169.4,250.4 169.4,261.5 C169.4,272.6 178.4,281.6 189.5,281.6 C200.6,281.6 209.6,272.6 209.6,261.5 C209.6,250.4 200.6,241.4 189.5,241.4 Z" id="Shape" fill="#F1737A" fill-rule="nonzero"></path>
                    <path d="M65.5799891,493.179989 C63.0476141,493.174466 60.9981602,491.119043 61.0000012,488.586663 C61.0018423,486.054283 63.0542827,484.001842 65.5866631,484.000001 C68.1190434,483.99816 70.1744659,486.047614 70.1799891,488.579989 C70.1799891,489.799985 69.6953476,490.970013 68.8326803,491.83268 C67.970013,492.695348 66.799985,493.179989 65.5799891,493.179989 Z M65.5799891,485.989989 C64.1508863,485.995507 62.9963227,487.157521 62.9999977,488.58663 C63.0036727,490.015739 64.1641973,491.1718 65.5933096,491.169968 C67.0224218,491.168136 68.1799785,490.009103 68.1799891,488.579989 C68.1744812,487.147956 67.0120333,485.989979 65.5799891,485.989989 Z" id="Shape" fill="#F1737A" fill-rule="nonzero"></path>
                    <path d="M4.57998911,471.179989 C2.04761408,471.174466 -0.00183982626,469.119043 1.23942827e-06,466.586663 C0.00184230512,464.054283 2.05428267,462.001842 4.58666305,462.000001 C7.11904344,461.99816 9.17446592,464.047614 9.17998911,466.579989 C9.17998911,467.799985 8.69534764,468.970013 7.8326803,469.83268 C6.97001296,470.695348 5.79998496,471.179989 4.57998911,471.179989 Z M4.57998911,463.989989 C3.15088635,463.995507 1.99632268,465.157521 1.99999767,466.58663 C2.00367267,468.015739 3.16419734,469.1718 4.59330958,469.169968 C6.02242182,469.168136 7.17997846,468.009103 7.17998911,466.579989 C7.17448125,465.147956 6.01203326,463.989979 4.57998911,463.989989 Z" id="Shape-Copy-10" fill="#F1737A" fill-rule="nonzero"></path>
                    <path d="M13.5799891,487.179989 C11.0476141,487.174466 8.99816017,485.119043 9.00000124,482.586663 C9.00184231,480.054283 11.0542827,478.001842 13.5866631,478.000001 C16.1190434,477.99816 18.1744659,480.047614 18.1799891,482.579989 C18.1799891,483.799985 17.6953476,484.970013 16.8326803,485.83268 C15.970013,486.695348 14.799985,487.179989 13.5799891,487.179989 Z M13.5799891,479.989989 C12.1508863,479.995507 10.9963227,481.157521 10.9999977,482.58663 C11.0036727,484.015739 12.1641973,485.1718 13.5933096,485.169968 C15.0224218,485.168136 16.1799785,484.009103 16.1799891,482.579989 C16.1744812,481.147956 15.0120333,479.989979 13.5799891,479.989989 Z" id="Shape-Copy-11" fill="#F1737A" fill-rule="nonzero"></path>
                    <path d="M24.5799891,503.179989 C22.0476141,503.174466 19.9981602,501.119043 20.0000012,498.586663 C20.0018423,496.054283 22.0542827,494.001842 24.5866631,494.000001 C27.1190434,493.99816 29.1744659,496.047614 29.1799891,498.579989 C29.1799891,499.799985 28.6953476,500.970013 27.8326803,501.83268 C26.970013,502.695348 25.799985,503.179989 24.5799891,503.179989 Z M24.5799891,495.989989 C23.1508863,495.995507 21.9963227,497.157521 21.9999977,498.58663 C22.0036727,500.015739 23.1641973,501.1718 24.5933096,501.169968 C26.0224218,501.168136 27.1799785,500.009103 27.1799891,498.579989 C27.1744812,497.147956 26.0120333,495.989979 24.5799891,495.989989 Z" id="Shape-Copy-12" fill="#F1737A" fill-rule="nonzero"></path>
                    <path d="M37.5799891,517.179989 C35.0476141,517.174466 32.9981602,515.119043 33.0000012,512.586663 C33.0018423,510.054283 35.0542827,508.001842 37.5866631,508.000001 C40.1190434,507.99816 42.1744659,510.047614 42.1799891,512.579989 C42.1799891,513.799985 41.6953476,514.970013 40.8326803,515.83268 C39.970013,516.695348 38.799985,517.179989 37.5799891,517.179989 Z M37.5799891,509.989989 C36.1508863,509.995507 34.9963227,511.157521 34.9999977,512.58663 C35.0036727,514.015739 36.1641973,515.1718 37.5933096,515.169968 C39.0224218,515.168136 40.1799785,514.009103 40.1799891,512.579989 C40.1744812,511.147956 39.0120333,509.989979 37.5799891,509.989989 Z" id="Shape-Copy-13" fill="#F1737A" fill-rule="nonzero"></path>
                    <path d="M50.5799891,531.179989 C48.0476141,531.174466 45.9981602,529.119043 46.0000012,526.586663 C46.0018423,524.054283 48.0542827,522.001842 50.5866631,522.000001 C53.1190434,521.99816 55.1744659,524.047614 55.1799891,526.579989 C55.1799891,527.799985 54.6953476,528.970013 53.8326803,529.83268 C52.970013,530.695348 51.799985,531.179989 50.5799891,531.179989 Z M50.5799891,523.989989 C49.1508863,523.995507 47.9963227,525.157521 47.9999977,526.58663 C48.0036727,528.015739 49.1641973,529.1718 50.5933096,529.169968 C52.0224218,529.168136 53.1799785,528.009103 53.1799891,526.579989 C53.1744812,525.147956 52.0120333,523.989979 50.5799891,523.989989 Z" id="Shape-Copy-14" fill="#F1737A" fill-rule="nonzero"></path>
                    <path d="M195,511.5 C89.2374704,511.5 3.5,425.76253 3.5,320 C3.5,214.23747 89.2374704,128.5 195,128.5 C300.76253,128.5 386.5,214.23747 386.5,320 C386.5,425.76253 300.76253,511.5 195,511.5 Z M195,510.5 C300.210245,510.5 385.5,425.210245 385.5,320 C385.5,214.789755 300.210245,129.5 195,129.5 C89.7897552,129.5 4.5,214.789755 4.5,320 C4.5,425.210245 89.7897552,510.5 195,510.5 Z" id="Oval" fill="#F1737A" fill-rule="nonzero"></path>
                    <rect id="Rectangle-3" fill="#F1737A" x="199" y="511" width="1" height="479"></rect>
                    <rect id="Rectangle-4" fill="#F1737A" x="384" y="346" width="545" height="1"></rect>
                    <path d="M81.5799891,504.179989 C79.0476141,504.174466 76.9981602,502.119043 77.0000012,499.586663 C77.0018423,497.054283 79.0542827,495.001842 81.5866631,495.000001 C84.1190434,494.99816 86.1744659,497.047614 86.1799891,499.579989 C86.1799891,500.799985 85.6953476,501.970013 84.8326803,502.83268 C83.970013,503.695348 82.799985,504.179989 81.5799891,504.179989 Z M81.5799891,496.989989 C80.1508863,496.995507 78.9963227,498.157521 78.9999977,499.58663 C79.0036727,501.015739 80.1641973,502.1718 81.5933096,502.169968 C83.0224218,502.168136 84.1799785,501.009103 84.1799891,499.579989 C84.1744812,498.147956 83.0120333,496.989979 81.5799891,496.989989 Z" id="Shape-Copy" fill="#F1737A" fill-rule="nonzero"></path>
                    <path d="M98.5799891,513.179989 C96.0476141,513.174466 93.9981602,511.119043 94.0000012,508.586663 C94.0018423,506.054283 96.0542827,504.001842 98.5866631,504.000001 C101.119043,503.99816 103.174466,506.047614 103.179989,508.579989 C103.179989,509.799985 102.695348,510.970013 101.83268,511.83268 C100.970013,512.695348 99.799985,513.179989 98.5799891,513.179989 Z M98.5799891,505.989989 C97.1508863,505.995507 95.9963227,507.157521 95.9999977,508.58663 C96.0036727,510.015739 97.1641973,511.1718 98.5933096,511.169968 C100.022422,511.168136 101.179978,510.009103 101.179989,508.579989 C101.174481,507.147956 100.012033,505.989979 98.5799891,505.989989 Z" id="Shape-Copy-2" fill="#F1737A" fill-rule="nonzero"></path>
                    <path d="M116.579989,521.179989 C114.047614,521.174466 111.99816,519.119043 112.000001,516.586663 C112.001842,514.054283 114.054283,512.001842 116.586663,512.000001 C119.119043,511.99816 121.174466,514.047614 121.179989,516.579989 C121.179989,517.799985 120.695348,518.970013 119.83268,519.83268 C118.970013,520.695348 117.799985,521.179989 116.579989,521.179989 Z M116.579989,513.989989 C115.150886,513.995507 113.996323,515.157521 113.999998,516.58663 C114.003673,518.015739 115.164197,519.1718 116.59331,519.169968 C118.022422,519.168136 119.179978,518.009103 119.179989,516.579989 C119.174481,515.147956 118.012033,513.989979 116.579989,513.989989 Z" id="Shape-Copy-3" fill="#F1737A" fill-rule="nonzero"></path>
                    <path d="M134.579989,527.179989 C132.047614,527.174466 129.99816,525.119043 130.000001,522.586663 C130.001842,520.054283 132.054283,518.001842 134.586663,518.000001 C137.119043,517.99816 139.174466,520.047614 139.179989,522.579989 C139.179989,523.799985 138.695348,524.970013 137.83268,525.83268 C136.970013,526.695348 135.799985,527.179989 134.579989,527.179989 Z M134.579989,519.989989 C133.150886,519.995507 131.996323,521.157521 131.999998,522.58663 C132.003673,524.015739 133.164197,525.1718 134.59331,525.169968 C136.022422,525.168136 137.179978,524.009103 137.179989,522.579989 C137.174481,521.147956 136.012033,519.989979 134.579989,519.989989 Z" id="Shape-Copy-4" fill="#F1737A" fill-rule="nonzero"></path>
                    <path d="M153.579989,532.179989 C151.047614,532.174466 148.99816,530.119043 149.000001,527.586663 C149.001842,525.054283 151.054283,523.001842 153.586663,523.000001 C156.119043,522.99816 158.174466,525.047614 158.179989,527.579989 C158.179989,528.799985 157.695348,529.970013 156.83268,530.83268 C155.970013,531.695348 154.799985,532.179989 153.579989,532.179989 Z M153.579989,524.989989 C152.150886,524.995507 150.996323,526.157521 150.999998,527.58663 C151.003673,529.015739 152.164197,530.1718 153.59331,530.169968 C155.022422,530.168136 156.179978,529.009103 156.179989,527.579989 C156.174481,526.147956 155.012033,524.989979 153.579989,524.989989 Z" id="Shape-Copy-5" fill="#F1737A" fill-rule="nonzero"></path>
                    <path d="M172.579989,535.179989 C170.047614,535.174466 167.99816,533.119043 168.000001,530.586663 C168.001842,528.054283 170.054283,526.001842 172.586663,526.000001 C175.119043,525.99816 177.174466,528.047614 177.179989,530.579989 C177.179989,531.799985 176.695348,532.970013 175.83268,533.83268 C174.970013,534.695348 173.799985,535.179989 172.579989,535.179989 Z M172.579989,527.989989 C171.150886,527.995507 169.996323,529.157521 169.999998,530.58663 C170.003673,532.015739 171.164197,533.1718 172.59331,533.169968 C174.022422,533.168136 175.179978,532.009103 175.179989,530.579989 C175.174481,529.147956 174.012033,527.989979 172.579989,527.989989 Z" id="Shape-Copy-6" fill="#F1737A" fill-rule="nonzero"></path>
                    <path d="M192.579989,536.179989 C190.047614,536.174466 187.99816,534.119043 188.000001,531.586663 C188.001842,529.054283 190.054283,527.001842 192.586663,527.000001 C195.119043,526.99816 197.174466,529.047614 197.179989,531.579989 C197.179989,532.799985 196.695348,533.970013 195.83268,534.83268 C194.970013,535.695348 193.799985,536.179989 192.579989,536.179989 Z M192.579989,528.989989 C191.150886,528.995507 189.996323,530.157521 189.999998,531.58663 C190.003673,533.015739 191.164197,534.1718 192.59331,534.169968 C194.022422,534.168136 195.179978,533.009103 195.179989,531.579989 C195.174481,530.147956 194.012033,528.989979 192.579989,528.989989 Z" id="Shape-Copy-7" fill="#F1737A" fill-rule="nonzero"></path>
                    <path d="M212.579989,535.179989 C210.047614,535.174466 207.99816,533.119043 208.000001,530.586663 C208.001842,528.054283 210.054283,526.001842 212.586663,526.000001 C215.119043,525.99816 217.174466,528.047614 217.179989,530.579989 C217.179989,531.799985 216.695348,532.970013 215.83268,533.83268 C214.970013,534.695348 213.799985,535.179989 212.579989,535.179989 Z M212.579989,527.989989 C211.150886,527.995507 209.996323,529.157521 209.999998,530.58663 C210.003673,532.015739 211.164197,533.1718 212.59331,533.169968 C214.022422,533.168136 215.179978,532.009103 215.179989,530.579989 C215.174481,529.147956 214.012033,527.989979 212.579989,527.989989 Z" id="Shape-Copy-8" fill="#F1737A" fill-rule="nonzero"></path>
                    <path d="M232.579989,533.179989 C230.047614,533.174466 227.99816,531.119043 228.000001,528.586663 C228.001842,526.054283 230.054283,524.001842 232.586663,524.000001 C235.119043,523.99816 237.174466,526.047614 237.179989,528.579989 C237.179989,529.799985 236.695348,530.970013 235.83268,531.83268 C234.970013,532.695348 233.799985,533.179989 232.579989,533.179989 Z M232.579989,525.989989 C231.150886,525.995507 229.996323,527.157521 229.999998,528.58663 C230.003673,530.015739 231.164197,531.1718 232.59331,531.169968 C234.022422,531.168136 235.179978,530.009103 235.179989,528.579989 C235.174481,527.147956 234.012033,525.989979 232.579989,525.989989 Z" id="Shape-Copy-9" fill="#F1737A" fill-rule="nonzero"></path>
                    <polygon id="Shape" fill="#F1737A" fill-rule="nonzero" points="189 55 211 55 200 37"></polygon>
                    <circle id="Oval" fill="#F1737A" fill-rule="nonzero" cx="199.5" cy="10.5" r="10.5"></circle>
                    <g id="cilindre" transform="translate(90.000000, 374.000000)" fill="#FF6666" fill-rule="nonzero">
                        <path d="M65.491741,12.3263407 C61.6452509,7.76695467 57.2346089,4.09003041 53.0803996,1.93290151 C49.2339095,-0.0281247619 46.0028578,-0.51838133 43.7462502,0.56018312 L43.6949637,0.511157463 L43.2846714,0.805311404 C43.1308118,0.903362717 42.9769522,1.00141403 42.8743792,1.09946534 L42.8743792,1.148491 L3.22988775,32.573937 C2.81959547,32.721014 2.46058973,32.9661423 2.10158399,33.2112705 C-0.103737009,34.9271685 -0.616602357,38.3589645 0.768134083,42.9183506 C2.05029745,47.281634 4.9223434,52.1351741 8.76883351,56.6945601 C12.6153236,61.2539462 17.0259656,64.9308705 21.1801749,67.0879994 C23.6419286,68.3626665 25.8985361,69 27.7961379,69 C29.1808744,69 30.3604647,68.6568204 31.2836223,67.9704612 L31.3349088,68.0194869 L71.8512713,35.9076817 C76.3644864,32.4758857 73.543727,21.8863438 65.491741,12.3263407 Z M21.8981864,65.862358 C17.8978367,63.8032804 13.6923409,60.2734331 9.94842381,55.861124 C6.20450677,51.4488149 3.48632043,46.7423518 2.25544359,42.575171 C1.07585329,38.7021441 1.3835725,35.711579 3.07602815,34.3878863 C3.7427531,33.8486041 4.66591073,33.6034758 5.69164142,33.6034758 C7.33281054,33.6034758 9.33298539,34.1917837 11.5895929,35.3683994 C15.5899426,37.427477 19.7954385,40.9573243 23.5393555,45.3696334 C27.2832726,49.7819425 30.0014589,54.4884056 31.2323358,58.6555864 C32.4119261,62.5286133 32.1042068,65.5191784 30.4117512,66.8428711 C28.7192955,68.1175382 25.6421035,67.7743586 21.8981864,65.862358 Z M70.8768272,34.8291172 L33.3350837,64.5876909 C33.6428029,62.8717929 33.4889433,60.714664 32.7196453,58.2633812 C31.4374819,53.9000977 28.5654359,49.0465577 24.7189458,44.4871716 C20.8724557,39.8787599 16.4618137,36.2018356 12.3076044,34.0447067 C10.0509969,32.8680909 7.94824895,32.2307574 6.20450677,32.1327061 L44.2078291,2.03095282 C45.9515712,1.00141403 48.8749037,1.44264494 52.3623881,3.25659424 C56.3627378,5.31567183 60.5682337,8.84551912 64.3121507,13.2578282 C70.7229676,20.9058307 75.0310365,31.6424495 70.8768272,34.8291172 L71.3896925,35.4174251 L70.8768272,34.8291172 Z" id="Shape"></path>
                    </g>
                </g>
            </g>
        </g>
    </g>
</svg>