<?xml version="1.0" encoding="utf-8"?>
<!-- Generator: Adobe Illustrator 21.0.0, SVG Export Plug-In . SVG Version: 6.00 Build 0)  -->
<svg version="1.1" id="Layer_1" xmlns="http://www.w3.org/2000/svg" xmlns:xlink="http://www.w3.org/1999/xlink" x="0px" y="0px"
	 viewBox="0 0 13.4 323.3" style="enable-background:new 0 0 13.4 323.3;" xml:space="preserve">
<style type="text/css">
	.st0{fill:#F1737A;}
</style>
<polyline class="st0" points="6.7,85.2 3.3,81.8 13.4,71.8 12,70.3 11.9,70.4 3.3,61.8 13.4,51.8 12,50.3 11.9,50.4 3.3,41.8 
	13.4,31.8 12,30.3 11.9,30.4 3.3,21.8 13.4,11.8 12,10.3 11.9,10.4 1.5,0 0,1.4 10.5,11.8 1.9,20.4 1.5,20 0,21.4 0.5,21.8 
	0.4,21.9 1.9,23.3 1.9,23.3 10.5,31.8 1.9,40.4 1.5,40 0,41.4 0.5,41.8 0.4,41.9 1.9,43.3 1.9,43.3 10.5,51.8 1.9,60.4 1.5,60 
	0,61.4 0.5,61.8 0.4,61.9 1.9,63.3 1.9,63.3 10.5,71.8 1.9,80.4 1.5,80 0,81.4 0.5,81.8 0.4,81.9 1.9,83.3 1.9,83.3 10.5,91.8 
	1.9,100.4 1.5,100 0,101.4 0.5,101.8 0.4,101.9 1.9,103.3 1.9,103.3 10.5,111.8 1.9,120.4 1.5,120 0,121.4 0.5,121.8 0.4,121.9 
	1.9,123.3 1.9,123.3 10.5,131.8 1.9,140.4 1.5,140 0,141.4 0.5,141.8 0.4,141.9 1.9,143.3 1.9,143.3 10.5,151.8 1.9,160.4 1.5,160 
	0,161.4 0.5,161.8 0.4,161.9 1.9,163.3 1.9,163.3 10.5,171.8 1.9,180.4 1.5,180 0,181.4 0.5,181.8 0.4,181.9 1.9,183.3 1.9,183.3 
	10.5,191.8 1.9,200.4 1.5,200 0,201.4 0.5,201.8 0.4,201.9 1.9,203.3 1.9,203.3 10.5,211.8 1.9,220.4 1.5,220 0,221.4 0.5,221.8 
	0.4,221.9 1.9,223.3 1.9,223.3 10.5,231.8 1.9,240.4 1.5,240 0,241.4 0.5,241.8 0.4,241.9 1.9,243.3 1.9,243.3 10.5,251.8 
	1.9,260.4 1.5,260 0,261.4 0.5,261.8 0.4,261.9 1.9,263.3 1.9,263.3 10.5,271.8 1.9,280.4 1.5,280 0,281.4 0.5,281.8 0.4,281.9 
	1.9,283.3 1.9,283.3 10.5,291.8 1.9,300.4 1.5,300 0,301.4 0.5,301.8 0.4,301.9 1.9,303.3 1.9,303.3 10.5,311.8 0.4,321.9 
	1.9,323.3 13.4,311.8 12,310.3 11.9,310.4 3.3,301.8 13.4,291.8 12,290.3 11.9,290.4 3.3,281.8 13.4,271.8 12,270.3 11.9,270.4 
	3.3,261.8 13.4,251.8 12,250.3 11.9,250.4 3.3,241.8 13.4,231.8 12,230.3 11.9,230.4 3.3,221.8 13.4,211.8 12,210.3 11.9,210.4 
	3.3,201.8 13.4,191.8 12,190.3 11.9,190.4 3.3,181.8 13.4,171.8 12,170.3 11.9,170.4 3.3,161.8 13.4,151.8 12,150.3 11.9,150.4 
	3.3,141.8 13.4,131.8 12,130.3 11.9,130.4 3.3,121.8 13.4,111.8 12,110.3 11.9,110.4 3.3,101.8 13.4,91.8 12,90.3 11.9,90.4 
	6.7,85.2 "/>
</svg>
